<svg xmlns="http://www.w3.org/2000/svg" xmlns:xlink="http://www.w3.org/1999/xlink" width="165" zoomAndPan="magnify" viewBox="0 0 123.75 37.5" height="50" preserveAspectRatio="xMidYMid meet" version="1.0"><defs><g/><linearGradient x1="-1" gradientTransform="matrix(1, 0, 0, 1, -0.000000384406, 0.00000169398)" y1="1" x2="143.518594" gradientUnits="userSpaceOnUse" y2="1" id="c3d0810f35"><stop stop-opacity="1" stop-color="rgb(65.098572%, 65.098572%, 65.098572%)" offset="0"/><stop stop-opacity="1" stop-color="rgb(65.252686%, 65.252686%, 65.252686%)" offset="0.015625"/><stop stop-opacity="1" stop-color="rgb(65.545654%, 65.545654%, 65.545654%)" offset="0.0234375"/><stop stop-opacity="1" stop-color="rgb(65.821838%, 65.821838%, 65.821838%)" offset="0.03125"/><stop stop-opacity="1" stop-color="rgb(66.098022%, 66.098022%, 66.098022%)" offset="0.0390625"/><stop stop-opacity="1" stop-color="rgb(66.374207%, 66.374207%, 66.374207%)" offset="0.046875"/><stop stop-opacity="1" stop-color="rgb(66.650391%, 66.650391%, 66.650391%)" offset="0.0546875"/><stop stop-opacity="1" stop-color="rgb(66.928101%, 66.928101%, 66.928101%)" offset="0.0625"/><stop stop-opacity="1" stop-color="rgb(67.204285%, 67.204285%, 67.204285%)" offset="0.0703125"/><stop stop-opacity="1" stop-color="rgb(67.480469%, 67.480469%, 67.480469%)" offset="0.078125"/><stop stop-opacity="1" stop-color="rgb(67.756653%, 67.756653%, 67.756653%)" offset="0.0859375"/><stop stop-opacity="1" stop-color="rgb(68.032837%, 68.032837%, 68.032837%)" offset="0.09375"/><stop stop-opacity="1" stop-color="rgb(68.309021%, 68.309021%, 68.309021%)" offset="0.101562"/><stop stop-opacity="1" stop-color="rgb(68.586731%, 68.586731%, 68.586731%)" offset="0.109375"/><stop stop-opacity="1" stop-color="rgb(68.862915%, 68.862915%, 68.862915%)" offset="0.117187"/><stop stop-opacity="1" stop-color="rgb(69.139099%, 69.139099%, 69.139099%)" offset="0.125"/><stop stop-opacity="1" stop-color="rgb(69.415283%, 69.415283%, 69.415283%)" offset="0.132812"/><stop stop-opacity="1" stop-color="rgb(69.691467%, 69.691467%, 69.691467%)" offset="0.140625"/><stop stop-opacity="1" stop-color="rgb(69.969177%, 69.969177%, 69.969177%)" offset="0.148437"/><stop stop-opacity="1" stop-color="rgb(70.245361%, 70.245361%, 70.245361%)" offset="0.15625"/><stop stop-opacity="1" stop-color="rgb(70.521545%, 70.521545%, 70.521545%)" offset="0.164062"/><stop stop-opacity="1" stop-color="rgb(70.797729%, 70.797729%, 70.797729%)" offset="0.171875"/><stop stop-opacity="1" stop-color="rgb(71.073914%, 71.073914%, 71.073914%)" offset="0.179687"/><stop stop-opacity="1" stop-color="rgb(71.351624%, 71.351624%, 71.351624%)" offset="0.1875"/><stop stop-opacity="1" stop-color="rgb(71.627808%, 71.627808%, 71.627808%)" offset="0.195312"/><stop stop-opacity="1" stop-color="rgb(71.903992%, 71.903992%, 71.903992%)" offset="0.203125"/><stop stop-opacity="1" stop-color="rgb(72.180176%, 72.180176%, 72.180176%)" offset="0.210937"/><stop stop-opacity="1" stop-color="rgb(72.45636%, 72.45636%, 72.45636%)" offset="0.21875"/><stop stop-opacity="1" stop-color="rgb(72.73407%, 72.73407%, 72.73407%)" offset="0.226562"/><stop stop-opacity="1" stop-color="rgb(73.010254%, 73.010254%, 73.010254%)" offset="0.234375"/><stop stop-opacity="1" stop-color="rgb(73.286438%, 73.286438%, 73.286438%)" offset="0.242187"/><stop stop-opacity="1" stop-color="rgb(73.562622%, 73.562622%, 73.562622%)" offset="0.25"/><stop stop-opacity="1" stop-color="rgb(73.838806%, 73.838806%, 73.838806%)" offset="0.257812"/><stop stop-opacity="1" stop-color="rgb(74.116516%, 74.116516%, 74.116516%)" offset="0.265625"/><stop stop-opacity="1" stop-color="rgb(74.3927%, 74.3927%, 74.3927%)" offset="0.273437"/><stop stop-opacity="1" stop-color="rgb(74.668884%, 74.668884%, 74.668884%)" offset="0.28125"/><stop stop-opacity="1" stop-color="rgb(74.945068%, 74.945068%, 74.945068%)" offset="0.289062"/><stop stop-opacity="1" stop-color="rgb(75.221252%, 75.221252%, 75.221252%)" offset="0.296875"/><stop stop-opacity="1" stop-color="rgb(75.498962%, 75.498962%, 75.498962%)" offset="0.304688"/><stop stop-opacity="1" stop-color="rgb(75.775146%, 75.775146%, 75.775146%)" offset="0.3125"/><stop stop-opacity="1" stop-color="rgb(76.051331%, 76.051331%, 76.051331%)" offset="0.320312"/><stop stop-opacity="1" stop-color="rgb(76.327515%, 76.327515%, 76.327515%)" offset="0.328125"/><stop stop-opacity="1" stop-color="rgb(76.603699%, 76.603699%, 76.603699%)" offset="0.335938"/><stop stop-opacity="1" stop-color="rgb(76.881409%, 76.881409%, 76.881409%)" offset="0.34375"/><stop stop-opacity="1" stop-color="rgb(77.157593%, 77.157593%, 77.157593%)" offset="0.351563"/><stop stop-opacity="1" stop-color="rgb(77.433777%, 77.433777%, 77.433777%)" offset="0.359375"/><stop stop-opacity="1" stop-color="rgb(77.709961%, 77.709961%, 77.709961%)" offset="0.367188"/><stop stop-opacity="1" stop-color="rgb(77.986145%, 77.986145%, 77.986145%)" offset="0.375"/><stop stop-opacity="1" stop-color="rgb(78.263855%, 78.263855%, 78.263855%)" offset="0.382812"/><stop stop-opacity="1" stop-color="rgb(78.540039%, 78.540039%, 78.540039%)" offset="0.390625"/><stop stop-opacity="1" stop-color="rgb(78.816223%, 78.816223%, 78.816223%)" offset="0.398437"/><stop stop-opacity="1" stop-color="rgb(79.092407%, 79.092407%, 79.092407%)" offset="0.40625"/><stop stop-opacity="1" stop-color="rgb(79.368591%, 79.368591%, 79.368591%)" offset="0.414062"/><stop stop-opacity="1" stop-color="rgb(79.644775%, 79.644775%, 79.644775%)" offset="0.421875"/><stop stop-opacity="1" stop-color="rgb(79.922485%, 79.922485%, 79.922485%)" offset="0.429688"/><stop stop-opacity="1" stop-color="rgb(80.198669%, 80.198669%, 80.198669%)" offset="0.4375"/><stop stop-opacity="1" stop-color="rgb(80.474854%, 80.474854%, 80.474854%)" offset="0.445312"/><stop stop-opacity="1" stop-color="rgb(80.751038%, 80.751038%, 80.751038%)" offset="0.453125"/><stop stop-opacity="1" stop-color="rgb(81.027222%, 81.027222%, 81.027222%)" offset="0.460938"/><stop stop-opacity="1" stop-color="rgb(81.304932%, 81.304932%, 81.304932%)" offset="0.46875"/><stop stop-opacity="1" stop-color="rgb(81.581116%, 81.581116%, 81.581116%)" offset="0.476563"/><stop stop-opacity="1" stop-color="rgb(81.8573%, 81.8573%, 81.8573%)" offset="0.484375"/><stop stop-opacity="1" stop-color="rgb(82.133484%, 82.133484%, 82.133484%)" offset="0.492188"/><stop stop-opacity="1" stop-color="rgb(82.409668%, 82.409668%, 82.409668%)" offset="0.5"/><stop stop-opacity="1" stop-color="rgb(82.687378%, 82.687378%, 82.687378%)" offset="0.507812"/><stop stop-opacity="1" stop-color="rgb(82.963562%, 82.963562%, 82.963562%)" offset="0.515625"/><stop stop-opacity="1" stop-color="rgb(83.239746%, 83.239746%, 83.239746%)" offset="0.523438"/><stop stop-opacity="1" stop-color="rgb(83.51593%, 83.51593%, 83.51593%)" offset="0.53125"/><stop stop-opacity="1" stop-color="rgb(83.792114%, 83.792114%, 83.792114%)" offset="0.539062"/><stop stop-opacity="1" stop-color="rgb(84.069824%, 84.069824%, 84.069824%)" offset="0.546875"/><stop stop-opacity="1" stop-color="rgb(84.346008%, 84.346008%, 84.346008%)" offset="0.554687"/><stop stop-opacity="1" stop-color="rgb(84.622192%, 84.622192%, 84.622192%)" offset="0.5625"/><stop stop-opacity="1" stop-color="rgb(84.898376%, 84.898376%, 84.898376%)" offset="0.570312"/><stop stop-opacity="1" stop-color="rgb(85.174561%, 85.174561%, 85.174561%)" offset="0.578125"/><stop stop-opacity="1" stop-color="rgb(85.452271%, 85.452271%, 85.452271%)" offset="0.585938"/><stop stop-opacity="1" stop-color="rgb(85.728455%, 85.728455%, 85.728455%)" offset="0.59375"/><stop stop-opacity="1" stop-color="rgb(86.004639%, 86.004639%, 86.004639%)" offset="0.601562"/><stop stop-opacity="1" stop-color="rgb(86.280823%, 86.280823%, 86.280823%)" offset="0.609375"/><stop stop-opacity="1" stop-color="rgb(86.557007%, 86.557007%, 86.557007%)" offset="0.617188"/><stop stop-opacity="1" stop-color="rgb(86.834717%, 86.834717%, 86.834717%)" offset="0.625"/><stop stop-opacity="1" stop-color="rgb(87.110901%, 87.110901%, 87.110901%)" offset="0.632812"/><stop stop-opacity="1" stop-color="rgb(87.387085%, 87.387085%, 87.387085%)" offset="0.640625"/><stop stop-opacity="1" stop-color="rgb(87.663269%, 87.663269%, 87.663269%)" offset="0.648438"/><stop stop-opacity="1" stop-color="rgb(87.939453%, 87.939453%, 87.939453%)" offset="0.65625"/><stop stop-opacity="1" stop-color="rgb(88.217163%, 88.217163%, 88.217163%)" offset="0.664062"/><stop stop-opacity="1" stop-color="rgb(88.493347%, 88.493347%, 88.493347%)" offset="0.671875"/><stop stop-opacity="1" stop-color="rgb(88.769531%, 88.769531%, 88.769531%)" offset="0.679688"/><stop stop-opacity="1" stop-color="rgb(89.045715%, 89.045715%, 89.045715%)" offset="0.6875"/><stop stop-opacity="1" stop-color="rgb(89.321899%, 89.321899%, 89.321899%)" offset="0.695313"/><stop stop-opacity="1" stop-color="rgb(89.599609%, 89.599609%, 89.599609%)" offset="0.703125"/><stop stop-opacity="1" stop-color="rgb(89.875793%, 89.875793%, 89.875793%)" offset="0.710938"/><stop stop-opacity="1" stop-color="rgb(90.151978%, 90.151978%, 90.151978%)" offset="0.71875"/><stop stop-opacity="1" stop-color="rgb(90.428162%, 90.428162%, 90.428162%)" offset="0.726562"/><stop stop-opacity="1" stop-color="rgb(90.704346%, 90.704346%, 90.704346%)" offset="0.734375"/><stop stop-opacity="1" stop-color="rgb(90.98053%, 90.98053%, 90.98053%)" offset="0.742188"/><stop stop-opacity="1" stop-color="rgb(91.25824%, 91.25824%, 91.25824%)" offset="0.75"/><stop stop-opacity="1" stop-color="rgb(91.534424%, 91.534424%, 91.534424%)" offset="0.757812"/><stop stop-opacity="1" stop-color="rgb(91.810608%, 91.810608%, 91.810608%)" offset="0.765625"/><stop stop-opacity="1" stop-color="rgb(92.086792%, 92.086792%, 92.086792%)" offset="0.773438"/><stop stop-opacity="1" stop-color="rgb(92.362976%, 92.362976%, 92.362976%)" offset="0.78125"/><stop stop-opacity="1" stop-color="rgb(92.640686%, 92.640686%, 92.640686%)" offset="0.789062"/><stop stop-opacity="1" stop-color="rgb(92.91687%, 92.91687%, 92.91687%)" offset="0.796875"/><stop stop-opacity="1" stop-color="rgb(93.193054%, 93.193054%, 93.193054%)" offset="0.804687"/><stop stop-opacity="1" stop-color="rgb(93.469238%, 93.469238%, 93.469238%)" offset="0.8125"/><stop stop-opacity="1" stop-color="rgb(93.745422%, 93.745422%, 93.745422%)" offset="0.820312"/><stop stop-opacity="1" stop-color="rgb(94.023132%, 94.023132%, 94.023132%)" offset="0.828125"/><stop stop-opacity="1" stop-color="rgb(94.299316%, 94.299316%, 94.299316%)" offset="0.835938"/><stop stop-opacity="1" stop-color="rgb(94.5755%, 94.5755%, 94.5755%)" offset="0.84375"/><stop stop-opacity="1" stop-color="rgb(94.851685%, 94.851685%, 94.851685%)" offset="0.851562"/><stop stop-opacity="1" stop-color="rgb(95.127869%, 95.127869%, 95.127869%)" offset="0.859375"/><stop stop-opacity="1" stop-color="rgb(95.405579%, 95.405579%, 95.405579%)" offset="0.867188"/><stop stop-opacity="1" stop-color="rgb(95.681763%, 95.681763%, 95.681763%)" offset="0.875"/><stop stop-opacity="1" stop-color="rgb(95.957947%, 95.957947%, 95.957947%)" offset="0.882812"/><stop stop-opacity="1" stop-color="rgb(96.234131%, 96.234131%, 96.234131%)" offset="0.890625"/><stop stop-opacity="1" stop-color="rgb(96.510315%, 96.510315%, 96.510315%)" offset="0.898438"/><stop stop-opacity="1" stop-color="rgb(96.788025%, 96.788025%, 96.788025%)" offset="0.90625"/><stop stop-opacity="1" stop-color="rgb(97.064209%, 97.064209%, 97.064209%)" offset="0.914062"/><stop stop-opacity="1" stop-color="rgb(97.340393%, 97.340393%, 97.340393%)" offset="0.921875"/><stop stop-opacity="1" stop-color="rgb(97.616577%, 97.616577%, 97.616577%)" offset="0.929688"/><stop stop-opacity="1" stop-color="rgb(97.892761%, 97.892761%, 97.892761%)" offset="0.9375"/><stop stop-opacity="1" stop-color="rgb(98.170471%, 98.170471%, 98.170471%)" offset="0.945313"/><stop stop-opacity="1" stop-color="rgb(98.446655%, 98.446655%, 98.446655%)" offset="0.953125"/><stop stop-opacity="1" stop-color="rgb(98.722839%, 98.722839%, 98.722839%)" offset="0.960938"/><stop stop-opacity="1" stop-color="rgb(98.999023%, 98.999023%, 98.999023%)" offset="0.96875"/><stop stop-opacity="1" stop-color="rgb(99.275208%, 99.275208%, 99.275208%)" offset="0.976562"/><stop stop-opacity="1" stop-color="rgb(99.552917%, 99.552917%, 99.552917%)" offset="0.984375"/><stop stop-opacity="1" stop-color="rgb(99.845886%, 99.845886%, 99.845886%)" offset="1"/></linearGradient></defs><g fill="#fcde70" fill-opacity="1"><g transform="translate(8.161562, 17.120321)"><g><path d="M 0.078125 0 L 3.8125 -10.328125 L 6.84375 -10.328125 L 10.578125 0 L 7.984375 0 L 7.3125 -2.03125 L 3.34375 -2.03125 L 2.671875 0 Z M 3.78125 -3.78125 L 6.859375 -3.78125 L 5.34375 -8.375 L 5.3125 -8.375 Z M 3.78125 -3.78125 "/></g></g></g><g fill="#ffffff" fill-opacity="1"><g transform="translate(19.448569, 17.120321)"><g><path d="M 0.796875 0 L 0.796875 -10.328125 L 4.03125 -10.328125 L 7.046875 -2.765625 L 7.078125 -2.765625 L 10.125 -10.328125 L 13.328125 -10.328125 L 13.328125 0 L 11.046875 0 L 11.046875 -7.265625 L 11.015625 -7.265625 L 8.078125 0 L 6.046875 0 L 3.09375 -7.25 L 3.0625 -7.25 L 3.0625 0 Z M 0.796875 0 "/></g></g></g><g fill="#ffffff" fill-opacity="1"><g transform="translate(34.194906, 17.120321)"><g><path d="M 0.796875 0 L 0.796875 -10.328125 L 5.046875 -10.328125 C 6.835938 -10.328125 8.21875 -9.882812 9.1875 -9 C 10.15625 -8.113281 10.640625 -6.835938 10.640625 -5.171875 C 10.640625 -3.503906 10.15625 -2.222656 9.1875 -1.328125 C 8.21875 -0.441406 6.835938 0 5.046875 0 Z M 3.203125 -1.984375 L 5.046875 -1.984375 C 6.046875 -1.984375 6.8125 -2.253906 7.34375 -2.796875 C 7.882812 -3.347656 8.15625 -4.140625 8.15625 -5.171875 C 8.15625 -6.203125 7.882812 -6.988281 7.34375 -7.53125 C 6.8125 -8.082031 6.046875 -8.359375 5.046875 -8.359375 L 3.203125 -8.359375 Z M 3.203125 -1.984375 "/></g></g></g><g fill="#ffffff" fill-opacity="1"><g transform="translate(45.893384, 17.120321)"><g/></g></g><g fill="#ffffff" fill-opacity="1"><g transform="translate(49.725515, 17.120321)"><g><path d="M 6.03125 0.359375 C 4.894531 0.359375 3.90625 0.132812 3.0625 -0.3125 C 2.226562 -0.757812 1.582031 -1.394531 1.125 -2.21875 C 0.664062 -3.050781 0.4375 -4.035156 0.4375 -5.171875 C 0.4375 -6.296875 0.648438 -7.269531 1.078125 -8.09375 C 1.515625 -8.925781 2.132812 -9.566406 2.9375 -10.015625 C 3.738281 -10.472656 4.679688 -10.703125 5.765625 -10.703125 C 6.617188 -10.703125 7.378906 -10.546875 8.046875 -10.234375 C 8.722656 -9.921875 9.273438 -9.476562 9.703125 -8.90625 C 10.140625 -8.34375 10.414062 -7.664062 10.53125 -6.875 L 8.28125 -6.3125 C 8.144531 -7.007812 7.859375 -7.5625 7.421875 -7.96875 C 6.992188 -8.375 6.441406 -8.578125 5.765625 -8.578125 C 4.890625 -8.578125 4.195312 -8.269531 3.6875 -7.65625 C 3.175781 -7.039062 2.921875 -6.210938 2.921875 -5.171875 C 2.929688 -4.128906 3.21875 -3.300781 3.78125 -2.6875 C 4.34375 -2.070312 5.101562 -1.765625 6.0625 -1.765625 C 6.863281 -1.765625 7.535156 -2.003906 8.078125 -2.484375 C 8.617188 -2.972656 8.953125 -3.625 9.078125 -4.4375 L 11.390625 -4.125 C 11.285156 -3.21875 10.992188 -2.425781 10.515625 -1.75 C 10.046875 -1.070312 9.425781 -0.550781 8.65625 -0.1875 C 7.894531 0.175781 7.019531 0.359375 6.03125 0.359375 Z M 6.03125 0.359375 "/></g></g></g><g fill="#ffffff" fill-opacity="1"><g transform="translate(61.263954, 17.120321)"><g><path d="M 0.078125 0 L 3.8125 -10.328125 L 6.84375 -10.328125 L 10.578125 0 L 7.984375 0 L 7.3125 -2.03125 L 3.34375 -2.03125 L 2.671875 0 Z M 3.78125 -3.78125 L 6.859375 -3.78125 L 5.34375 -8.375 L 5.3125 -8.375 Z M 3.78125 -3.78125 "/></g></g></g><g fill="#ffffff" fill-opacity="1"><g transform="translate(72.541544, 17.120321)"><g><path d="M 0.796875 0 L 0.796875 -10.328125 L 5.671875 -10.328125 C 6.472656 -10.328125 7.175781 -10.1875 7.78125 -9.90625 C 8.382812 -9.625 8.851562 -9.222656 9.1875 -8.703125 C 9.519531 -8.191406 9.6875 -7.59375 9.6875 -6.90625 C 9.6875 -6.21875 9.519531 -5.613281 9.1875 -5.09375 C 8.851562 -4.582031 8.378906 -4.179688 7.765625 -3.890625 C 7.160156 -3.609375 6.453125 -3.46875 5.640625 -3.46875 L 3.265625 -3.46875 L 3.265625 0 Z M 3.265625 -5.3125 L 5.28125 -5.3125 C 5.863281 -5.3125 6.328125 -5.457031 6.671875 -5.75 C 7.023438 -6.050781 7.203125 -6.4375 7.203125 -6.90625 C 7.203125 -7.394531 7.03125 -7.78125 6.6875 -8.0625 C 6.34375 -8.351562 5.875 -8.5 5.28125 -8.5 L 3.265625 -8.5 Z M 3.265625 -5.3125 "/></g></g></g><g fill="#ffffff" fill-opacity="1"><g transform="translate(83.136998, 17.120321)"><g><path d="M 0.796875 0 L 0.796875 -10.328125 L 3.28125 -10.328125 L 3.28125 0 Z M 0.796875 0 "/></g></g></g><g fill="#ffffff" fill-opacity="1"><g transform="translate(87.839938, 17.120321)"><g><path d="M 3.3125 0 L 3.3125 -8.21875 L 0.21875 -8.21875 L 0.21875 -10.328125 L 8.890625 -10.328125 L 8.890625 -8.21875 L 5.796875 -8.21875 L 5.796875 0 Z M 3.3125 0 "/></g></g></g><g fill="#ffffff" fill-opacity="1"><g transform="translate(96.257652, 17.120321)"><g><path d="M 0.078125 0 L 3.8125 -10.328125 L 6.84375 -10.328125 L 10.578125 0 L 7.984375 0 L 7.3125 -2.03125 L 3.34375 -2.03125 L 2.671875 0 Z M 3.78125 -3.78125 L 6.859375 -3.78125 L 5.34375 -8.375 L 5.3125 -8.375 Z M 3.78125 -3.78125 "/></g></g></g><g fill="#ffffff" fill-opacity="1"><g transform="translate(107.535245, 17.120321)"><g><path d="M 0.796875 0 L 0.796875 -10.328125 L 3.28125 -10.328125 L 3.28125 -2.140625 L 7.578125 -2.140625 L 7.578125 0 Z M 0.796875 0 "/></g></g></g><path stroke-linecap="butt" transform="matrix(0.740132, 0, 0, 0.740132, 9.967785, 22.511406)" fill="none" stroke-linejoin="miter" d="M 0.00130424 0.997923 L 142.517144 0.997923 " stroke="url(#c3d0810f35)" stroke-width="2" stroke-miterlimit="4"/><g fill="#ffffff" fill-opacity="1"><g transform="translate(5.434114, 31.998829)"><g><path d="M 0.015625 0 L 1.078125 -2.9375 L 1.953125 -2.9375 L 3 0 L 2.265625 0 L 2.078125 -0.578125 L 0.953125 -0.578125 L 0.765625 0 Z M 1.078125 -1.078125 L 1.953125 -1.078125 L 1.515625 -2.375 Z M 1.078125 -1.078125 "/></g></g></g><g fill="#ffffff" fill-opacity="1"><g transform="translate(8.257459, 31.998829)"><g><path d="M 1.71875 0.109375 C 1.394531 0.109375 1.113281 0.046875 0.875 -0.078125 C 0.632812 -0.210938 0.445312 -0.394531 0.3125 -0.625 C 0.1875 -0.863281 0.125 -1.144531 0.125 -1.46875 C 0.125 -1.789062 0.1875 -2.066406 0.3125 -2.296875 C 0.4375 -2.535156 0.609375 -2.71875 0.828125 -2.84375 C 1.054688 -2.976562 1.328125 -3.046875 1.640625 -3.046875 C 1.878906 -3.046875 2.09375 -3 2.28125 -2.90625 C 2.476562 -2.820312 2.640625 -2.695312 2.765625 -2.53125 C 2.890625 -2.375 2.96875 -2.179688 3 -1.953125 L 2.34375 -1.796875 C 2.3125 -1.992188 2.234375 -2.148438 2.109375 -2.265625 C 1.984375 -2.378906 1.828125 -2.4375 1.640625 -2.4375 C 1.390625 -2.4375 1.191406 -2.347656 1.046875 -2.171875 C 0.898438 -1.992188 0.828125 -1.757812 0.828125 -1.46875 C 0.828125 -1.175781 0.90625 -0.941406 1.0625 -0.765625 C 1.226562 -0.585938 1.445312 -0.5 1.71875 -0.5 C 1.945312 -0.5 2.140625 -0.566406 2.296875 -0.703125 C 2.453125 -0.847656 2.546875 -1.035156 2.578125 -1.265625 L 3.234375 -1.171875 C 3.203125 -0.910156 3.117188 -0.679688 2.984375 -0.484375 C 2.847656 -0.296875 2.671875 -0.148438 2.453125 -0.046875 C 2.242188 0.0546875 2 0.109375 1.71875 0.109375 Z M 1.71875 0.109375 "/></g></g></g><g fill="#ffffff" fill-opacity="1"><g transform="translate(11.444045, 31.998829)"><g><path d="M 0.9375 0 L 0.9375 -2.328125 L 0.0625 -2.328125 L 0.0625 -2.9375 L 2.53125 -2.9375 L 2.53125 -2.328125 L 1.640625 -2.328125 L 1.640625 0 Z M 0.9375 0 "/></g></g></g><g fill="#ffffff" fill-opacity="1"><g transform="translate(14.032111, 31.998829)"><g><path d="M 0.234375 0 L 0.234375 -2.9375 L 0.9375 -2.9375 L 0.9375 0 Z M 0.234375 0 "/></g></g></g><g fill="#ffffff" fill-opacity="1"><g transform="translate(15.191995, 31.998829)"><g><path d="M 1.75 0.109375 C 1.425781 0.109375 1.140625 0.046875 0.890625 -0.078125 C 0.648438 -0.210938 0.460938 -0.398438 0.328125 -0.640625 C 0.191406 -0.878906 0.125 -1.15625 0.125 -1.46875 C 0.125 -1.78125 0.191406 -2.050781 0.328125 -2.28125 C 0.460938 -2.519531 0.648438 -2.707031 0.890625 -2.84375 C 1.140625 -2.976562 1.425781 -3.046875 1.75 -3.046875 C 2.082031 -3.046875 2.367188 -2.976562 2.609375 -2.84375 C 2.847656 -2.707031 3.035156 -2.519531 3.171875 -2.28125 C 3.304688 -2.050781 3.375 -1.78125 3.375 -1.46875 C 3.375 -1.15625 3.304688 -0.878906 3.171875 -0.640625 C 3.035156 -0.398438 2.847656 -0.210938 2.609375 -0.078125 C 2.367188 0.046875 2.082031 0.109375 1.75 0.109375 Z M 1.75 -0.5 C 1.9375 -0.5 2.097656 -0.539062 2.234375 -0.625 C 2.378906 -0.707031 2.488281 -0.820312 2.5625 -0.96875 C 2.632812 -1.113281 2.671875 -1.28125 2.671875 -1.46875 C 2.671875 -1.664062 2.632812 -1.835938 2.5625 -1.984375 C 2.488281 -2.128906 2.378906 -2.238281 2.234375 -2.3125 C 2.097656 -2.394531 1.9375 -2.4375 1.75 -2.4375 C 1.5625 -2.4375 1.398438 -2.394531 1.265625 -2.3125 C 1.128906 -2.238281 1.019531 -2.128906 0.9375 -1.984375 C 0.863281 -1.835938 0.828125 -1.664062 0.828125 -1.46875 C 0.828125 -1.28125 0.863281 -1.113281 0.9375 -0.96875 C 1.019531 -0.820312 1.128906 -0.707031 1.265625 -0.625 C 1.398438 -0.539062 1.5625 -0.5 1.75 -0.5 Z M 1.75 -0.5 "/></g></g></g><g fill="#ffffff" fill-opacity="1"><g transform="translate(18.69641, 31.998829)"><g><path d="M 0.234375 0 L 0.234375 -2.9375 L 1.046875 -2.9375 L 2.25 -0.84375 L 2.25 -2.9375 L 2.921875 -2.9375 L 2.921875 0 L 2.09375 0 L 0.90625 -2.09375 L 0.890625 -2.09375 L 0.890625 0 Z M 0.234375 0 "/></g></g></g><g fill="#ffffff" fill-opacity="1"><g transform="translate(22.762194, 31.998829)"><g><path d="M 0.9375 0 L 0.9375 -2.328125 L 0.0625 -2.328125 L 0.0625 -2.9375 L 2.53125 -2.9375 L 2.53125 -2.328125 L 1.640625 -2.328125 L 1.640625 0 Z M 0.9375 0 "/></g></g></g><g fill="#ffffff" fill-opacity="1"><g transform="translate(25.35026, 31.998829)"><g><path d="M 0.234375 0 L 0.234375 -2.9375 L 2.296875 -2.9375 L 2.296875 -2.375 L 0.90625 -2.375 L 0.90625 -1.75 L 2.125 -1.75 L 2.125 -1.25 L 0.90625 -1.25 L 0.90625 -0.5625 L 2.328125 -0.5625 L 2.328125 0 Z M 0.234375 0 "/></g></g></g><g fill="#ffffff" fill-opacity="1"><g transform="translate(27.736071, 31.998829)"><g><path d="M 1.71875 0.109375 C 1.394531 0.109375 1.113281 0.046875 0.875 -0.078125 C 0.632812 -0.210938 0.445312 -0.394531 0.3125 -0.625 C 0.1875 -0.863281 0.125 -1.144531 0.125 -1.46875 C 0.125 -1.789062 0.1875 -2.066406 0.3125 -2.296875 C 0.4375 -2.535156 0.609375 -2.71875 0.828125 -2.84375 C 1.054688 -2.976562 1.328125 -3.046875 1.640625 -3.046875 C 1.878906 -3.046875 2.09375 -3 2.28125 -2.90625 C 2.476562 -2.820312 2.640625 -2.695312 2.765625 -2.53125 C 2.890625 -2.375 2.96875 -2.179688 3 -1.953125 L 2.34375 -1.796875 C 2.3125 -1.992188 2.234375 -2.148438 2.109375 -2.265625 C 1.984375 -2.378906 1.828125 -2.4375 1.640625 -2.4375 C 1.390625 -2.4375 1.191406 -2.347656 1.046875 -2.171875 C 0.898438 -1.992188 0.828125 -1.757812 0.828125 -1.46875 C 0.828125 -1.175781 0.90625 -0.941406 1.0625 -0.765625 C 1.226562 -0.585938 1.445312 -0.5 1.71875 -0.5 C 1.945312 -0.5 2.140625 -0.566406 2.296875 -0.703125 C 2.453125 -0.847656 2.546875 -1.035156 2.578125 -1.265625 L 3.234375 -1.171875 C 3.203125 -0.910156 3.117188 -0.679688 2.984375 -0.484375 C 2.847656 -0.296875 2.671875 -0.148438 2.453125 -0.046875 C 2.242188 0.0546875 2 0.109375 1.71875 0.109375 Z M 1.71875 0.109375 "/></g></g></g><g fill="#ffffff" fill-opacity="1"><g transform="translate(31.046487, 31.998829)"><g><path d="M 0.234375 0 L 0.234375 -2.9375 L 0.9375 -2.9375 L 0.9375 -1.796875 L 2.125 -1.796875 L 2.125 -2.9375 L 2.84375 -2.9375 L 2.84375 0 L 2.125 0 L 2.125 -1.234375 L 0.9375 -1.234375 L 0.9375 0 Z M 0.234375 0 "/></g></g></g><g fill="#ffffff" fill-opacity="1"><g transform="translate(42.291899, 31.998836)"><g><path d="M 0.015625 0 L 1.078125 -2.9375 L 1.953125 -2.9375 L 3 0 L 2.265625 0 L 2.078125 -0.578125 L 0.953125 -0.578125 L 0.765625 0 Z M 1.078125 -1.078125 L 1.953125 -1.078125 L 1.515625 -2.375 Z M 1.078125 -1.078125 "/></g></g></g><g fill="#ffffff" fill-opacity="1"><g transform="translate(45.115254, 31.998836)"><g><path d="M 1.71875 0.109375 C 1.394531 0.109375 1.113281 0.046875 0.875 -0.078125 C 0.632812 -0.210938 0.445312 -0.394531 0.3125 -0.625 C 0.1875 -0.863281 0.125 -1.144531 0.125 -1.46875 C 0.125 -1.789062 0.1875 -2.066406 0.3125 -2.296875 C 0.4375 -2.535156 0.609375 -2.71875 0.828125 -2.84375 C 1.054688 -2.976562 1.328125 -3.046875 1.640625 -3.046875 C 1.878906 -3.046875 2.09375 -3 2.28125 -2.90625 C 2.476562 -2.820312 2.640625 -2.695312 2.765625 -2.53125 C 2.890625 -2.375 2.96875 -2.179688 3 -1.953125 L 2.34375 -1.796875 C 2.3125 -1.992188 2.234375 -2.148438 2.109375 -2.265625 C 1.984375 -2.378906 1.828125 -2.4375 1.640625 -2.4375 C 1.390625 -2.4375 1.191406 -2.347656 1.046875 -2.171875 C 0.898438 -1.992188 0.828125 -1.757812 0.828125 -1.46875 C 0.828125 -1.175781 0.90625 -0.941406 1.0625 -0.765625 C 1.226562 -0.585938 1.445312 -0.5 1.71875 -0.5 C 1.945312 -0.5 2.140625 -0.566406 2.296875 -0.703125 C 2.453125 -0.847656 2.546875 -1.035156 2.578125 -1.265625 L 3.234375 -1.171875 C 3.203125 -0.910156 3.117188 -0.679688 2.984375 -0.484375 C 2.847656 -0.296875 2.671875 -0.148438 2.453125 -0.046875 C 2.242188 0.0546875 2 0.109375 1.71875 0.109375 Z M 1.71875 0.109375 "/></g></g></g><g fill="#ffffff" fill-opacity="1"><g transform="translate(48.301851, 31.998836)"><g><path d="M 0.9375 0 L 0.9375 -2.328125 L 0.0625 -2.328125 L 0.0625 -2.9375 L 2.53125 -2.9375 L 2.53125 -2.328125 L 1.640625 -2.328125 L 1.640625 0 Z M 0.9375 0 "/></g></g></g><g fill="#ffffff" fill-opacity="1"><g transform="translate(50.889926, 31.998836)"><g><path d="M 0.234375 0 L 0.234375 -2.9375 L 0.9375 -2.9375 L 0.9375 0 Z M 0.234375 0 "/></g></g></g><g fill="#ffffff" fill-opacity="1"><g transform="translate(52.049814, 31.998836)"><g><path d="M 1.75 0.109375 C 1.425781 0.109375 1.140625 0.046875 0.890625 -0.078125 C 0.648438 -0.210938 0.460938 -0.398438 0.328125 -0.640625 C 0.191406 -0.878906 0.125 -1.15625 0.125 -1.46875 C 0.125 -1.78125 0.191406 -2.050781 0.328125 -2.28125 C 0.460938 -2.519531 0.648438 -2.707031 0.890625 -2.84375 C 1.140625 -2.976562 1.425781 -3.046875 1.75 -3.046875 C 2.082031 -3.046875 2.367188 -2.976562 2.609375 -2.84375 C 2.847656 -2.707031 3.035156 -2.519531 3.171875 -2.28125 C 3.304688 -2.050781 3.375 -1.78125 3.375 -1.46875 C 3.375 -1.15625 3.304688 -0.878906 3.171875 -0.640625 C 3.035156 -0.398438 2.847656 -0.210938 2.609375 -0.078125 C 2.367188 0.046875 2.082031 0.109375 1.75 0.109375 Z M 1.75 -0.5 C 1.9375 -0.5 2.097656 -0.539062 2.234375 -0.625 C 2.378906 -0.707031 2.488281 -0.820312 2.5625 -0.96875 C 2.632812 -1.113281 2.671875 -1.28125 2.671875 -1.46875 C 2.671875 -1.664062 2.632812 -1.835938 2.5625 -1.984375 C 2.488281 -2.128906 2.378906 -2.238281 2.234375 -2.3125 C 2.097656 -2.394531 1.9375 -2.4375 1.75 -2.4375 C 1.5625 -2.4375 1.398438 -2.394531 1.265625 -2.3125 C 1.128906 -2.238281 1.019531 -2.128906 0.9375 -1.984375 C 0.863281 -1.835938 0.828125 -1.664062 0.828125 -1.46875 C 0.828125 -1.28125 0.863281 -1.113281 0.9375 -0.96875 C 1.019531 -0.820312 1.128906 -0.707031 1.265625 -0.625 C 1.398438 -0.539062 1.5625 -0.5 1.75 -0.5 Z M 1.75 -0.5 "/></g></g></g><g fill="#ffffff" fill-opacity="1"><g transform="translate(55.554241, 31.998836)"><g><path d="M 0.234375 0 L 0.234375 -2.9375 L 1.046875 -2.9375 L 2.25 -0.84375 L 2.25 -2.9375 L 2.921875 -2.9375 L 2.921875 0 L 2.09375 0 L 0.90625 -2.09375 L 0.890625 -2.09375 L 0.890625 0 Z M 0.234375 0 "/></g></g></g><g fill="#ffffff" fill-opacity="1"><g transform="translate(59.62004, 31.998836)"><g><path d="M 1.578125 0.09375 C 1.285156 0.09375 1.03125 0.03125 0.8125 -0.09375 C 0.59375 -0.226562 0.421875 -0.410156 0.296875 -0.640625 C 0.179688 -0.878906 0.125 -1.15625 0.125 -1.46875 C 0.125 -1.78125 0.1875 -2.050781 0.3125 -2.28125 C 0.445312 -2.519531 0.628906 -2.707031 0.859375 -2.84375 C 1.097656 -2.976562 1.367188 -3.046875 1.671875 -3.046875 C 1.890625 -3.046875 2.085938 -3.003906 2.265625 -2.921875 C 2.453125 -2.835938 2.609375 -2.722656 2.734375 -2.578125 C 2.859375 -2.429688 2.945312 -2.265625 3 -2.078125 L 2.34375 -1.9375 C 2.300781 -2.082031 2.21875 -2.203125 2.09375 -2.296875 C 1.96875 -2.390625 1.820312 -2.4375 1.65625 -2.4375 C 1.5 -2.4375 1.359375 -2.394531 1.234375 -2.3125 C 1.109375 -2.226562 1.007812 -2.113281 0.9375 -1.96875 C 0.863281 -1.820312 0.828125 -1.65625 0.828125 -1.46875 C 0.828125 -1.28125 0.863281 -1.109375 0.9375 -0.953125 C 1.019531 -0.804688 1.128906 -0.691406 1.265625 -0.609375 C 1.410156 -0.523438 1.578125 -0.484375 1.765625 -0.484375 C 1.921875 -0.484375 2.0625 -0.515625 2.1875 -0.578125 C 2.3125 -0.640625 2.410156 -0.726562 2.484375 -0.84375 C 2.554688 -0.957031 2.597656 -1.085938 2.609375 -1.234375 L 1.34375 -1.234375 L 1.34375 -1.671875 L 3.296875 -1.671875 L 3.296875 0 L 2.78125 0 L 2.703125 -0.5625 C 2.609375 -0.351562 2.457031 -0.191406 2.25 -0.078125 C 2.050781 0.0351562 1.828125 0.09375 1.578125 0.09375 Z M 1.578125 0.09375 "/></g></g></g><g fill="#ffffff" fill-opacity="1"><g transform="translate(63.079067, 31.998836)"><g><path d="M 0.234375 0 L 0.234375 -2.9375 L 0.9375 -2.9375 L 0.9375 -0.609375 L 2.15625 -0.609375 L 2.15625 0 Z M 0.234375 0 "/></g></g></g><g fill="#ffffff" fill-opacity="1"><g transform="translate(65.1842, 31.998836)"><g><path d="M 1.75 0.109375 C 1.425781 0.109375 1.140625 0.046875 0.890625 -0.078125 C 0.648438 -0.210938 0.460938 -0.398438 0.328125 -0.640625 C 0.191406 -0.878906 0.125 -1.15625 0.125 -1.46875 C 0.125 -1.78125 0.191406 -2.050781 0.328125 -2.28125 C 0.460938 -2.519531 0.648438 -2.707031 0.890625 -2.84375 C 1.140625 -2.976562 1.425781 -3.046875 1.75 -3.046875 C 2.082031 -3.046875 2.367188 -2.976562 2.609375 -2.84375 C 2.847656 -2.707031 3.035156 -2.519531 3.171875 -2.28125 C 3.304688 -2.050781 3.375 -1.78125 3.375 -1.46875 C 3.375 -1.15625 3.304688 -0.878906 3.171875 -0.640625 C 3.035156 -0.398438 2.847656 -0.210938 2.609375 -0.078125 C 2.367188 0.046875 2.082031 0.109375 1.75 0.109375 Z M 1.75 -0.5 C 1.9375 -0.5 2.097656 -0.539062 2.234375 -0.625 C 2.378906 -0.707031 2.488281 -0.820312 2.5625 -0.96875 C 2.632812 -1.113281 2.671875 -1.28125 2.671875 -1.46875 C 2.671875 -1.664062 2.632812 -1.835938 2.5625 -1.984375 C 2.488281 -2.128906 2.378906 -2.238281 2.234375 -2.3125 C 2.097656 -2.394531 1.9375 -2.4375 1.75 -2.4375 C 1.5625 -2.4375 1.398438 -2.394531 1.265625 -2.3125 C 1.128906 -2.238281 1.019531 -2.128906 0.9375 -1.984375 C 0.863281 -1.835938 0.828125 -1.664062 0.828125 -1.46875 C 0.828125 -1.28125 0.863281 -1.113281 0.9375 -0.96875 C 1.019531 -0.820312 1.128906 -0.707031 1.265625 -0.625 C 1.398438 -0.539062 1.5625 -0.5 1.75 -0.5 Z M 1.75 -0.5 "/></g></g></g><g fill="#ffffff" fill-opacity="1"><g transform="translate(68.688628, 31.998836)"><g><path d="M 0.234375 0 L 0.234375 -2.9375 L 1.71875 -2.9375 C 2.050781 -2.9375 2.304688 -2.863281 2.484375 -2.71875 C 2.660156 -2.582031 2.75 -2.390625 2.75 -2.140625 C 2.75 -1.972656 2.703125 -1.832031 2.609375 -1.71875 C 2.523438 -1.613281 2.40625 -1.539062 2.25 -1.5 C 2.425781 -1.46875 2.5625 -1.390625 2.65625 -1.265625 C 2.757812 -1.148438 2.8125 -1 2.8125 -0.8125 C 2.8125 -0.550781 2.71875 -0.347656 2.53125 -0.203125 C 2.351562 -0.0664062 2.097656 0 1.765625 0 Z M 0.9375 -1.71875 L 1.609375 -1.71875 C 1.742188 -1.71875 1.847656 -1.75 1.921875 -1.8125 C 2.003906 -1.875 2.046875 -1.960938 2.046875 -2.078125 C 2.046875 -2.179688 2.003906 -2.265625 1.921875 -2.328125 C 1.847656 -2.390625 1.742188 -2.421875 1.609375 -2.421875 L 0.9375 -2.421875 Z M 0.9375 -0.53125 L 1.640625 -0.53125 C 1.785156 -0.53125 1.898438 -0.5625 1.984375 -0.625 C 2.066406 -0.6875 2.109375 -0.773438 2.109375 -0.890625 C 2.109375 -1.015625 2.066406 -1.109375 1.984375 -1.171875 C 1.898438 -1.234375 1.785156 -1.265625 1.640625 -1.265625 L 0.9375 -1.265625 Z M 0.9375 -0.53125 "/></g></g></g><g fill="#ffffff" fill-opacity="1"><g transform="translate(71.503727, 31.998836)"><g><path d="M 0.015625 0 L 1.078125 -2.9375 L 1.953125 -2.9375 L 3 0 L 2.265625 0 L 2.078125 -0.578125 L 0.953125 -0.578125 L 0.765625 0 Z M 1.078125 -1.078125 L 1.953125 -1.078125 L 1.515625 -2.375 Z M 1.078125 -1.078125 "/></g></g></g><g fill="#ffffff" fill-opacity="1"><g transform="translate(74.533468, 31.998836)"><g><path d="M 0.234375 0 L 0.234375 -2.9375 L 0.9375 -2.9375 L 0.9375 -0.609375 L 2.15625 -0.609375 L 2.15625 0 Z M 0.234375 0 "/></g></g></g><g fill="#ffffff" fill-opacity="1"><g transform="translate(76.750051, 31.998836)"><g><path d="M 0.234375 0 L 0.234375 -2.9375 L 2.296875 -2.9375 L 2.296875 -2.375 L 0.90625 -2.375 L 0.90625 -1.75 L 2.125 -1.75 L 2.125 -1.25 L 0.90625 -1.25 L 0.90625 -0.5625 L 2.328125 -0.5625 L 2.328125 0 Z M 0.234375 0 "/></g></g></g><g fill="#ffffff" fill-opacity="1"><g transform="translate(86.437954, 31.998829)"><g><path d="M 0.234375 0 L 0.234375 -2.9375 L 2.296875 -2.9375 L 2.296875 -2.375 L 0.90625 -2.375 L 0.90625 -1.75 L 2.125 -1.75 L 2.125 -1.25 L 0.90625 -1.25 L 0.90625 -0.5625 L 2.328125 -0.5625 L 2.328125 0 Z M 0.234375 0 "/></g></g></g><g fill="#ffffff" fill-opacity="1"><g transform="translate(88.865041, 31.998829)"><g><path d="M 0.015625 0 L 1.015625 -1.53125 L 0.046875 -2.9375 L 0.859375 -2.9375 L 1.5 -1.953125 L 2.15625 -2.9375 L 2.984375 -2.9375 L 2 -1.53125 L 3.015625 0 L 2.1875 0 L 1.5 -1.0625 L 0.84375 0 Z M 0.015625 0 "/></g></g></g><g fill="#ffffff" fill-opacity="1"><g transform="translate(91.898902, 31.998829)"><g><path d="M 0.9375 0 L 0.9375 -2.328125 L 0.0625 -2.328125 L 0.0625 -2.9375 L 2.53125 -2.9375 L 2.53125 -2.328125 L 1.640625 -2.328125 L 1.640625 0 Z M 0.9375 0 "/></g></g></g><g fill="#ffffff" fill-opacity="1"><g transform="translate(94.486968, 31.998829)"><g><path d="M 2.421875 0.078125 C 2.273438 0.078125 2.148438 0.0351562 2.046875 -0.046875 C 1.953125 -0.128906 1.882812 -0.238281 1.84375 -0.375 L 1.71875 -0.796875 C 1.695312 -0.890625 1.65625 -0.960938 1.59375 -1.015625 C 1.539062 -1.078125 1.46875 -1.109375 1.375 -1.109375 L 0.9375 -1.109375 L 0.9375 0 L 0.234375 0 L 0.234375 -2.9375 L 1.6875 -2.9375 C 2.039062 -2.9375 2.316406 -2.851562 2.515625 -2.6875 C 2.710938 -2.53125 2.8125 -2.3125 2.8125 -2.03125 C 2.8125 -1.832031 2.75 -1.660156 2.625 -1.515625 C 2.507812 -1.378906 2.34375 -1.285156 2.125 -1.234375 C 2.195312 -1.203125 2.253906 -1.15625 2.296875 -1.09375 C 2.347656 -1.039062 2.382812 -0.96875 2.40625 -0.875 L 2.5 -0.53125 C 2.507812 -0.488281 2.523438 -0.453125 2.546875 -0.421875 C 2.578125 -0.390625 2.617188 -0.375 2.671875 -0.375 C 2.703125 -0.375 2.734375 -0.382812 2.765625 -0.40625 C 2.804688 -0.4375 2.84375 -0.46875 2.875 -0.5 L 3.015625 -0.171875 C 2.941406 -0.0976562 2.851562 -0.0390625 2.75 0 C 2.644531 0.0507812 2.535156 0.078125 2.421875 0.078125 Z M 0.9375 -1.59375 L 1.59375 -1.59375 C 1.75 -1.59375 1.875 -1.628906 1.96875 -1.703125 C 2.0625 -1.773438 2.109375 -1.875 2.109375 -2 C 2.109375 -2.125 2.0625 -2.222656 1.96875 -2.296875 C 1.875 -2.378906 1.75 -2.421875 1.59375 -2.421875 L 0.9375 -2.421875 Z M 0.9375 -1.59375 "/></g></g></g><g fill="#ffffff" fill-opacity="1"><g transform="translate(97.570356, 31.998829)"><g><path d="M 0.015625 0 L 1.078125 -2.9375 L 1.953125 -2.9375 L 3 0 L 2.265625 0 L 2.078125 -0.578125 L 0.953125 -0.578125 L 0.765625 0 Z M 1.078125 -1.078125 L 1.953125 -1.078125 L 1.515625 -2.375 Z M 1.078125 -1.078125 "/></g></g></g><g fill="#ffffff" fill-opacity="1"><g transform="translate(101.51231, 31.998829)"><g><path d="M 0.234375 0 L 0.234375 -2.9375 L 1.4375 -2.9375 C 1.945312 -2.9375 2.335938 -2.804688 2.609375 -2.546875 C 2.890625 -2.296875 3.03125 -1.9375 3.03125 -1.46875 C 3.03125 -1 2.890625 -0.632812 2.609375 -0.375 C 2.335938 -0.125 1.945312 0 1.4375 0 Z M 0.90625 -0.5625 L 1.4375 -0.5625 C 1.71875 -0.5625 1.929688 -0.640625 2.078125 -0.796875 C 2.234375 -0.953125 2.3125 -1.175781 2.3125 -1.46875 C 2.3125 -1.757812 2.234375 -1.984375 2.078125 -2.140625 C 1.929688 -2.296875 1.71875 -2.375 1.4375 -2.375 L 0.90625 -2.375 Z M 0.90625 -0.5625 "/></g></g></g><g fill="#ffffff" fill-opacity="1"><g transform="translate(104.661746, 31.998829)"><g><path d="M 0.234375 0 L 0.234375 -2.9375 L 0.9375 -2.9375 L 0.9375 0 Z M 0.234375 0 "/></g></g></g><g fill="#ffffff" fill-opacity="1"><g transform="translate(105.82163, 31.998829)"><g><path d="M 1.578125 0.09375 C 1.285156 0.09375 1.03125 0.03125 0.8125 -0.09375 C 0.59375 -0.226562 0.421875 -0.410156 0.296875 -0.640625 C 0.179688 -0.878906 0.125 -1.15625 0.125 -1.46875 C 0.125 -1.78125 0.1875 -2.050781 0.3125 -2.28125 C 0.445312 -2.519531 0.628906 -2.707031 0.859375 -2.84375 C 1.097656 -2.976562 1.367188 -3.046875 1.671875 -3.046875 C 1.890625 -3.046875 2.085938 -3.003906 2.265625 -2.921875 C 2.453125 -2.835938 2.609375 -2.722656 2.734375 -2.578125 C 2.859375 -2.429688 2.945312 -2.265625 3 -2.078125 L 2.34375 -1.9375 C 2.300781 -2.082031 2.21875 -2.203125 2.09375 -2.296875 C 1.96875 -2.390625 1.820312 -2.4375 1.65625 -2.4375 C 1.5 -2.4375 1.359375 -2.394531 1.234375 -2.3125 C 1.109375 -2.226562 1.007812 -2.113281 0.9375 -1.96875 C 0.863281 -1.820312 0.828125 -1.65625 0.828125 -1.46875 C 0.828125 -1.28125 0.863281 -1.109375 0.9375 -0.953125 C 1.019531 -0.804688 1.128906 -0.691406 1.265625 -0.609375 C 1.410156 -0.523438 1.578125 -0.484375 1.765625 -0.484375 C 1.921875 -0.484375 2.0625 -0.515625 2.1875 -0.578125 C 2.3125 -0.640625 2.410156 -0.726562 2.484375 -0.84375 C 2.554688 -0.957031 2.597656 -1.085938 2.609375 -1.234375 L 1.34375 -1.234375 L 1.34375 -1.671875 L 3.296875 -1.671875 L 3.296875 0 L 2.78125 0 L 2.703125 -0.5625 C 2.609375 -0.351562 2.457031 -0.191406 2.25 -0.078125 C 2.050781 0.0351562 1.828125 0.09375 1.578125 0.09375 Z M 1.578125 0.09375 "/></g></g></g><g fill="#ffffff" fill-opacity="1"><g transform="translate(109.094901, 31.998829)"><g><path d="M 0.9375 0 L 0.9375 -2.328125 L 0.0625 -2.328125 L 0.0625 -2.9375 L 2.53125 -2.9375 L 2.53125 -2.328125 L 1.640625 -2.328125 L 1.640625 0 Z M 0.9375 0 "/></g></g></g><g fill="#ffffff" fill-opacity="1"><g transform="translate(111.311476, 31.998829)"><g><path d="M 0.015625 0 L 1.078125 -2.9375 L 1.953125 -2.9375 L 3 0 L 2.265625 0 L 2.078125 -0.578125 L 0.953125 -0.578125 L 0.765625 0 Z M 1.078125 -1.078125 L 1.953125 -1.078125 L 1.515625 -2.375 Z M 1.078125 -1.078125 "/></g></g></g><g fill="#ffffff" fill-opacity="1"><g transform="translate(114.341207, 31.998829)"><g><path d="M 0.234375 0 L 0.234375 -2.9375 L 0.9375 -2.9375 L 0.9375 -0.609375 L 2.15625 -0.609375 L 2.15625 0 Z M 0.234375 0 "/></g></g></g><g fill="#ffffff" fill-opacity="1"><g transform="translate(116.557782, 31.998829)"><g><path d="M 0.234375 0 L 0.234375 -2.9375 L 2.296875 -2.9375 L 2.296875 -2.375 L 0.90625 -2.375 L 0.90625 -1.75 L 2.125 -1.75 L 2.125 -1.25 L 0.90625 -1.25 L 0.90625 -0.5625 L 2.328125 -0.5625 L 2.328125 0 Z M 0.234375 0 "/></g></g></g></svg>