<svg xmlns="http://www.w3.org/2000/svg" xmlns:xlink="http://www.w3.org/1999/xlink" width="165" zoomAndPan="magnify" viewBox="0 0 123.75 37.5" height="50" preserveAspectRatio="xMidYMid meet" version="1.0"><defs><g/><clipPath id="f12f0e2a53"><path d="M 0.691406 0 L 122.8125 0 L 122.8125 37.007812 L 0.691406 37.007812 Z M 0.691406 0 " clip-rule="nonzero"/></clipPath><linearGradient x1="-1" gradientTransform="matrix(1, 0, 0, 1, -0.000000384406, 0.00000212064)" y1="1" x2="143.518594" gradientUnits="userSpaceOnUse" y2="1" id="e8c1b56562"><stop stop-opacity="1" stop-color="rgb(98.799133%, 87.098694%, 43.899536%)" offset="0"/><stop stop-opacity="1" stop-color="rgb(98.75946%, 87.072754%, 43.888855%)" offset="0.0078125"/><stop stop-opacity="1" stop-color="rgb(98.370361%, 86.817932%, 43.788147%)" offset="0.0117188"/><stop stop-opacity="1" stop-color="rgb(98.020935%, 86.590576%, 43.69812%)" offset="0.015625"/><stop stop-opacity="1" stop-color="rgb(97.671509%, 86.361694%, 43.608093%)" offset="0.0195312"/><stop stop-opacity="1" stop-color="rgb(97.322083%, 86.132812%, 43.519592%)" offset="0.0234375"/><stop stop-opacity="1" stop-color="rgb(96.972656%, 85.903931%, 43.429565%)" offset="0.0273438"/><stop stop-opacity="1" stop-color="rgb(96.62323%, 85.675049%, 43.339539%)" offset="0.03125"/><stop stop-opacity="1" stop-color="rgb(96.273804%, 85.446167%, 43.249512%)" offset="0.0351562"/><stop stop-opacity="1" stop-color="rgb(95.924377%, 85.218811%, 43.159485%)" offset="0.0390625"/><stop stop-opacity="1" stop-color="rgb(95.574951%, 84.989929%, 43.069458%)" offset="0.0429688"/><stop stop-opacity="1" stop-color="rgb(95.225525%, 84.761047%, 42.979431%)" offset="0.046875"/><stop stop-opacity="1" stop-color="rgb(94.876099%, 84.532166%, 42.889404%)" offset="0.0507812"/><stop stop-opacity="1" stop-color="rgb(94.526672%, 84.30481%, 42.799377%)" offset="0.0546875"/><stop stop-opacity="1" stop-color="rgb(94.177246%, 84.075928%, 42.709351%)" offset="0.0585938"/><stop stop-opacity="1" stop-color="rgb(93.82782%, 83.847046%, 42.619324%)" offset="0.0625"/><stop stop-opacity="1" stop-color="rgb(93.478394%, 83.618164%, 42.529297%)" offset="0.0664062"/><stop stop-opacity="1" stop-color="rgb(93.128967%, 83.390808%, 42.43927%)" offset="0.0703125"/><stop stop-opacity="1" stop-color="rgb(92.779541%, 83.161926%, 42.349243%)" offset="0.0742187"/><stop stop-opacity="1" stop-color="rgb(92.430115%, 82.933044%, 42.260742%)" offset="0.078125"/><stop stop-opacity="1" stop-color="rgb(92.080688%, 82.704163%, 42.170715%)" offset="0.0820312"/><stop stop-opacity="1" stop-color="rgb(91.732788%, 82.475281%, 42.080688%)" offset="0.0859375"/><stop stop-opacity="1" stop-color="rgb(91.383362%, 82.246399%, 41.990662%)" offset="0.0898437"/><stop stop-opacity="1" stop-color="rgb(91.033936%, 82.019043%, 41.900635%)" offset="0.09375"/><stop stop-opacity="1" stop-color="rgb(90.684509%, 81.790161%, 41.810608%)" offset="0.0976562"/><stop stop-opacity="1" stop-color="rgb(90.335083%, 81.561279%, 41.720581%)" offset="0.101562"/><stop stop-opacity="1" stop-color="rgb(89.985657%, 81.332397%, 41.630554%)" offset="0.105469"/><stop stop-opacity="1" stop-color="rgb(89.63623%, 81.105042%, 41.540527%)" offset="0.109375"/><stop stop-opacity="1" stop-color="rgb(89.286804%, 80.87616%, 41.4505%)" offset="0.113281"/><stop stop-opacity="1" stop-color="rgb(88.937378%, 80.647278%, 41.360474%)" offset="0.117187"/><stop stop-opacity="1" stop-color="rgb(88.587952%, 80.418396%, 41.270447%)" offset="0.121094"/><stop stop-opacity="1" stop-color="rgb(88.238525%, 80.19104%, 41.181946%)" offset="0.125"/><stop stop-opacity="1" stop-color="rgb(87.889099%, 79.962158%, 41.091919%)" offset="0.128906"/><stop stop-opacity="1" stop-color="rgb(87.539673%, 79.733276%, 41.001892%)" offset="0.132812"/><stop stop-opacity="1" stop-color="rgb(87.190247%, 79.504395%, 40.911865%)" offset="0.136719"/><stop stop-opacity="1" stop-color="rgb(86.84082%, 79.275513%, 40.821838%)" offset="0.140625"/><stop stop-opacity="1" stop-color="rgb(86.491394%, 79.046631%, 40.731812%)" offset="0.144531"/><stop stop-opacity="1" stop-color="rgb(86.141968%, 78.819275%, 40.641785%)" offset="0.148437"/><stop stop-opacity="1" stop-color="rgb(85.792542%, 78.590393%, 40.551758%)" offset="0.152344"/><stop stop-opacity="1" stop-color="rgb(85.443115%, 78.361511%, 40.461731%)" offset="0.15625"/><stop stop-opacity="1" stop-color="rgb(85.093689%, 78.132629%, 40.371704%)" offset="0.160156"/><stop stop-opacity="1" stop-color="rgb(84.744263%, 77.905273%, 40.281677%)" offset="0.164062"/><stop stop-opacity="1" stop-color="rgb(84.394836%, 77.676392%, 40.19165%)" offset="0.167969"/><stop stop-opacity="1" stop-color="rgb(84.04541%, 77.44751%, 40.101624%)" offset="0.171875"/><stop stop-opacity="1" stop-color="rgb(83.695984%, 77.218628%, 40.011597%)" offset="0.175781"/><stop stop-opacity="1" stop-color="rgb(83.346558%, 76.991272%, 39.923096%)" offset="0.179687"/><stop stop-opacity="1" stop-color="rgb(82.997131%, 76.76239%, 39.833069%)" offset="0.183594"/><stop stop-opacity="1" stop-color="rgb(82.649231%, 76.533508%, 39.743042%)" offset="0.1875"/><stop stop-opacity="1" stop-color="rgb(82.299805%, 76.304626%, 39.653015%)" offset="0.191406"/><stop stop-opacity="1" stop-color="rgb(81.950378%, 76.075745%, 39.562988%)" offset="0.195312"/><stop stop-opacity="1" stop-color="rgb(81.600952%, 75.846863%, 39.472961%)" offset="0.199219"/><stop stop-opacity="1" stop-color="rgb(81.251526%, 75.619507%, 39.382935%)" offset="0.203125"/><stop stop-opacity="1" stop-color="rgb(80.9021%, 75.390625%, 39.292908%)" offset="0.207031"/><stop stop-opacity="1" stop-color="rgb(80.552673%, 75.161743%, 39.202881%)" offset="0.210937"/><stop stop-opacity="1" stop-color="rgb(80.203247%, 74.932861%, 39.112854%)" offset="0.214844"/><stop stop-opacity="1" stop-color="rgb(79.853821%, 74.705505%, 39.022827%)" offset="0.21875"/><stop stop-opacity="1" stop-color="rgb(79.504395%, 74.476624%, 38.9328%)" offset="0.222656"/><stop stop-opacity="1" stop-color="rgb(79.154968%, 74.247742%, 38.842773%)" offset="0.226562"/><stop stop-opacity="1" stop-color="rgb(78.805542%, 74.01886%, 38.752747%)" offset="0.230469"/><stop stop-opacity="1" stop-color="rgb(78.456116%, 73.791504%, 38.664246%)" offset="0.234375"/><stop stop-opacity="1" stop-color="rgb(78.106689%, 73.562622%, 38.574219%)" offset="0.238281"/><stop stop-opacity="1" stop-color="rgb(77.757263%, 73.33374%, 38.484192%)" offset="0.242187"/><stop stop-opacity="1" stop-color="rgb(77.407837%, 73.104858%, 38.394165%)" offset="0.246094"/><stop stop-opacity="1" stop-color="rgb(77.058411%, 72.875977%, 38.304138%)" offset="0.25"/><stop stop-opacity="1" stop-color="rgb(76.708984%, 72.647095%, 38.214111%)" offset="0.253906"/><stop stop-opacity="1" stop-color="rgb(76.359558%, 72.419739%, 38.124084%)" offset="0.257812"/><stop stop-opacity="1" stop-color="rgb(76.010132%, 72.190857%, 38.034058%)" offset="0.261719"/><stop stop-opacity="1" stop-color="rgb(75.660706%, 71.961975%, 37.944031%)" offset="0.265625"/><stop stop-opacity="1" stop-color="rgb(75.311279%, 71.733093%, 37.854004%)" offset="0.269531"/><stop stop-opacity="1" stop-color="rgb(74.961853%, 71.505737%, 37.763977%)" offset="0.273437"/><stop stop-opacity="1" stop-color="rgb(74.612427%, 71.276855%, 37.67395%)" offset="0.277344"/><stop stop-opacity="1" stop-color="rgb(74.264526%, 71.047974%, 37.583923%)" offset="0.28125"/><stop stop-opacity="1" stop-color="rgb(73.9151%, 70.819092%, 37.493896%)" offset="0.285156"/><stop stop-opacity="1" stop-color="rgb(73.565674%, 70.591736%, 37.405396%)" offset="0.289062"/><stop stop-opacity="1" stop-color="rgb(73.216248%, 70.362854%, 37.315369%)" offset="0.292969"/><stop stop-opacity="1" stop-color="rgb(72.866821%, 70.133972%, 37.225342%)" offset="0.296875"/><stop stop-opacity="1" stop-color="rgb(72.517395%, 69.90509%, 37.135315%)" offset="0.300781"/><stop stop-opacity="1" stop-color="rgb(72.167969%, 69.676208%, 37.045288%)" offset="0.304688"/><stop stop-opacity="1" stop-color="rgb(71.818542%, 69.447327%, 36.955261%)" offset="0.308594"/><stop stop-opacity="1" stop-color="rgb(71.469116%, 69.219971%, 36.865234%)" offset="0.3125"/><stop stop-opacity="1" stop-color="rgb(71.11969%, 68.991089%, 36.775208%)" offset="0.316406"/><stop stop-opacity="1" stop-color="rgb(70.770264%, 68.762207%, 36.685181%)" offset="0.320312"/><stop stop-opacity="1" stop-color="rgb(70.420837%, 68.533325%, 36.595154%)" offset="0.324219"/><stop stop-opacity="1" stop-color="rgb(70.071411%, 68.305969%, 36.505127%)" offset="0.328125"/><stop stop-opacity="1" stop-color="rgb(69.721985%, 68.077087%, 36.4151%)" offset="0.332031"/><stop stop-opacity="1" stop-color="rgb(69.372559%, 67.848206%, 36.325073%)" offset="0.335938"/><stop stop-opacity="1" stop-color="rgb(69.023132%, 67.619324%, 36.235046%)" offset="0.339844"/><stop stop-opacity="1" stop-color="rgb(68.673706%, 67.391968%, 36.146545%)" offset="0.34375"/><stop stop-opacity="1" stop-color="rgb(68.32428%, 67.163086%, 36.056519%)" offset="0.347656"/><stop stop-opacity="1" stop-color="rgb(67.974854%, 66.934204%, 35.966492%)" offset="0.351563"/><stop stop-opacity="1" stop-color="rgb(67.625427%, 66.705322%, 35.876465%)" offset="0.355469"/><stop stop-opacity="1" stop-color="rgb(67.276001%, 66.477966%, 35.786438%)" offset="0.359375"/><stop stop-opacity="1" stop-color="rgb(66.926575%, 66.249084%, 35.696411%)" offset="0.363281"/><stop stop-opacity="1" stop-color="rgb(66.577148%, 66.020203%, 35.606384%)" offset="0.367188"/><stop stop-opacity="1" stop-color="rgb(66.227722%, 65.791321%, 35.516357%)" offset="0.371094"/><stop stop-opacity="1" stop-color="rgb(65.878296%, 65.562439%, 35.426331%)" offset="0.375"/><stop stop-opacity="1" stop-color="rgb(65.52887%, 65.333557%, 35.336304%)" offset="0.378906"/><stop stop-opacity="1" stop-color="rgb(65.180969%, 65.106201%, 35.246277%)" offset="0.382812"/><stop stop-opacity="1" stop-color="rgb(64.831543%, 64.877319%, 35.15625%)" offset="0.386719"/><stop stop-opacity="1" stop-color="rgb(64.482117%, 64.648438%, 35.066223%)" offset="0.390625"/><stop stop-opacity="1" stop-color="rgb(64.13269%, 64.419556%, 34.976196%)" offset="0.394531"/><stop stop-opacity="1" stop-color="rgb(63.783264%, 64.1922%, 34.887695%)" offset="0.398437"/><stop stop-opacity="1" stop-color="rgb(63.433838%, 63.963318%, 34.797668%)" offset="0.402344"/><stop stop-opacity="1" stop-color="rgb(63.084412%, 63.734436%, 34.707642%)" offset="0.40625"/><stop stop-opacity="1" stop-color="rgb(62.734985%, 63.505554%, 34.617615%)" offset="0.410156"/><stop stop-opacity="1" stop-color="rgb(62.385559%, 63.278198%, 34.527588%)" offset="0.414062"/><stop stop-opacity="1" stop-color="rgb(62.036133%, 63.049316%, 34.437561%)" offset="0.417969"/><stop stop-opacity="1" stop-color="rgb(61.686707%, 62.820435%, 34.347534%)" offset="0.421875"/><stop stop-opacity="1" stop-color="rgb(61.33728%, 62.591553%, 34.257507%)" offset="0.425781"/><stop stop-opacity="1" stop-color="rgb(60.987854%, 62.362671%, 34.16748%)" offset="0.429688"/><stop stop-opacity="1" stop-color="rgb(60.638428%, 62.133789%, 34.077454%)" offset="0.433594"/><stop stop-opacity="1" stop-color="rgb(60.289001%, 61.906433%, 33.987427%)" offset="0.4375"/><stop stop-opacity="1" stop-color="rgb(59.939575%, 61.677551%, 33.8974%)" offset="0.441406"/><stop stop-opacity="1" stop-color="rgb(59.590149%, 61.448669%, 33.807373%)" offset="0.445312"/><stop stop-opacity="1" stop-color="rgb(59.240723%, 61.219788%, 33.717346%)" offset="0.449219"/><stop stop-opacity="1" stop-color="rgb(58.891296%, 60.992432%, 33.628845%)" offset="0.453125"/><stop stop-opacity="1" stop-color="rgb(58.54187%, 60.76355%, 33.538818%)" offset="0.457031"/><stop stop-opacity="1" stop-color="rgb(58.192444%, 60.534668%, 33.448792%)" offset="0.460938"/><stop stop-opacity="1" stop-color="rgb(57.843018%, 60.305786%, 33.358765%)" offset="0.464844"/><stop stop-opacity="1" stop-color="rgb(57.493591%, 60.07843%, 33.268738%)" offset="0.46875"/><stop stop-opacity="1" stop-color="rgb(57.144165%, 59.849548%, 33.178711%)" offset="0.472656"/><stop stop-opacity="1" stop-color="rgb(56.796265%, 59.620667%, 33.088684%)" offset="0.476563"/><stop stop-opacity="1" stop-color="rgb(56.446838%, 59.391785%, 32.998657%)" offset="0.480469"/><stop stop-opacity="1" stop-color="rgb(56.097412%, 59.162903%, 32.90863%)" offset="0.484375"/><stop stop-opacity="1" stop-color="rgb(55.747986%, 58.934021%, 32.818604%)" offset="0.488281"/><stop stop-opacity="1" stop-color="rgb(55.39856%, 58.706665%, 32.728577%)" offset="0.492188"/><stop stop-opacity="1" stop-color="rgb(55.049133%, 58.477783%, 32.63855%)" offset="0.496094"/><stop stop-opacity="1" stop-color="rgb(54.699707%, 58.248901%, 32.548523%)" offset="0.5"/><stop stop-opacity="1" stop-color="rgb(54.350281%, 58.02002%, 32.458496%)" offset="0.503906"/><stop stop-opacity="1" stop-color="rgb(54.000854%, 57.792664%, 32.369995%)" offset="0.507812"/><stop stop-opacity="1" stop-color="rgb(53.651428%, 57.563782%, 32.279968%)" offset="0.511719"/><stop stop-opacity="1" stop-color="rgb(53.302002%, 57.3349%, 32.189941%)" offset="0.515625"/><stop stop-opacity="1" stop-color="rgb(52.952576%, 57.106018%, 32.099915%)" offset="0.519531"/><stop stop-opacity="1" stop-color="rgb(52.603149%, 56.878662%, 32.009888%)" offset="0.523438"/><stop stop-opacity="1" stop-color="rgb(52.253723%, 56.64978%, 31.919861%)" offset="0.527344"/><stop stop-opacity="1" stop-color="rgb(51.904297%, 56.420898%, 31.829834%)" offset="0.53125"/><stop stop-opacity="1" stop-color="rgb(51.554871%, 56.192017%, 31.739807%)" offset="0.535156"/><stop stop-opacity="1" stop-color="rgb(51.205444%, 55.963135%, 31.64978%)" offset="0.539062"/><stop stop-opacity="1" stop-color="rgb(50.856018%, 55.734253%, 31.559753%)" offset="0.542969"/><stop stop-opacity="1" stop-color="rgb(50.506592%, 55.506897%, 31.469727%)" offset="0.546875"/><stop stop-opacity="1" stop-color="rgb(50.157166%, 55.278015%, 31.3797%)" offset="0.550781"/><stop stop-opacity="1" stop-color="rgb(49.807739%, 55.049133%, 31.291199%)" offset="0.554687"/><stop stop-opacity="1" stop-color="rgb(49.458313%, 54.820251%, 31.201172%)" offset="0.558594"/><stop stop-opacity="1" stop-color="rgb(49.108887%, 54.592896%, 31.111145%)" offset="0.5625"/><stop stop-opacity="1" stop-color="rgb(48.75946%, 54.364014%, 31.021118%)" offset="0.566406"/><stop stop-opacity="1" stop-color="rgb(48.410034%, 54.135132%, 30.931091%)" offset="0.570312"/><stop stop-opacity="1" stop-color="rgb(48.060608%, 53.90625%, 30.841064%)" offset="0.574219"/><stop stop-opacity="1" stop-color="rgb(47.712708%, 53.678894%, 30.751038%)" offset="0.578125"/><stop stop-opacity="1" stop-color="rgb(47.363281%, 53.450012%, 30.661011%)" offset="0.582031"/><stop stop-opacity="1" stop-color="rgb(47.013855%, 53.22113%, 30.570984%)" offset="0.585938"/><stop stop-opacity="1" stop-color="rgb(46.664429%, 52.992249%, 30.480957%)" offset="0.589844"/><stop stop-opacity="1" stop-color="rgb(46.315002%, 52.763367%, 30.39093%)" offset="0.59375"/><stop stop-opacity="1" stop-color="rgb(45.965576%, 52.534485%, 30.300903%)" offset="0.597656"/><stop stop-opacity="1" stop-color="rgb(45.61615%, 52.307129%, 30.210876%)" offset="0.601562"/><stop stop-opacity="1" stop-color="rgb(45.266724%, 52.078247%, 30.12085%)" offset="0.605469"/><stop stop-opacity="1" stop-color="rgb(44.917297%, 51.849365%, 30.032349%)" offset="0.609375"/><stop stop-opacity="1" stop-color="rgb(44.567871%, 51.620483%, 29.942322%)" offset="0.613281"/><stop stop-opacity="1" stop-color="rgb(44.218445%, 51.393127%, 29.852295%)" offset="0.617188"/><stop stop-opacity="1" stop-color="rgb(43.869019%, 51.164246%, 29.762268%)" offset="0.621094"/><stop stop-opacity="1" stop-color="rgb(43.519592%, 50.935364%, 29.672241%)" offset="0.625"/><stop stop-opacity="1" stop-color="rgb(43.170166%, 50.706482%, 29.582214%)" offset="0.628906"/><stop stop-opacity="1" stop-color="rgb(42.82074%, 50.479126%, 29.492188%)" offset="0.632812"/><stop stop-opacity="1" stop-color="rgb(42.471313%, 50.250244%, 29.402161%)" offset="0.636719"/><stop stop-opacity="1" stop-color="rgb(42.121887%, 50.021362%, 29.312134%)" offset="0.640625"/><stop stop-opacity="1" stop-color="rgb(41.772461%, 49.79248%, 29.222107%)" offset="0.644531"/><stop stop-opacity="1" stop-color="rgb(41.423035%, 49.563599%, 29.13208%)" offset="0.648438"/><stop stop-opacity="1" stop-color="rgb(41.073608%, 49.334717%, 29.042053%)" offset="0.652344"/><stop stop-opacity="1" stop-color="rgb(40.724182%, 49.107361%, 28.952026%)" offset="0.65625"/><stop stop-opacity="1" stop-color="rgb(40.374756%, 48.878479%, 28.862%)" offset="0.660156"/><stop stop-opacity="1" stop-color="rgb(40.02533%, 48.649597%, 28.773499%)" offset="0.664062"/><stop stop-opacity="1" stop-color="rgb(39.675903%, 48.420715%, 28.683472%)" offset="0.667969"/><stop stop-opacity="1" stop-color="rgb(39.328003%, 48.193359%, 28.593445%)" offset="0.671875"/><stop stop-opacity="1" stop-color="rgb(38.978577%, 47.964478%, 28.503418%)" offset="0.675781"/><stop stop-opacity="1" stop-color="rgb(38.62915%, 47.735596%, 28.413391%)" offset="0.679688"/><stop stop-opacity="1" stop-color="rgb(38.279724%, 47.506714%, 28.323364%)" offset="0.683594"/><stop stop-opacity="1" stop-color="rgb(37.930298%, 47.279358%, 28.233337%)" offset="0.6875"/><stop stop-opacity="1" stop-color="rgb(37.580872%, 47.050476%, 28.143311%)" offset="0.691406"/><stop stop-opacity="1" stop-color="rgb(37.231445%, 46.821594%, 28.053284%)" offset="0.695313"/><stop stop-opacity="1" stop-color="rgb(36.882019%, 46.592712%, 27.963257%)" offset="0.699219"/><stop stop-opacity="1" stop-color="rgb(36.532593%, 46.363831%, 27.87323%)" offset="0.703125"/><stop stop-opacity="1" stop-color="rgb(36.183167%, 46.134949%, 27.783203%)" offset="0.707031"/><stop stop-opacity="1" stop-color="rgb(35.83374%, 45.907593%, 27.693176%)" offset="0.710938"/><stop stop-opacity="1" stop-color="rgb(35.484314%, 45.678711%, 27.603149%)" offset="0.714844"/><stop stop-opacity="1" stop-color="rgb(35.134888%, 45.449829%, 27.514648%)" offset="0.71875"/><stop stop-opacity="1" stop-color="rgb(34.785461%, 45.220947%, 27.424622%)" offset="0.722656"/><stop stop-opacity="1" stop-color="rgb(34.436035%, 44.993591%, 27.334595%)" offset="0.726562"/><stop stop-opacity="1" stop-color="rgb(34.086609%, 44.764709%, 27.244568%)" offset="0.730469"/><stop stop-opacity="1" stop-color="rgb(33.737183%, 44.535828%, 27.154541%)" offset="0.734375"/><stop stop-opacity="1" stop-color="rgb(33.387756%, 44.306946%, 27.064514%)" offset="0.738281"/><stop stop-opacity="1" stop-color="rgb(33.03833%, 44.07959%, 26.974487%)" offset="0.742188"/><stop stop-opacity="1" stop-color="rgb(32.688904%, 43.850708%, 26.88446%)" offset="0.746094"/><stop stop-opacity="1" stop-color="rgb(32.339478%, 43.621826%, 26.794434%)" offset="0.75"/><stop stop-opacity="1" stop-color="rgb(31.990051%, 43.392944%, 26.704407%)" offset="0.753906"/><stop stop-opacity="1" stop-color="rgb(31.640625%, 43.164062%, 26.61438%)" offset="0.757812"/><stop stop-opacity="1" stop-color="rgb(31.291199%, 42.935181%, 26.524353%)" offset="0.761719"/><stop stop-opacity="1" stop-color="rgb(30.941772%, 42.707825%, 26.434326%)" offset="0.765625"/><stop stop-opacity="1" stop-color="rgb(30.592346%, 42.478943%, 26.344299%)" offset="0.769531"/><stop stop-opacity="1" stop-color="rgb(30.244446%, 42.250061%, 26.255798%)" offset="0.773438"/><stop stop-opacity="1" stop-color="rgb(29.89502%, 42.021179%, 26.165771%)" offset="0.777344"/><stop stop-opacity="1" stop-color="rgb(29.545593%, 41.793823%, 26.075745%)" offset="0.78125"/><stop stop-opacity="1" stop-color="rgb(29.196167%, 41.564941%, 25.985718%)" offset="0.785156"/><stop stop-opacity="1" stop-color="rgb(28.846741%, 41.33606%, 25.895691%)" offset="0.789062"/><stop stop-opacity="1" stop-color="rgb(28.497314%, 41.107178%, 25.805664%)" offset="0.792969"/><stop stop-opacity="1" stop-color="rgb(28.147888%, 40.879822%, 25.715637%)" offset="0.796875"/><stop stop-opacity="1" stop-color="rgb(27.798462%, 40.65094%, 25.62561%)" offset="0.800781"/><stop stop-opacity="1" stop-color="rgb(27.449036%, 40.422058%, 25.535583%)" offset="0.804687"/><stop stop-opacity="1" stop-color="rgb(27.099609%, 40.193176%, 25.445557%)" offset="0.808594"/><stop stop-opacity="1" stop-color="rgb(26.750183%, 39.96582%, 25.35553%)" offset="0.8125"/><stop stop-opacity="1" stop-color="rgb(26.400757%, 39.736938%, 25.265503%)" offset="0.816406"/><stop stop-opacity="1" stop-color="rgb(26.051331%, 39.508057%, 25.175476%)" offset="0.820312"/><stop stop-opacity="1" stop-color="rgb(25.701904%, 39.279175%, 25.085449%)" offset="0.824219"/><stop stop-opacity="1" stop-color="rgb(25.352478%, 39.050293%, 24.996948%)" offset="0.828125"/><stop stop-opacity="1" stop-color="rgb(25.003052%, 38.821411%, 24.906921%)" offset="0.832031"/><stop stop-opacity="1" stop-color="rgb(24.653625%, 38.594055%, 24.816895%)" offset="0.835938"/><stop stop-opacity="1" stop-color="rgb(24.304199%, 38.365173%, 24.726868%)" offset="0.839844"/><stop stop-opacity="1" stop-color="rgb(23.954773%, 38.136292%, 24.636841%)" offset="0.84375"/><stop stop-opacity="1" stop-color="rgb(23.605347%, 37.90741%, 24.546814%)" offset="0.847656"/><stop stop-opacity="1" stop-color="rgb(23.25592%, 37.680054%, 24.456787%)" offset="0.851562"/><stop stop-opacity="1" stop-color="rgb(22.906494%, 37.451172%, 24.36676%)" offset="0.855469"/><stop stop-opacity="1" stop-color="rgb(22.557068%, 37.22229%, 24.276733%)" offset="0.859375"/><stop stop-opacity="1" stop-color="rgb(22.207642%, 36.993408%, 24.186707%)" offset="0.863281"/><stop stop-opacity="1" stop-color="rgb(21.859741%, 36.766052%, 24.09668%)" offset="0.867188"/><stop stop-opacity="1" stop-color="rgb(21.510315%, 36.53717%, 24.006653%)" offset="0.871094"/><stop stop-opacity="1" stop-color="rgb(21.160889%, 36.308289%, 23.916626%)" offset="0.875"/><stop stop-opacity="1" stop-color="rgb(20.811462%, 36.079407%, 23.826599%)" offset="0.878906"/><stop stop-opacity="1" stop-color="rgb(20.462036%, 35.850525%, 23.738098%)" offset="0.882812"/><stop stop-opacity="1" stop-color="rgb(20.11261%, 35.621643%, 23.648071%)" offset="0.886719"/><stop stop-opacity="1" stop-color="rgb(19.763184%, 35.394287%, 23.558044%)" offset="0.890625"/><stop stop-opacity="1" stop-color="rgb(19.413757%, 35.165405%, 23.468018%)" offset="0.894531"/><stop stop-opacity="1" stop-color="rgb(19.064331%, 34.936523%, 23.377991%)" offset="0.898438"/><stop stop-opacity="1" stop-color="rgb(18.714905%, 34.707642%, 23.287964%)" offset="0.902344"/><stop stop-opacity="1" stop-color="rgb(18.365479%, 34.480286%, 23.197937%)" offset="0.90625"/><stop stop-opacity="1" stop-color="rgb(18.016052%, 34.251404%, 23.10791%)" offset="0.910156"/><stop stop-opacity="1" stop-color="rgb(17.666626%, 34.022522%, 23.017883%)" offset="0.914062"/><stop stop-opacity="1" stop-color="rgb(17.3172%, 33.79364%, 22.927856%)" offset="0.917969"/><stop stop-opacity="1" stop-color="rgb(16.967773%, 33.566284%, 22.83783%)" offset="0.921875"/><stop stop-opacity="1" stop-color="rgb(16.618347%, 33.337402%, 22.747803%)" offset="0.925781"/><stop stop-opacity="1" stop-color="rgb(16.268921%, 33.108521%, 22.657776%)" offset="0.929688"/><stop stop-opacity="1" stop-color="rgb(15.919495%, 32.879639%, 22.567749%)" offset="0.933594"/><stop stop-opacity="1" stop-color="rgb(15.570068%, 32.650757%, 22.479248%)" offset="0.9375"/><stop stop-opacity="1" stop-color="rgb(15.220642%, 32.421875%, 22.389221%)" offset="0.941406"/><stop stop-opacity="1" stop-color="rgb(14.871216%, 32.194519%, 22.299194%)" offset="0.945313"/><stop stop-opacity="1" stop-color="rgb(14.52179%, 31.965637%, 22.209167%)" offset="0.949219"/><stop stop-opacity="1" stop-color="rgb(14.172363%, 31.736755%, 22.119141%)" offset="0.953125"/><stop stop-opacity="1" stop-color="rgb(13.822937%, 31.507874%, 22.029114%)" offset="0.957031"/><stop stop-opacity="1" stop-color="rgb(13.473511%, 31.280518%, 21.939087%)" offset="0.960938"/><stop stop-opacity="1" stop-color="rgb(13.124084%, 31.051636%, 21.84906%)" offset="0.964844"/><stop stop-opacity="1" stop-color="rgb(12.776184%, 30.822754%, 21.759033%)" offset="0.96875"/><stop stop-opacity="1" stop-color="rgb(12.426758%, 30.593872%, 21.669006%)" offset="0.972656"/><stop stop-opacity="1" stop-color="rgb(12.077332%, 30.366516%, 21.578979%)" offset="0.976562"/><stop stop-opacity="1" stop-color="rgb(11.727905%, 30.137634%, 21.488953%)" offset="0.980469"/><stop stop-opacity="1" stop-color="rgb(11.378479%, 29.908752%, 21.398926%)" offset="0.984375"/><stop stop-opacity="1" stop-color="rgb(11.029053%, 29.679871%, 21.308899%)" offset="0.988281"/><stop stop-opacity="1" stop-color="rgb(10.679626%, 29.450989%, 21.220398%)" offset="0.992188"/><stop stop-opacity="1" stop-color="rgb(10.638428%, 29.425049%, 21.209717%)" offset="1"/></linearGradient></defs><g clip-path="url(#f12f0e2a53)"><path fill="#ffffff" d="M 0.691406 0 L 122.8125 0 L 122.8125 37.007812 L 0.691406 37.007812 Z M 0.691406 0 " fill-opacity="1" fill-rule="nonzero"/><path fill="#ffffff" d="M 0.691406 0 L 122.8125 0 L 122.8125 37.007812 L 0.691406 37.007812 Z M 0.691406 0 " fill-opacity="1" fill-rule="nonzero"/></g><g fill="#fcde70" fill-opacity="1"><g transform="translate(8.129804, 17.34282)"><g><path d="M 0.078125 0 L 3.828125 -10.34375 L 6.859375 -10.34375 L 10.59375 0 L 7.984375 0 L 7.328125 -2.03125 L 3.34375 -2.03125 L 2.671875 0 Z M 3.796875 -3.796875 L 6.875 -3.796875 L 5.34375 -8.390625 L 5.3125 -8.390625 Z M 3.796875 -3.796875 "/></g></g></g><g fill="#1b4b36" fill-opacity="1"><g transform="translate(19.420265, 17.34282)"><g><path d="M 0.796875 0 L 0.796875 -10.34375 L 4.046875 -10.34375 L 7.0625 -2.78125 L 7.09375 -2.78125 L 10.125 -10.34375 L 13.34375 -10.34375 L 13.34375 0 L 11.0625 0 L 11.0625 -7.265625 L 11.03125 -7.265625 L 8.078125 0 L 6.0625 0 L 3.09375 -7.25 L 3.0625 -7.25 L 3.0625 0 Z M 0.796875 0 "/></g></g></g><g fill="#1b4b36" fill-opacity="1"><g transform="translate(34.177562, 17.34282)"><g><path d="M 0.796875 0 L 0.796875 -10.34375 L 5.0625 -10.34375 C 6.851562 -10.34375 8.234375 -9.894531 9.203125 -9 C 10.171875 -8.113281 10.65625 -6.835938 10.65625 -5.171875 C 10.65625 -3.503906 10.171875 -2.222656 9.203125 -1.328125 C 8.234375 -0.441406 6.851562 0 5.0625 0 Z M 3.21875 -1.984375 L 5.0625 -1.984375 C 6.050781 -1.984375 6.816406 -2.253906 7.359375 -2.796875 C 7.898438 -3.347656 8.171875 -4.140625 8.171875 -5.171875 C 8.171875 -6.210938 7.898438 -7.003906 7.359375 -7.546875 C 6.816406 -8.097656 6.050781 -8.375 5.0625 -8.375 L 3.21875 -8.375 Z M 3.21875 -1.984375 "/></g></g></g><g fill="#1b4b36" fill-opacity="1"><g transform="translate(45.884643, 17.34282)"><g/></g></g><g fill="#1b4b36" fill-opacity="1"><g transform="translate(49.719258, 17.34282)"><g><path d="M 6.046875 0.359375 C 4.898438 0.359375 3.90625 0.132812 3.0625 -0.3125 C 2.226562 -0.757812 1.582031 -1.394531 1.125 -2.21875 C 0.664062 -3.050781 0.4375 -4.035156 0.4375 -5.171875 C 0.4375 -6.304688 0.65625 -7.285156 1.09375 -8.109375 C 1.53125 -8.941406 2.144531 -9.582031 2.9375 -10.03125 C 3.738281 -10.476562 4.679688 -10.703125 5.765625 -10.703125 C 6.617188 -10.703125 7.378906 -10.546875 8.046875 -10.234375 C 8.722656 -9.929688 9.28125 -9.492188 9.71875 -8.921875 C 10.15625 -8.347656 10.429688 -7.671875 10.546875 -6.890625 L 8.28125 -6.328125 C 8.15625 -7.023438 7.875 -7.578125 7.4375 -7.984375 C 7 -8.390625 6.441406 -8.59375 5.765625 -8.59375 C 4.898438 -8.59375 4.207031 -8.285156 3.6875 -7.671875 C 3.175781 -7.054688 2.921875 -6.222656 2.921875 -5.171875 C 2.929688 -4.140625 3.21875 -3.3125 3.78125 -2.6875 C 4.351562 -2.070312 5.117188 -1.765625 6.078125 -1.765625 C 6.867188 -1.765625 7.535156 -2.003906 8.078125 -2.484375 C 8.617188 -2.972656 8.953125 -3.628906 9.078125 -4.453125 L 11.40625 -4.125 C 11.300781 -3.21875 11.007812 -2.425781 10.53125 -1.75 C 10.0625 -1.070312 9.441406 -0.550781 8.671875 -0.1875 C 7.910156 0.175781 7.035156 0.359375 6.046875 0.359375 Z M 6.046875 0.359375 "/></g></g></g><g fill="#1b4b36" fill-opacity="1"><g transform="translate(61.266537, 17.34282)"><g><path d="M 0.078125 0 L 3.828125 -10.34375 L 6.859375 -10.34375 L 10.59375 0 L 7.984375 0 L 7.328125 -2.03125 L 3.34375 -2.03125 L 2.671875 0 Z M 3.796875 -3.796875 L 6.875 -3.796875 L 5.34375 -8.390625 L 5.3125 -8.390625 Z M 3.796875 -3.796875 "/></g></g></g><g fill="#1b4b36" fill-opacity="1"><g transform="translate(72.552397, 17.34282)"><g><path d="M 0.796875 0 L 0.796875 -10.34375 L 5.6875 -10.34375 C 6.488281 -10.34375 7.1875 -10.195312 7.78125 -9.90625 C 8.382812 -9.625 8.851562 -9.226562 9.1875 -8.71875 C 9.519531 -8.207031 9.6875 -7.609375 9.6875 -6.921875 C 9.6875 -6.234375 9.519531 -5.628906 9.1875 -5.109375 C 8.851562 -4.585938 8.382812 -4.179688 7.78125 -3.890625 C 7.175781 -3.609375 6.46875 -3.46875 5.65625 -3.46875 L 3.265625 -3.46875 L 3.265625 0 Z M 3.265625 -5.3125 L 5.296875 -5.3125 C 5.867188 -5.3125 6.328125 -5.457031 6.671875 -5.75 C 7.023438 -6.050781 7.203125 -6.441406 7.203125 -6.921875 C 7.203125 -7.398438 7.03125 -7.785156 6.6875 -8.078125 C 6.34375 -8.367188 5.878906 -8.515625 5.296875 -8.515625 L 3.265625 -8.515625 Z M 3.265625 -5.3125 "/></g></g></g><g fill="#1b4b36" fill-opacity="1"><g transform="translate(83.155589, 17.34282)"><g><path d="M 0.796875 0 L 0.796875 -10.34375 L 3.28125 -10.34375 L 3.28125 0 Z M 0.796875 0 "/></g></g></g><g fill="#1b4b36" fill-opacity="1"><g transform="translate(87.861696, 17.34282)"><g><path d="M 3.3125 0 L 3.3125 -8.21875 L 0.21875 -8.21875 L 0.21875 -10.34375 L 8.890625 -10.34375 L 8.890625 -8.21875 L 5.796875 -8.21875 L 5.796875 0 Z M 3.3125 0 "/></g></g></g><g fill="#1b4b36" fill-opacity="1"><g transform="translate(96.286116, 17.34282)"><g><path d="M 0.078125 0 L 3.828125 -10.34375 L 6.859375 -10.34375 L 10.59375 0 L 7.984375 0 L 7.328125 -2.03125 L 3.34375 -2.03125 L 2.671875 0 Z M 3.796875 -3.796875 L 6.875 -3.796875 L 5.34375 -8.390625 L 5.3125 -8.390625 Z M 3.796875 -3.796875 "/></g></g></g><g fill="#1b4b36" fill-opacity="1"><g transform="translate(107.571976, 17.34282)"><g><path d="M 0.796875 0 L 0.796875 -10.34375 L 3.28125 -10.34375 L 3.28125 -2.140625 L 7.578125 -2.140625 L 7.578125 0 Z M 0.796875 0 "/></g></g></g><path stroke-linecap="butt" transform="matrix(0.740132, 0, 0, 0.740132, 9.967785, 22.511407)" fill="none" stroke-linejoin="miter" d="M 0.00130424 0.997921 L 142.517144 0.997921 " stroke="url(#e8c1b56562)" stroke-width="2" stroke-miterlimit="4"/><g fill="#000000" fill-opacity="1"><g transform="translate(5.434114, 31.998826)"><g><path d="M 0.015625 0 L 1.078125 -2.9375 L 1.953125 -2.9375 L 3 0 L 2.265625 0 L 2.078125 -0.578125 L 0.953125 -0.578125 L 0.765625 0 Z M 1.078125 -1.078125 L 1.953125 -1.078125 L 1.515625 -2.375 Z M 1.078125 -1.078125 "/></g></g></g><g fill="#000000" fill-opacity="1"><g transform="translate(8.257459, 31.998826)"><g><path d="M 1.71875 0.109375 C 1.394531 0.109375 1.113281 0.046875 0.875 -0.078125 C 0.632812 -0.210938 0.445312 -0.394531 0.3125 -0.625 C 0.1875 -0.863281 0.125 -1.144531 0.125 -1.46875 C 0.125 -1.789062 0.1875 -2.066406 0.3125 -2.296875 C 0.4375 -2.535156 0.609375 -2.71875 0.828125 -2.84375 C 1.054688 -2.976562 1.328125 -3.046875 1.640625 -3.046875 C 1.878906 -3.046875 2.09375 -3 2.28125 -2.90625 C 2.476562 -2.820312 2.640625 -2.695312 2.765625 -2.53125 C 2.890625 -2.375 2.96875 -2.179688 3 -1.953125 L 2.34375 -1.796875 C 2.3125 -1.992188 2.234375 -2.148438 2.109375 -2.265625 C 1.984375 -2.378906 1.828125 -2.4375 1.640625 -2.4375 C 1.390625 -2.4375 1.191406 -2.347656 1.046875 -2.171875 C 0.898438 -1.992188 0.828125 -1.757812 0.828125 -1.46875 C 0.828125 -1.175781 0.90625 -0.941406 1.0625 -0.765625 C 1.226562 -0.585938 1.445312 -0.5 1.71875 -0.5 C 1.945312 -0.5 2.140625 -0.566406 2.296875 -0.703125 C 2.453125 -0.847656 2.546875 -1.035156 2.578125 -1.265625 L 3.234375 -1.171875 C 3.203125 -0.910156 3.117188 -0.679688 2.984375 -0.484375 C 2.847656 -0.296875 2.671875 -0.148438 2.453125 -0.046875 C 2.242188 0.0546875 2 0.109375 1.71875 0.109375 Z M 1.71875 0.109375 "/></g></g></g><g fill="#000000" fill-opacity="1"><g transform="translate(11.444045, 31.998826)"><g><path d="M 0.9375 0 L 0.9375 -2.328125 L 0.0625 -2.328125 L 0.0625 -2.9375 L 2.53125 -2.9375 L 2.53125 -2.328125 L 1.640625 -2.328125 L 1.640625 0 Z M 0.9375 0 "/></g></g></g><g fill="#000000" fill-opacity="1"><g transform="translate(14.032111, 31.998826)"><g><path d="M 0.234375 0 L 0.234375 -2.9375 L 0.9375 -2.9375 L 0.9375 0 Z M 0.234375 0 "/></g></g></g><g fill="#000000" fill-opacity="1"><g transform="translate(15.191995, 31.998826)"><g><path d="M 1.75 0.109375 C 1.425781 0.109375 1.140625 0.046875 0.890625 -0.078125 C 0.648438 -0.210938 0.460938 -0.398438 0.328125 -0.640625 C 0.191406 -0.878906 0.125 -1.15625 0.125 -1.46875 C 0.125 -1.78125 0.191406 -2.050781 0.328125 -2.28125 C 0.460938 -2.519531 0.648438 -2.707031 0.890625 -2.84375 C 1.140625 -2.976562 1.425781 -3.046875 1.75 -3.046875 C 2.082031 -3.046875 2.367188 -2.976562 2.609375 -2.84375 C 2.847656 -2.707031 3.035156 -2.519531 3.171875 -2.28125 C 3.304688 -2.050781 3.375 -1.78125 3.375 -1.46875 C 3.375 -1.15625 3.304688 -0.878906 3.171875 -0.640625 C 3.035156 -0.398438 2.847656 -0.210938 2.609375 -0.078125 C 2.367188 0.046875 2.082031 0.109375 1.75 0.109375 Z M 1.75 -0.5 C 1.9375 -0.5 2.097656 -0.539062 2.234375 -0.625 C 2.378906 -0.707031 2.488281 -0.820312 2.5625 -0.96875 C 2.632812 -1.113281 2.671875 -1.28125 2.671875 -1.46875 C 2.671875 -1.664062 2.632812 -1.835938 2.5625 -1.984375 C 2.488281 -2.128906 2.378906 -2.238281 2.234375 -2.3125 C 2.097656 -2.394531 1.9375 -2.4375 1.75 -2.4375 C 1.5625 -2.4375 1.398438 -2.394531 1.265625 -2.3125 C 1.128906 -2.238281 1.019531 -2.128906 0.9375 -1.984375 C 0.863281 -1.835938 0.828125 -1.664062 0.828125 -1.46875 C 0.828125 -1.28125 0.863281 -1.113281 0.9375 -0.96875 C 1.019531 -0.820312 1.128906 -0.707031 1.265625 -0.625 C 1.398438 -0.539062 1.5625 -0.5 1.75 -0.5 Z M 1.75 -0.5 "/></g></g></g><g fill="#000000" fill-opacity="1"><g transform="translate(18.69641, 31.998826)"><g><path d="M 0.234375 0 L 0.234375 -2.9375 L 1.046875 -2.9375 L 2.25 -0.84375 L 2.25 -2.9375 L 2.921875 -2.9375 L 2.921875 0 L 2.09375 0 L 0.90625 -2.09375 L 0.890625 -2.09375 L 0.890625 0 Z M 0.234375 0 "/></g></g></g><g fill="#000000" fill-opacity="1"><g transform="translate(22.762194, 31.998826)"><g><path d="M 0.9375 0 L 0.9375 -2.328125 L 0.0625 -2.328125 L 0.0625 -2.9375 L 2.53125 -2.9375 L 2.53125 -2.328125 L 1.640625 -2.328125 L 1.640625 0 Z M 0.9375 0 "/></g></g></g><g fill="#000000" fill-opacity="1"><g transform="translate(25.35026, 31.998826)"><g><path d="M 0.234375 0 L 0.234375 -2.9375 L 2.296875 -2.9375 L 2.296875 -2.375 L 0.90625 -2.375 L 0.90625 -1.75 L 2.125 -1.75 L 2.125 -1.25 L 0.90625 -1.25 L 0.90625 -0.5625 L 2.328125 -0.5625 L 2.328125 0 Z M 0.234375 0 "/></g></g></g><g fill="#000000" fill-opacity="1"><g transform="translate(27.736071, 31.998826)"><g><path d="M 1.71875 0.109375 C 1.394531 0.109375 1.113281 0.046875 0.875 -0.078125 C 0.632812 -0.210938 0.445312 -0.394531 0.3125 -0.625 C 0.1875 -0.863281 0.125 -1.144531 0.125 -1.46875 C 0.125 -1.789062 0.1875 -2.066406 0.3125 -2.296875 C 0.4375 -2.535156 0.609375 -2.71875 0.828125 -2.84375 C 1.054688 -2.976562 1.328125 -3.046875 1.640625 -3.046875 C 1.878906 -3.046875 2.09375 -3 2.28125 -2.90625 C 2.476562 -2.820312 2.640625 -2.695312 2.765625 -2.53125 C 2.890625 -2.375 2.96875 -2.179688 3 -1.953125 L 2.34375 -1.796875 C 2.3125 -1.992188 2.234375 -2.148438 2.109375 -2.265625 C 1.984375 -2.378906 1.828125 -2.4375 1.640625 -2.4375 C 1.390625 -2.4375 1.191406 -2.347656 1.046875 -2.171875 C 0.898438 -1.992188 0.828125 -1.757812 0.828125 -1.46875 C 0.828125 -1.175781 0.90625 -0.941406 1.0625 -0.765625 C 1.226562 -0.585938 1.445312 -0.5 1.71875 -0.5 C 1.945312 -0.5 2.140625 -0.566406 2.296875 -0.703125 C 2.453125 -0.847656 2.546875 -1.035156 2.578125 -1.265625 L 3.234375 -1.171875 C 3.203125 -0.910156 3.117188 -0.679688 2.984375 -0.484375 C 2.847656 -0.296875 2.671875 -0.148438 2.453125 -0.046875 C 2.242188 0.0546875 2 0.109375 1.71875 0.109375 Z M 1.71875 0.109375 "/></g></g></g><g fill="#000000" fill-opacity="1"><g transform="translate(31.046487, 31.998826)"><g><path d="M 0.234375 0 L 0.234375 -2.9375 L 0.9375 -2.9375 L 0.9375 -1.796875 L 2.125 -1.796875 L 2.125 -2.9375 L 2.84375 -2.9375 L 2.84375 0 L 2.125 0 L 2.125 -1.234375 L 0.9375 -1.234375 L 0.9375 0 Z M 0.234375 0 "/></g></g></g><g fill="#000000" fill-opacity="1"><g transform="translate(42.291899, 31.998837)"><g><path d="M 0.015625 0 L 1.078125 -2.9375 L 1.953125 -2.9375 L 3 0 L 2.265625 0 L 2.078125 -0.578125 L 0.953125 -0.578125 L 0.765625 0 Z M 1.078125 -1.078125 L 1.953125 -1.078125 L 1.515625 -2.375 Z M 1.078125 -1.078125 "/></g></g></g><g fill="#000000" fill-opacity="1"><g transform="translate(45.115254, 31.998837)"><g><path d="M 1.71875 0.109375 C 1.394531 0.109375 1.113281 0.046875 0.875 -0.078125 C 0.632812 -0.210938 0.445312 -0.394531 0.3125 -0.625 C 0.1875 -0.863281 0.125 -1.144531 0.125 -1.46875 C 0.125 -1.789062 0.1875 -2.066406 0.3125 -2.296875 C 0.4375 -2.535156 0.609375 -2.71875 0.828125 -2.84375 C 1.054688 -2.976562 1.328125 -3.046875 1.640625 -3.046875 C 1.878906 -3.046875 2.09375 -3 2.28125 -2.90625 C 2.476562 -2.820312 2.640625 -2.695312 2.765625 -2.53125 C 2.890625 -2.375 2.96875 -2.179688 3 -1.953125 L 2.34375 -1.796875 C 2.3125 -1.992188 2.234375 -2.148438 2.109375 -2.265625 C 1.984375 -2.378906 1.828125 -2.4375 1.640625 -2.4375 C 1.390625 -2.4375 1.191406 -2.347656 1.046875 -2.171875 C 0.898438 -1.992188 0.828125 -1.757812 0.828125 -1.46875 C 0.828125 -1.175781 0.90625 -0.941406 1.0625 -0.765625 C 1.226562 -0.585938 1.445312 -0.5 1.71875 -0.5 C 1.945312 -0.5 2.140625 -0.566406 2.296875 -0.703125 C 2.453125 -0.847656 2.546875 -1.035156 2.578125 -1.265625 L 3.234375 -1.171875 C 3.203125 -0.910156 3.117188 -0.679688 2.984375 -0.484375 C 2.847656 -0.296875 2.671875 -0.148438 2.453125 -0.046875 C 2.242188 0.0546875 2 0.109375 1.71875 0.109375 Z M 1.71875 0.109375 "/></g></g></g><g fill="#000000" fill-opacity="1"><g transform="translate(48.301851, 31.998837)"><g><path d="M 0.9375 0 L 0.9375 -2.328125 L 0.0625 -2.328125 L 0.0625 -2.9375 L 2.53125 -2.9375 L 2.53125 -2.328125 L 1.640625 -2.328125 L 1.640625 0 Z M 0.9375 0 "/></g></g></g><g fill="#000000" fill-opacity="1"><g transform="translate(50.889926, 31.998837)"><g><path d="M 0.234375 0 L 0.234375 -2.9375 L 0.9375 -2.9375 L 0.9375 0 Z M 0.234375 0 "/></g></g></g><g fill="#000000" fill-opacity="1"><g transform="translate(52.049814, 31.998837)"><g><path d="M 1.75 0.109375 C 1.425781 0.109375 1.140625 0.046875 0.890625 -0.078125 C 0.648438 -0.210938 0.460938 -0.398438 0.328125 -0.640625 C 0.191406 -0.878906 0.125 -1.15625 0.125 -1.46875 C 0.125 -1.78125 0.191406 -2.050781 0.328125 -2.28125 C 0.460938 -2.519531 0.648438 -2.707031 0.890625 -2.84375 C 1.140625 -2.976562 1.425781 -3.046875 1.75 -3.046875 C 2.082031 -3.046875 2.367188 -2.976562 2.609375 -2.84375 C 2.847656 -2.707031 3.035156 -2.519531 3.171875 -2.28125 C 3.304688 -2.050781 3.375 -1.78125 3.375 -1.46875 C 3.375 -1.15625 3.304688 -0.878906 3.171875 -0.640625 C 3.035156 -0.398438 2.847656 -0.210938 2.609375 -0.078125 C 2.367188 0.046875 2.082031 0.109375 1.75 0.109375 Z M 1.75 -0.5 C 1.9375 -0.5 2.097656 -0.539062 2.234375 -0.625 C 2.378906 -0.707031 2.488281 -0.820312 2.5625 -0.96875 C 2.632812 -1.113281 2.671875 -1.28125 2.671875 -1.46875 C 2.671875 -1.664062 2.632812 -1.835938 2.5625 -1.984375 C 2.488281 -2.128906 2.378906 -2.238281 2.234375 -2.3125 C 2.097656 -2.394531 1.9375 -2.4375 1.75 -2.4375 C 1.5625 -2.4375 1.398438 -2.394531 1.265625 -2.3125 C 1.128906 -2.238281 1.019531 -2.128906 0.9375 -1.984375 C 0.863281 -1.835938 0.828125 -1.664062 0.828125 -1.46875 C 0.828125 -1.28125 0.863281 -1.113281 0.9375 -0.96875 C 1.019531 -0.820312 1.128906 -0.707031 1.265625 -0.625 C 1.398438 -0.539062 1.5625 -0.5 1.75 -0.5 Z M 1.75 -0.5 "/></g></g></g><g fill="#000000" fill-opacity="1"><g transform="translate(55.554241, 31.998837)"><g><path d="M 0.234375 0 L 0.234375 -2.9375 L 1.046875 -2.9375 L 2.25 -0.84375 L 2.25 -2.9375 L 2.921875 -2.9375 L 2.921875 0 L 2.09375 0 L 0.90625 -2.09375 L 0.890625 -2.09375 L 0.890625 0 Z M 0.234375 0 "/></g></g></g><g fill="#000000" fill-opacity="1"><g transform="translate(59.62004, 31.998837)"><g><path d="M 1.578125 0.09375 C 1.285156 0.09375 1.03125 0.03125 0.8125 -0.09375 C 0.59375 -0.226562 0.421875 -0.410156 0.296875 -0.640625 C 0.179688 -0.878906 0.125 -1.15625 0.125 -1.46875 C 0.125 -1.78125 0.1875 -2.050781 0.3125 -2.28125 C 0.445312 -2.519531 0.628906 -2.707031 0.859375 -2.84375 C 1.097656 -2.976562 1.367188 -3.046875 1.671875 -3.046875 C 1.890625 -3.046875 2.085938 -3.003906 2.265625 -2.921875 C 2.453125 -2.835938 2.609375 -2.722656 2.734375 -2.578125 C 2.859375 -2.429688 2.945312 -2.265625 3 -2.078125 L 2.34375 -1.9375 C 2.300781 -2.082031 2.21875 -2.203125 2.09375 -2.296875 C 1.96875 -2.390625 1.820312 -2.4375 1.65625 -2.4375 C 1.5 -2.4375 1.359375 -2.394531 1.234375 -2.3125 C 1.109375 -2.226562 1.007812 -2.113281 0.9375 -1.96875 C 0.863281 -1.820312 0.828125 -1.65625 0.828125 -1.46875 C 0.828125 -1.28125 0.863281 -1.109375 0.9375 -0.953125 C 1.019531 -0.804688 1.128906 -0.691406 1.265625 -0.609375 C 1.410156 -0.523438 1.578125 -0.484375 1.765625 -0.484375 C 1.921875 -0.484375 2.0625 -0.515625 2.1875 -0.578125 C 2.3125 -0.640625 2.410156 -0.726562 2.484375 -0.84375 C 2.554688 -0.957031 2.597656 -1.085938 2.609375 -1.234375 L 1.34375 -1.234375 L 1.34375 -1.671875 L 3.296875 -1.671875 L 3.296875 0 L 2.78125 0 L 2.703125 -0.5625 C 2.609375 -0.351562 2.457031 -0.191406 2.25 -0.078125 C 2.050781 0.0351562 1.828125 0.09375 1.578125 0.09375 Z M 1.578125 0.09375 "/></g></g></g><g fill="#000000" fill-opacity="1"><g transform="translate(63.079067, 31.998837)"><g><path d="M 0.234375 0 L 0.234375 -2.9375 L 0.9375 -2.9375 L 0.9375 -0.609375 L 2.15625 -0.609375 L 2.15625 0 Z M 0.234375 0 "/></g></g></g><g fill="#000000" fill-opacity="1"><g transform="translate(65.1842, 31.998837)"><g><path d="M 1.75 0.109375 C 1.425781 0.109375 1.140625 0.046875 0.890625 -0.078125 C 0.648438 -0.210938 0.460938 -0.398438 0.328125 -0.640625 C 0.191406 -0.878906 0.125 -1.15625 0.125 -1.46875 C 0.125 -1.78125 0.191406 -2.050781 0.328125 -2.28125 C 0.460938 -2.519531 0.648438 -2.707031 0.890625 -2.84375 C 1.140625 -2.976562 1.425781 -3.046875 1.75 -3.046875 C 2.082031 -3.046875 2.367188 -2.976562 2.609375 -2.84375 C 2.847656 -2.707031 3.035156 -2.519531 3.171875 -2.28125 C 3.304688 -2.050781 3.375 -1.78125 3.375 -1.46875 C 3.375 -1.15625 3.304688 -0.878906 3.171875 -0.640625 C 3.035156 -0.398438 2.847656 -0.210938 2.609375 -0.078125 C 2.367188 0.046875 2.082031 0.109375 1.75 0.109375 Z M 1.75 -0.5 C 1.9375 -0.5 2.097656 -0.539062 2.234375 -0.625 C 2.378906 -0.707031 2.488281 -0.820312 2.5625 -0.96875 C 2.632812 -1.113281 2.671875 -1.28125 2.671875 -1.46875 C 2.671875 -1.664062 2.632812 -1.835938 2.5625 -1.984375 C 2.488281 -2.128906 2.378906 -2.238281 2.234375 -2.3125 C 2.097656 -2.394531 1.9375 -2.4375 1.75 -2.4375 C 1.5625 -2.4375 1.398438 -2.394531 1.265625 -2.3125 C 1.128906 -2.238281 1.019531 -2.128906 0.9375 -1.984375 C 0.863281 -1.835938 0.828125 -1.664062 0.828125 -1.46875 C 0.828125 -1.28125 0.863281 -1.113281 0.9375 -0.96875 C 1.019531 -0.820312 1.128906 -0.707031 1.265625 -0.625 C 1.398438 -0.539062 1.5625 -0.5 1.75 -0.5 Z M 1.75 -0.5 "/></g></g></g><g fill="#000000" fill-opacity="1"><g transform="translate(68.688628, 31.998837)"><g><path d="M 0.234375 0 L 0.234375 -2.9375 L 1.71875 -2.9375 C 2.050781 -2.9375 2.304688 -2.863281 2.484375 -2.71875 C 2.660156 -2.582031 2.75 -2.390625 2.75 -2.140625 C 2.75 -1.972656 2.703125 -1.832031 2.609375 -1.71875 C 2.523438 -1.613281 2.40625 -1.539062 2.25 -1.5 C 2.425781 -1.46875 2.5625 -1.390625 2.65625 -1.265625 C 2.757812 -1.148438 2.8125 -1 2.8125 -0.8125 C 2.8125 -0.550781 2.71875 -0.347656 2.53125 -0.203125 C 2.351562 -0.0664062 2.097656 0 1.765625 0 Z M 0.9375 -1.71875 L 1.609375 -1.71875 C 1.742188 -1.71875 1.847656 -1.75 1.921875 -1.8125 C 2.003906 -1.875 2.046875 -1.960938 2.046875 -2.078125 C 2.046875 -2.179688 2.003906 -2.265625 1.921875 -2.328125 C 1.847656 -2.390625 1.742188 -2.421875 1.609375 -2.421875 L 0.9375 -2.421875 Z M 0.9375 -0.53125 L 1.640625 -0.53125 C 1.785156 -0.53125 1.898438 -0.5625 1.984375 -0.625 C 2.066406 -0.6875 2.109375 -0.773438 2.109375 -0.890625 C 2.109375 -1.015625 2.066406 -1.109375 1.984375 -1.171875 C 1.898438 -1.234375 1.785156 -1.265625 1.640625 -1.265625 L 0.9375 -1.265625 Z M 0.9375 -0.53125 "/></g></g></g><g fill="#000000" fill-opacity="1"><g transform="translate(71.503727, 31.998837)"><g><path d="M 0.015625 0 L 1.078125 -2.9375 L 1.953125 -2.9375 L 3 0 L 2.265625 0 L 2.078125 -0.578125 L 0.953125 -0.578125 L 0.765625 0 Z M 1.078125 -1.078125 L 1.953125 -1.078125 L 1.515625 -2.375 Z M 1.078125 -1.078125 "/></g></g></g><g fill="#000000" fill-opacity="1"><g transform="translate(74.533468, 31.998837)"><g><path d="M 0.234375 0 L 0.234375 -2.9375 L 0.9375 -2.9375 L 0.9375 -0.609375 L 2.15625 -0.609375 L 2.15625 0 Z M 0.234375 0 "/></g></g></g><g fill="#000000" fill-opacity="1"><g transform="translate(76.750051, 31.998837)"><g><path d="M 0.234375 0 L 0.234375 -2.9375 L 2.296875 -2.9375 L 2.296875 -2.375 L 0.90625 -2.375 L 0.90625 -1.75 L 2.125 -1.75 L 2.125 -1.25 L 0.90625 -1.25 L 0.90625 -0.5625 L 2.328125 -0.5625 L 2.328125 0 Z M 0.234375 0 "/></g></g></g><g fill="#000000" fill-opacity="1"><g transform="translate(86.437954, 31.998826)"><g><path d="M 0.234375 0 L 0.234375 -2.9375 L 2.296875 -2.9375 L 2.296875 -2.375 L 0.90625 -2.375 L 0.90625 -1.75 L 2.125 -1.75 L 2.125 -1.25 L 0.90625 -1.25 L 0.90625 -0.5625 L 2.328125 -0.5625 L 2.328125 0 Z M 0.234375 0 "/></g></g></g><g fill="#000000" fill-opacity="1"><g transform="translate(88.865041, 31.998826)"><g><path d="M 0.015625 0 L 1.015625 -1.53125 L 0.046875 -2.9375 L 0.859375 -2.9375 L 1.5 -1.953125 L 2.15625 -2.9375 L 2.984375 -2.9375 L 2 -1.53125 L 3.015625 0 L 2.1875 0 L 1.5 -1.0625 L 0.84375 0 Z M 0.015625 0 "/></g></g></g><g fill="#000000" fill-opacity="1"><g transform="translate(91.898902, 31.998826)"><g><path d="M 0.9375 0 L 0.9375 -2.328125 L 0.0625 -2.328125 L 0.0625 -2.9375 L 2.53125 -2.9375 L 2.53125 -2.328125 L 1.640625 -2.328125 L 1.640625 0 Z M 0.9375 0 "/></g></g></g><g fill="#000000" fill-opacity="1"><g transform="translate(94.486968, 31.998826)"><g><path d="M 2.421875 0.078125 C 2.273438 0.078125 2.148438 0.0351562 2.046875 -0.046875 C 1.953125 -0.128906 1.882812 -0.238281 1.84375 -0.375 L 1.71875 -0.796875 C 1.695312 -0.890625 1.65625 -0.960938 1.59375 -1.015625 C 1.539062 -1.078125 1.46875 -1.109375 1.375 -1.109375 L 0.9375 -1.109375 L 0.9375 0 L 0.234375 0 L 0.234375 -2.9375 L 1.6875 -2.9375 C 2.039062 -2.9375 2.316406 -2.851562 2.515625 -2.6875 C 2.710938 -2.53125 2.8125 -2.3125 2.8125 -2.03125 C 2.8125 -1.832031 2.75 -1.660156 2.625 -1.515625 C 2.507812 -1.378906 2.34375 -1.285156 2.125 -1.234375 C 2.195312 -1.203125 2.253906 -1.15625 2.296875 -1.09375 C 2.347656 -1.039062 2.382812 -0.96875 2.40625 -0.875 L 2.5 -0.53125 C 2.507812 -0.488281 2.523438 -0.453125 2.546875 -0.421875 C 2.578125 -0.390625 2.617188 -0.375 2.671875 -0.375 C 2.703125 -0.375 2.734375 -0.382812 2.765625 -0.40625 C 2.804688 -0.4375 2.84375 -0.46875 2.875 -0.5 L 3.015625 -0.171875 C 2.941406 -0.0976562 2.851562 -0.0390625 2.75 0 C 2.644531 0.0507812 2.535156 0.078125 2.421875 0.078125 Z M 0.9375 -1.59375 L 1.59375 -1.59375 C 1.75 -1.59375 1.875 -1.628906 1.96875 -1.703125 C 2.0625 -1.773438 2.109375 -1.875 2.109375 -2 C 2.109375 -2.125 2.0625 -2.222656 1.96875 -2.296875 C 1.875 -2.378906 1.75 -2.421875 1.59375 -2.421875 L 0.9375 -2.421875 Z M 0.9375 -1.59375 "/></g></g></g><g fill="#000000" fill-opacity="1"><g transform="translate(97.570356, 31.998826)"><g><path d="M 0.015625 0 L 1.078125 -2.9375 L 1.953125 -2.9375 L 3 0 L 2.265625 0 L 2.078125 -0.578125 L 0.953125 -0.578125 L 0.765625 0 Z M 1.078125 -1.078125 L 1.953125 -1.078125 L 1.515625 -2.375 Z M 1.078125 -1.078125 "/></g></g></g><g fill="#000000" fill-opacity="1"><g transform="translate(101.51231, 31.998826)"><g><path d="M 0.234375 0 L 0.234375 -2.9375 L 1.4375 -2.9375 C 1.945312 -2.9375 2.335938 -2.804688 2.609375 -2.546875 C 2.890625 -2.296875 3.03125 -1.9375 3.03125 -1.46875 C 3.03125 -1 2.890625 -0.632812 2.609375 -0.375 C 2.335938 -0.125 1.945312 0 1.4375 0 Z M 0.90625 -0.5625 L 1.4375 -0.5625 C 1.71875 -0.5625 1.929688 -0.640625 2.078125 -0.796875 C 2.234375 -0.953125 2.3125 -1.175781 2.3125 -1.46875 C 2.3125 -1.757812 2.234375 -1.984375 2.078125 -2.140625 C 1.929688 -2.296875 1.71875 -2.375 1.4375 -2.375 L 0.90625 -2.375 Z M 0.90625 -0.5625 "/></g></g></g><g fill="#000000" fill-opacity="1"><g transform="translate(104.661746, 31.998826)"><g><path d="M 0.234375 0 L 0.234375 -2.9375 L 0.9375 -2.9375 L 0.9375 0 Z M 0.234375 0 "/></g></g></g><g fill="#000000" fill-opacity="1"><g transform="translate(105.82163, 31.998826)"><g><path d="M 1.578125 0.09375 C 1.285156 0.09375 1.03125 0.03125 0.8125 -0.09375 C 0.59375 -0.226562 0.421875 -0.410156 0.296875 -0.640625 C 0.179688 -0.878906 0.125 -1.15625 0.125 -1.46875 C 0.125 -1.78125 0.1875 -2.050781 0.3125 -2.28125 C 0.445312 -2.519531 0.628906 -2.707031 0.859375 -2.84375 C 1.097656 -2.976562 1.367188 -3.046875 1.671875 -3.046875 C 1.890625 -3.046875 2.085938 -3.003906 2.265625 -2.921875 C 2.453125 -2.835938 2.609375 -2.722656 2.734375 -2.578125 C 2.859375 -2.429688 2.945312 -2.265625 3 -2.078125 L 2.34375 -1.9375 C 2.300781 -2.082031 2.21875 -2.203125 2.09375 -2.296875 C 1.96875 -2.390625 1.820312 -2.4375 1.65625 -2.4375 C 1.5 -2.4375 1.359375 -2.394531 1.234375 -2.3125 C 1.109375 -2.226562 1.007812 -2.113281 0.9375 -1.96875 C 0.863281 -1.820312 0.828125 -1.65625 0.828125 -1.46875 C 0.828125 -1.28125 0.863281 -1.109375 0.9375 -0.953125 C 1.019531 -0.804688 1.128906 -0.691406 1.265625 -0.609375 C 1.410156 -0.523438 1.578125 -0.484375 1.765625 -0.484375 C 1.921875 -0.484375 2.0625 -0.515625 2.1875 -0.578125 C 2.3125 -0.640625 2.410156 -0.726562 2.484375 -0.84375 C 2.554688 -0.957031 2.597656 -1.085938 2.609375 -1.234375 L 1.34375 -1.234375 L 1.34375 -1.671875 L 3.296875 -1.671875 L 3.296875 0 L 2.78125 0 L 2.703125 -0.5625 C 2.609375 -0.351562 2.457031 -0.191406 2.25 -0.078125 C 2.050781 0.0351562 1.828125 0.09375 1.578125 0.09375 Z M 1.578125 0.09375 "/></g></g></g><g fill="#000000" fill-opacity="1"><g transform="translate(109.094901, 31.998826)"><g><path d="M 0.9375 0 L 0.9375 -2.328125 L 0.0625 -2.328125 L 0.0625 -2.9375 L 2.53125 -2.9375 L 2.53125 -2.328125 L 1.640625 -2.328125 L 1.640625 0 Z M 0.9375 0 "/></g></g></g><g fill="#000000" fill-opacity="1"><g transform="translate(111.311476, 31.998826)"><g><path d="M 0.015625 0 L 1.078125 -2.9375 L 1.953125 -2.9375 L 3 0 L 2.265625 0 L 2.078125 -0.578125 L 0.953125 -0.578125 L 0.765625 0 Z M 1.078125 -1.078125 L 1.953125 -1.078125 L 1.515625 -2.375 Z M 1.078125 -1.078125 "/></g></g></g><g fill="#000000" fill-opacity="1"><g transform="translate(114.341207, 31.998826)"><g><path d="M 0.234375 0 L 0.234375 -2.9375 L 0.9375 -2.9375 L 0.9375 -0.609375 L 2.15625 -0.609375 L 2.15625 0 Z M 0.234375 0 "/></g></g></g><g fill="#000000" fill-opacity="1"><g transform="translate(116.557782, 31.998826)"><g><path d="M 0.234375 0 L 0.234375 -2.9375 L 2.296875 -2.9375 L 2.296875 -2.375 L 0.90625 -2.375 L 0.90625 -1.75 L 2.125 -1.75 L 2.125 -1.25 L 0.90625 -1.25 L 0.90625 -0.5625 L 2.328125 -0.5625 L 2.328125 0 Z M 0.234375 0 "/></g></g></g></svg>