<svg id="Calque_1" data-name="Calque 1" xmlns="http://www.w3.org/2000/svg" viewBox="0 0 1080 1080"><defs><style>.cls-10,.cls-11,.cls-9{fill:none}.cls-8{fill:#231f20}.cls-10,.cls-11,.cls-9{stroke:#1d1d1b;stroke-linecap:round;stroke-linejoin:round}.cls-9{stroke-width:0.04px}.cls-10{stroke-width:0.01px}.cls-11{stroke-width:0.02px}</style><clipPath id="clip-path"><rect x="60.34" y="152.46" width="959.31" height="775.08" style="fill:none"/></clipPath></defs><g style="clip-path:url(#clip-path)"><path d="M143.11,436.93l-46.19,47.3c-27.21,27.89-27.21,73.09,0,101a68.53,68.53,0,0,0,98.58,0L241.57,538c-50.13-8.53-89.75-49.3-98.46-101.11" style="fill:#b39822"/><path d="M166.12,407.49c0-59.26,46.92-107.31,104.78-107.31s104.78,48.05,104.78,107.31S328.76,514.81,270.9,514.81s-104.78-48-104.78-107.32" style="fill:#93c022"/><path d="M350.63,223.92s48.67-48.23,89.66,0L603.5,398.6s13.41,17.26,34.32,2.9c17.19-11.8,34-32,34-32s8.9,93.14,101.76,106.67c-33.68,35.72-50.16,48.64-50.16,48.64s-48.34,49.11-89.67,0L470.52,350.08s-12.94-16.43-34.33-2.89S402.06,381,402.06,381s-10-91.84-102.87-105.37c8.19-3.87,51.44-51.73,51.44-51.73" style="fill:#008d39"/><path d="M1003.13,172.25c0-10.92-9.19-19.78-20.52-19.78H906.32A20.49,20.49,0,0,0,893.27,157l-.13-.15-65.21,66.8c56.09.81,101.41,46.72,103.12,103.94l67.2-68.82,0-.05a18.94,18.94,0,0,0,4.93-12.88Z" style="fill:#05602d"/><path d="M909.78,346.6c-1.69-57.22-47-103.13-103.12-103.94-.5,0-1-.09-1.49-.09-57.86,0-104.78,48.05-104.78,107.31s46.92,107.33,104.78,107.33S910,409.16,910,349.88c0-1.11-.14-2.18-.17-3.28" style="fill:#be1823"/><path class="cls-8" d="M90,713.29q.14,6.45,2.79,9.59A9.13,9.13,0,0,0,100.1,726h3v3.3H99.7a14.6,14.6,0,0,1-3-.35,13.22,13.22,0,0,1-3.13-1.09,13,13,0,0,1-2.92-2.06,11.29,11.29,0,0,1-2.42-3.29,13.66,13.66,0,0,1-4.57,5.66,13.49,13.49,0,0,1-8,2.15A14.47,14.47,0,0,1,69.08,729a12.15,12.15,0,0,1-4.43-3.66A15.11,15.11,0,0,1,62.16,720a25.68,25.68,0,0,1-.77-6.32,23,23,0,0,1,.9-6.45A16,16,0,0,1,65,701.83a13.11,13.11,0,0,1,4.52-3.71,14,14,0,0,1,6.36-1.35,14.32,14.32,0,0,1,5.92,1.11,13,13,0,0,1,4.23,3.06v-3.56c.22,0,.37-.08.43-.08h.24a6.05,6.05,0,0,1,.94.11,2.69,2.69,0,0,1,1,.47,3.41,3.41,0,0,1,.88,1.07A4,4,0,0,1,90,700.8Zm-4.09.19a28.53,28.53,0,0,0-.41-4.73,12.69,12.69,0,0,0-1.51-4.31,8.61,8.61,0,0,0-3.1-3.13,9.73,9.73,0,0,0-5.07-1.19,9.49,9.49,0,0,0-4.94,1.19,9.19,9.19,0,0,0-3.16,3.13A13.84,13.84,0,0,0,66,708.75a22.78,22.78,0,0,0-.5,4.73,26.88,26.88,0,0,0,.43,4.81,13.23,13.23,0,0,0,1.59,4.35,9,9,0,0,0,3.11,3.19,9.37,9.37,0,0,0,5,1.24,9.73,9.73,0,0,0,5.16-1.24,9.54,9.54,0,0,0,3.13-3.19,12.93,12.93,0,0,0,1.53-4.35,28.83,28.83,0,0,0,.41-4.81M74.7,689.42a3.21,3.21,0,0,1-.84,2.22,2.74,2.74,0,0,1-4.11,0,3.16,3.16,0,0,1-.84-2.22,3.22,3.22,0,0,1,.84-2.23,2.76,2.76,0,0,1,4.11,0,3.27,3.27,0,0,1,.84,2.23m7.25,0a3.16,3.16,0,0,1-.84,2.22,2.72,2.72,0,0,1-4.1,0,3.16,3.16,0,0,1-.84-2.22,3.22,3.22,0,0,1,.84-2.23,2.74,2.74,0,0,1,4.1,0,3.22,3.22,0,0,1,.84,2.23"/><path class="cls-9" d="M90,713.29q.14,6.45,2.79,9.59A9.13,9.13,0,0,0,100.1,726h3v3.3H99.7a14.6,14.6,0,0,1-3-.35,13.22,13.22,0,0,1-3.13-1.09,13,13,0,0,1-2.92-2.06,11.29,11.29,0,0,1-2.42-3.29,13.66,13.66,0,0,1-4.57,5.66,13.49,13.49,0,0,1-8,2.15A14.47,14.47,0,0,1,69.08,729a12.15,12.15,0,0,1-4.43-3.66A15.11,15.11,0,0,1,62.16,720a25.68,25.68,0,0,1-.77-6.32,23,23,0,0,1,.9-6.45A16,16,0,0,1,65,701.83a13.11,13.11,0,0,1,4.52-3.71,14,14,0,0,1,6.36-1.35,14.32,14.32,0,0,1,5.92,1.11,13,13,0,0,1,4.23,3.06v-3.56c.22,0,.37-.08.43-.08h.24a6.05,6.05,0,0,1,.94.11,2.69,2.69,0,0,1,1,.47,3.41,3.41,0,0,1,.88,1.07A4,4,0,0,1,90,700.8Zm-4.09.19a28.53,28.53,0,0,0-.41-4.73,12.69,12.69,0,0,0-1.51-4.31,8.61,8.61,0,0,0-3.1-3.13,9.73,9.73,0,0,0-5.07-1.19,9.49,9.49,0,0,0-4.94,1.19,9.19,9.19,0,0,0-3.16,3.13A13.84,13.84,0,0,0,66,708.75a22.78,22.78,0,0,0-.5,4.73,26.88,26.88,0,0,0,.43,4.81,13.23,13.23,0,0,0,1.59,4.35,9,9,0,0,0,3.11,3.19,9.37,9.37,0,0,0,5,1.24,9.73,9.73,0,0,0,5.16-1.24,9.54,9.54,0,0,0,3.13-3.19,12.93,12.93,0,0,0,1.53-4.35A28.83,28.83,0,0,0,85.86,713.48ZM74.7,689.42a3.21,3.21,0,0,1-.84,2.22,2.74,2.74,0,0,1-4.11,0,3.16,3.16,0,0,1-.84-2.22,3.22,3.22,0,0,1,.84-2.23,2.76,2.76,0,0,1,4.11,0A3.27,3.27,0,0,1,74.7,689.42Zm7.25,0a3.16,3.16,0,0,1-.84,2.22,2.72,2.72,0,0,1-4.1,0,3.16,3.16,0,0,1-.84-2.22,3.22,3.22,0,0,1,.84-2.23,2.74,2.74,0,0,1,4.1,0A3.22,3.22,0,0,1,82,689.42Z"/><path class="cls-8" d="M101.86,729.33V726h3a9,9,0,0,0,7.5-3.4q2.66-3.39,2.65-10V697.37a4.26,4.26,0,0,1,.44-.07h.23a4.63,4.63,0,0,1,1,.12,2.58,2.58,0,0,1,1,.46,3.51,3.51,0,0,1,.87,1.07,3.87,3.87,0,0,1,.37,1.85v11.8q0,6.72,2.66,10.07A9,9,0,0,0,129,726h2.34v3.29H128.6a15.29,15.29,0,0,1-3.21-.37,12.43,12.43,0,0,1-6.23-3.51,10.72,10.72,0,0,1-2.24-3.46,12,12,0,0,1-5.22,5.73,14.19,14.19,0,0,1-6.49,1.61Zm14.31,7.88a3.21,3.21,0,0,1-.84,2.23,2.64,2.64,0,0,1-2,.93,2.67,2.67,0,0,1-2-.93,3.25,3.25,0,0,1-.84-2.23,3.21,3.21,0,0,1,.84-2.22,2.64,2.64,0,0,1,2-.93,2.61,2.61,0,0,1,2,.93,3.16,3.16,0,0,1,.84,2.22m7.26,0a3.25,3.25,0,0,1-.84,2.23,2.72,2.72,0,0,1-4.1,0,3.16,3.16,0,0,1-.84-2.23,3.12,3.12,0,0,1,.84-2.22,2.72,2.72,0,0,1,4.1,0,3.21,3.21,0,0,1,.84,2.22"/><path class="cls-9" d="M101.86,729.33V726h3a9,9,0,0,0,7.5-3.4q2.66-3.39,2.65-10V697.37a4.26,4.26,0,0,1,.44-.07h.23a4.63,4.63,0,0,1,1,.12,2.58,2.58,0,0,1,1,.46,3.51,3.51,0,0,1,.87,1.07,3.87,3.87,0,0,1,.37,1.85v11.8q0,6.72,2.66,10.07A9,9,0,0,0,129,726h2.34v3.29H128.6a15.29,15.29,0,0,1-3.21-.37,12.43,12.43,0,0,1-6.23-3.51,10.72,10.72,0,0,1-2.24-3.46,12,12,0,0,1-5.22,5.73,14.19,14.19,0,0,1-6.49,1.61Zm14.31,7.88a3.21,3.21,0,0,1-.84,2.23,2.64,2.64,0,0,1-2,.93,2.67,2.67,0,0,1-2-.93,3.25,3.25,0,0,1-.84-2.23,3.21,3.21,0,0,1,.84-2.22,2.64,2.64,0,0,1,2-.93,2.61,2.61,0,0,1,2,.93A3.16,3.16,0,0,1,116.17,737.21Zm7.26,0a3.25,3.25,0,0,1-.84,2.23,2.72,2.72,0,0,1-4.1,0,3.16,3.16,0,0,1-.84-2.23,3.12,3.12,0,0,1,.84-2.22,2.72,2.72,0,0,1,4.1,0A3.21,3.21,0,0,1,123.43,737.21Z"/><path class="cls-8" d="M157.85,713.48v6.66c0,2.71,0,5.76-.06,9.19H130.16v-3.28h23.59V713.48a21.55,21.55,0,0,0-.6-5.17,12.19,12.19,0,0,0-1.92-4.24,9.56,9.56,0,0,0-3.3-2.89,10.14,10.14,0,0,0-4.81-1.06,10.49,10.49,0,0,0-8.47,4.18h-.6a3,3,0,0,1-.49-.75,5.83,5.83,0,0,1-.41-1,2.86,2.86,0,0,1-.17-1,1.26,1.26,0,0,1,.27-.79,9.48,9.48,0,0,1,2.38-2.12,11.7,11.7,0,0,1,2.69-1.26,13.06,13.06,0,0,1,2.66-.59,12,12,0,0,1,2.28-.07c4.76.27,8.37,1.91,10.86,4.9s3.73,6.93,3.73,11.82"/><path class="cls-9" d="M157.85,713.48v6.66c0,2.71,0,5.76-.06,9.19H130.16v-3.28h23.59V713.48a21.55,21.55,0,0,0-.6-5.17,12.19,12.19,0,0,0-1.92-4.24,9.56,9.56,0,0,0-3.3-2.89,10.14,10.14,0,0,0-4.81-1.06,10.49,10.49,0,0,0-8.47,4.18h-.6a3,3,0,0,1-.49-.75,5.83,5.83,0,0,1-.41-1,2.86,2.86,0,0,1-.17-1,1.26,1.26,0,0,1,.27-.79,9.48,9.48,0,0,1,2.38-2.12,11.7,11.7,0,0,1,2.69-1.26,13.06,13.06,0,0,1,2.66-.59,12,12,0,0,1,2.28-.07c4.76.27,8.37,1.91,10.86,4.9S157.85,708.59,157.85,713.48Z"/><path class="cls-8" d="M175.6,680.71a2.46,2.46,0,0,1,.43-.07h.24a5.92,5.92,0,0,1,.94.1,2.91,2.91,0,0,1,1,.48,3.51,3.51,0,0,1,.87,1.07,4,4,0,0,1,.37,1.85v37a22.65,22.65,0,0,1-.14,2.48,7.87,7.87,0,0,1-.47,2l-.2.41H182a8.93,8.93,0,0,0,7.49-3.39q2.67-3.4,2.67-10V680.71a2.28,2.28,0,0,1,.44-.07h.22a6,6,0,0,1,.95.1,2.8,2.8,0,0,1,1,.48,3.39,3.39,0,0,1,.88,1.07,3.88,3.88,0,0,1,.36,1.85V712.6q0,6.72,2.66,10.07a9,9,0,0,0,7.49,3.36h1.69v3.3h-2.09a14.86,14.86,0,0,1-3.23-.38,12.45,12.45,0,0,1-6.21-3.5,10.74,10.74,0,0,1-2.25-3.46,12,12,0,0,1-5.21,5.72,14.23,14.23,0,0,1-6.49,1.62H170.82a14.52,14.52,0,0,1-4.63-.66,13.08,13.08,0,0,1-3.22-1.5,7.49,7.49,0,0,1-1.89-1.68,2.54,2.54,0,0,1-.61-1.17,2.15,2.15,0,0,1,.54-1.24,5.83,5.83,0,0,1,1-1,12,12,0,0,0,4,3.12,11.77,11.77,0,0,0,6.12.86,3.84,3.84,0,0,0,2.59-1c.55-.6.84-1.88.84-3.85Z"/><path class="cls-9" d="M175.6,680.71a2.46,2.46,0,0,1,.43-.07h.24a5.92,5.92,0,0,1,.94.1,2.91,2.91,0,0,1,1,.48,3.51,3.51,0,0,1,.87,1.07,4,4,0,0,1,.37,1.85v37a22.65,22.65,0,0,1-.14,2.48,7.87,7.87,0,0,1-.47,2l-.2.41H182a8.93,8.93,0,0,0,7.49-3.39q2.67-3.4,2.67-10V680.71a2.28,2.28,0,0,1,.44-.07h.22a6,6,0,0,1,.95.1,2.8,2.8,0,0,1,1,.48,3.39,3.39,0,0,1,.88,1.07,3.88,3.88,0,0,1,.36,1.85V712.6c0,4.48.9,7.84,2.66,10.07a9,9,0,0,0,7.49,3.36h1.69v3.3h-2.09a14.86,14.86,0,0,1-3.23-.38,12.45,12.45,0,0,1-6.21-3.5,10.74,10.74,0,0,1-2.25-3.46,12,12,0,0,1-5.21,5.72,14.23,14.23,0,0,1-6.49,1.62H170.82a14.52,14.52,0,0,1-4.63-.66,13.08,13.08,0,0,1-3.22-1.5,7.49,7.49,0,0,1-1.89-1.68,2.54,2.54,0,0,1-.61-1.17,2.15,2.15,0,0,1,.54-1.24,5.83,5.83,0,0,1,1-1,12,12,0,0,0,4,3.12,11.77,11.77,0,0,0,6.12.86,3.84,3.84,0,0,0,2.59-1c.55-.6.84-1.88.84-3.85Z"/><path class="cls-8" d="M235,701.83a19.1,19.1,0,0,1,2.38,5.11,20.62,20.62,0,0,1,.84,6,21.77,21.77,0,0,1-1.21,7.2,14.27,14.27,0,0,1-3.82,5.89h7.93v3.3H206.66V726h7.87a13.64,13.64,0,0,1-3.77-5.69,21.56,21.56,0,0,1-1.14-7.19,21.24,21.24,0,0,1,.9-6.15,15.73,15.73,0,0,1,2.72-5.24,13.89,13.89,0,0,1,4.54-3.64,14,14,0,0,1,6.35-1.35,14.4,14.4,0,0,1,6.46,1.32,11.57,11.57,0,0,1,4.37,3.74m-1.28,15.63a26.25,26.25,0,0,0,.4-4.52,24.26,24.26,0,0,0-.4-4.31,12.19,12.19,0,0,0-1.51-4.16,9,9,0,0,0-3.09-3.12,11,11,0,0,0-10,0,9.72,9.72,0,0,0-3.16,3.05,13.08,13.08,0,0,0-1.68,4.16,21,21,0,0,0-.51,4.42,24.27,24.27,0,0,0,.41,4.25,13.14,13.14,0,0,0,1.51,4.22,9.6,9.6,0,0,0,3.09,3.26,9.18,9.18,0,0,0,5.14,1.31,10.56,10.56,0,0,0,3.88-.7,8.94,8.94,0,0,0,2.91-1.85,9.27,9.27,0,0,0,1.95-2.7,13.22,13.22,0,0,0,1.08-3.27m-6.59-28a3.16,3.16,0,0,1-.84,2.22,2.72,2.72,0,0,1-4.1,0,3.13,3.13,0,0,1-.85-2.22,3.19,3.19,0,0,1,.85-2.23,2.74,2.74,0,0,1,4.1,0,3.22,3.22,0,0,1,.84,2.23"/><path class="cls-9" d="M235,701.83a19.1,19.1,0,0,1,2.38,5.11,20.62,20.62,0,0,1,.84,6,21.77,21.77,0,0,1-1.21,7.2,14.27,14.27,0,0,1-3.82,5.89h7.93v3.3H206.66V726h7.87a13.64,13.64,0,0,1-3.77-5.69,21.56,21.56,0,0,1-1.14-7.19,21.24,21.24,0,0,1,.9-6.15,15.73,15.73,0,0,1,2.72-5.24,13.89,13.89,0,0,1,4.54-3.64,14,14,0,0,1,6.35-1.35,14.4,14.4,0,0,1,6.46,1.32A11.57,11.57,0,0,1,235,701.83Zm-1.28,15.63a26.25,26.25,0,0,0,.4-4.52,24.26,24.26,0,0,0-.4-4.31,12.19,12.19,0,0,0-1.51-4.16,9,9,0,0,0-3.09-3.12,11,11,0,0,0-10,0,9.72,9.72,0,0,0-3.16,3.05,13.08,13.08,0,0,0-1.68,4.16,21,21,0,0,0-.51,4.42,24.27,24.27,0,0,0,.41,4.25,13.14,13.14,0,0,0,1.51,4.22,9.6,9.6,0,0,0,3.09,3.26,9.18,9.18,0,0,0,5.14,1.31,10.56,10.56,0,0,0,3.88-.7,8.94,8.94,0,0,0,2.91-1.85,9.27,9.27,0,0,0,1.95-2.7A13.22,13.22,0,0,0,233.68,717.46Zm-6.59-28a3.16,3.16,0,0,1-.84,2.22,2.72,2.72,0,0,1-4.1,0,3.13,3.13,0,0,1-.85-2.22,3.19,3.19,0,0,1,.85-2.23,2.74,2.74,0,0,1,4.1,0A3.22,3.22,0,0,1,227.09,689.42Z"/><path class="cls-8" d="M253,680.71a2.46,2.46,0,0,1,.45-.07h.23a5.8,5.8,0,0,1,.93.1,2.91,2.91,0,0,1,1,.48,3.51,3.51,0,0,1,.87,1.07,3.87,3.87,0,0,1,.37,1.85v28a23.2,23.2,0,0,1-1.34,8.5,14.93,14.93,0,0,1-3.37,5.28,11.3,11.3,0,0,1-4.4,2.67,14.78,14.78,0,0,1-4.53.76h-3.36V726h3a9,9,0,0,0,7.48-3.32c1.78-2.22,2.66-5.58,2.66-10.11Z"/><path class="cls-9" d="M253,680.71a2.46,2.46,0,0,1,.45-.07h.23a5.8,5.8,0,0,1,.93.1,2.91,2.91,0,0,1,1,.48,3.51,3.51,0,0,1,.87,1.07,3.87,3.87,0,0,1,.37,1.85v28a23.2,23.2,0,0,1-1.34,8.5,14.93,14.93,0,0,1-3.37,5.28,11.3,11.3,0,0,1-4.4,2.67,14.78,14.78,0,0,1-4.53.76h-3.36V726h3a9,9,0,0,0,7.48-3.32c1.78-2.22,2.66-5.58,2.66-10.11Z"/><path class="cls-8" d="M267.09,729.33H263.2V680.71a3.22,3.22,0,0,1,.43-.07h.23a5.92,5.92,0,0,1,.94.1,2.75,2.75,0,0,1,1.05.48,3.18,3.18,0,0,1,.86,1.06,3.93,3.93,0,0,1,.38,1.86Z"/><path class="cls-9" d="M267.09,729.33H263.2V680.71a3.22,3.22,0,0,1,.43-.07h.23a5.92,5.92,0,0,1,.94.1,2.75,2.75,0,0,1,1.05.48,3.18,3.18,0,0,1,.86,1.06,3.93,3.93,0,0,1,.38,1.86Z"/><path class="cls-8" d="M320.15,713.48a25.57,25.57,0,0,1-.77,6.35,15.65,15.65,0,0,1-2.49,5.38,12.48,12.48,0,0,1-4.44,3.74,16.35,16.35,0,0,1-13.17,0,12.27,12.27,0,0,1-4.44-3.66,15.29,15.29,0,0,1-2.49-5.31,25.68,25.68,0,0,1-.76-6.32,22.59,22.59,0,0,1,.9-6.45,16.11,16.11,0,0,1,2.72-5.41,13.22,13.22,0,0,1,4.55-3.71,13.9,13.9,0,0,1,6.34-1.35,14.28,14.28,0,0,1,6.52,1.35,11.89,11.89,0,0,1,4.34,3.71,16.53,16.53,0,0,1,2.42,5.35,25.05,25.05,0,0,1,.77,6.3m-4.1,0a27.49,27.49,0,0,0-.41-4.73,12.89,12.89,0,0,0-1.5-4.31,8.69,8.69,0,0,0-3.1-3.13,9.77,9.77,0,0,0-5.08-1.19,8.89,8.89,0,0,0-8.1,4.32,13.84,13.84,0,0,0-1.68,4.31,23.48,23.48,0,0,0-.5,4.73,26.9,26.9,0,0,0,.44,4.81,13.22,13.22,0,0,0,1.58,4.35,9.16,9.16,0,0,0,3.12,3.19,9.37,9.37,0,0,0,5,1.24,9.67,9.67,0,0,0,5.15-1.24,9.33,9.33,0,0,0,3.12-3.19,12.52,12.52,0,0,0,1.54-4.35,27.81,27.81,0,0,0,.41-4.81M304.9,689.42a3.17,3.17,0,0,1-.85,2.22,2.62,2.62,0,0,1-2.05.93,2.65,2.65,0,0,1-2.05-.93,3.16,3.16,0,0,1-.84-2.22,3.22,3.22,0,0,1,.84-2.23,2.67,2.67,0,0,1,2.05-.92,2.64,2.64,0,0,1,2.05.92,3.23,3.23,0,0,1,.85,2.23m7.25,0a3.21,3.21,0,0,1-.84,2.22,2.72,2.72,0,0,1-4.1,0,3.12,3.12,0,0,1-.84-2.22,3.18,3.18,0,0,1,.84-2.23,2.74,2.74,0,0,1,4.1,0,3.27,3.27,0,0,1,.84,2.23"/><path class="cls-9" d="M320.15,713.48a25.57,25.57,0,0,1-.77,6.35,15.65,15.65,0,0,1-2.49,5.38,12.48,12.48,0,0,1-4.44,3.74,16.35,16.35,0,0,1-13.17,0,12.27,12.27,0,0,1-4.44-3.66,15.29,15.29,0,0,1-2.49-5.31,25.68,25.68,0,0,1-.76-6.32,22.59,22.59,0,0,1,.9-6.45,16.11,16.11,0,0,1,2.72-5.41,13.22,13.22,0,0,1,4.55-3.71,13.9,13.9,0,0,1,6.34-1.35,14.28,14.28,0,0,1,6.52,1.35,11.89,11.89,0,0,1,4.34,3.71,16.53,16.53,0,0,1,2.42,5.35A25.05,25.05,0,0,1,320.15,713.48Zm-4.1,0a27.49,27.49,0,0,0-.41-4.73,12.89,12.89,0,0,0-1.5-4.31,8.69,8.69,0,0,0-3.1-3.13,9.77,9.77,0,0,0-5.08-1.19,8.89,8.89,0,0,0-8.1,4.32,13.84,13.84,0,0,0-1.68,4.31,23.48,23.48,0,0,0-.5,4.73,26.9,26.9,0,0,0,.44,4.81,13.22,13.22,0,0,0,1.58,4.35,9.16,9.16,0,0,0,3.12,3.19,9.37,9.37,0,0,0,5,1.24,9.67,9.67,0,0,0,5.15-1.24,9.24,9.24,0,0,0,3.12-3.19,12.52,12.52,0,0,0,1.54-4.35A27.81,27.81,0,0,0,316.05,713.48ZM304.9,689.42a3.17,3.17,0,0,1-.85,2.22,2.62,2.62,0,0,1-2.05.93,2.65,2.65,0,0,1-2.05-.93,3.16,3.16,0,0,1-.84-2.22,3.22,3.22,0,0,1,.84-2.23,2.67,2.67,0,0,1,2.05-.92,2.64,2.64,0,0,1,2.05.92A3.23,3.23,0,0,1,304.9,689.42Zm7.25,0a3.21,3.21,0,0,1-.84,2.22,2.72,2.72,0,0,1-4.1,0,3.12,3.12,0,0,1-.84-2.22,3.18,3.18,0,0,1,.84-2.23,2.74,2.74,0,0,1,4.1,0A3.27,3.27,0,0,1,312.15,689.42Z"/><path class="cls-8" d="M335.55,729.33v2.47a14.89,14.89,0,0,1-.71,4.35,12.94,12.94,0,0,1-2.26,4.25,12.09,12.09,0,0,1-4,3.23,12.39,12.39,0,0,1-5.85,1.25,12.74,12.74,0,0,1-5.92-1.29,3.19,3.19,0,0,1-1.31-1.34,5.62,5.62,0,0,1-.43-2.43l.6.28a16.94,16.94,0,0,0,7.06,1.57,8.13,8.13,0,0,0,4.06-1,8.81,8.81,0,0,0,2.87-2.56,11.78,11.78,0,0,0,1.71-3.78,17.88,17.88,0,0,0,.58-4.57V697.37a1,1,0,0,1,.36-.07h.44a3.12,3.12,0,0,1,1.41.28,2.12,2.12,0,0,1,.84.72,2.57,2.57,0,0,1,.41,1,6.06,6.06,0,0,1,.1,1Z"/><path class="cls-9" d="M335.55,729.33v2.47a14.89,14.89,0,0,1-.71,4.35,13.1,13.1,0,0,1-2.25,4.25,12.23,12.23,0,0,1-4,3.23,12.39,12.39,0,0,1-5.85,1.25,12.74,12.74,0,0,1-5.92-1.29,3.19,3.19,0,0,1-1.31-1.34,5.62,5.62,0,0,1-.43-2.43l.6.28a16.94,16.94,0,0,0,7.06,1.57,8.13,8.13,0,0,0,4.06-1,8.73,8.73,0,0,0,2.87-2.57,11.63,11.63,0,0,0,1.71-3.77,17.88,17.88,0,0,0,.58-4.57V697.37a1,1,0,0,1,.36-.07h.44a3.12,3.12,0,0,1,1.41.28,2.12,2.12,0,0,1,.84.72,2.57,2.57,0,0,1,.41,1,6.06,6.06,0,0,1,.1,1Z"/><path class="cls-8" d="M342.81,680.71a2.39,2.39,0,0,1,.44-.07h.23a5.92,5.92,0,0,1,.94.1,3,3,0,0,1,1.05.48,3.83,3.83,0,0,1,.87,1.07,4,4,0,0,1,.36,1.85V712.6c0,4.53.89,7.89,2.66,10.11a9.08,9.08,0,0,0,7.5,3.32h3v3.3h-3.37a14.78,14.78,0,0,1-4.53-.76,11.26,11.26,0,0,1-4.41-2.67,14.91,14.91,0,0,1-3.36-5.28,23,23,0,0,1-1.34-8.5Z"/><path class="cls-9" d="M342.81,680.71a2.39,2.39,0,0,1,.44-.07h.23a5.92,5.92,0,0,1,.94.1,3,3,0,0,1,1.05.48,3.83,3.83,0,0,1,.87,1.07,4,4,0,0,1,.36,1.85V712.6c0,4.53.89,7.89,2.66,10.11a9.08,9.08,0,0,0,7.5,3.32h3v3.3h-3.37a14.78,14.78,0,0,1-4.53-.76,11.26,11.26,0,0,1-4.41-2.67,14.91,14.91,0,0,1-3.36-5.28,23,23,0,0,1-1.34-8.5Z"/><path class="cls-8" d="M406.73,724c-.09.29-.17.54-.26.77s-.2.47-.34.75a6.31,6.31,0,0,1-1.55,2,8.26,8.26,0,0,1-2.14,1.35,13,13,0,0,1-2.56.75,15.11,15.11,0,0,1-2.62.24,18.59,18.59,0,0,1-3.36-.28,12.48,12.48,0,0,1-2.76-.82,13.11,13.11,0,0,1-2.42-1.37,17.68,17.68,0,0,1-2.29-2,11.4,11.4,0,0,1-3.59,3,12,12,0,0,1-5.28,1h-19V726h4.58V700.12a2.33,2.33,0,0,1,.43-.07h.24a5,5,0,0,1,.94.1,2.57,2.57,0,0,1,1,.48,3.09,3.09,0,0,1,.88,1.07,4,4,0,0,1,.36,1.85V726h9a13,13,0,0,0,3.59-.44,5.3,5.3,0,0,0,2.5-1.55,6.77,6.77,0,0,0,1.41-2.91,20.34,20.34,0,0,0,.43-4.63V698.75a2.39,2.39,0,0,1,.44-.07h.24a3.65,3.65,0,0,1,.93.11,2.51,2.51,0,0,1,1.05.46,3.14,3.14,0,0,1,.87,1.07,3.89,3.89,0,0,1,.38,1.85v14.61c0,.91,0,1.84-.07,2.77a13.47,13.47,0,0,1-.48,2.92,14.85,14.85,0,0,0,3.74,2.71,10,10,0,0,0,4.67,1.13,11.26,11.26,0,0,0,3.85-.55,5.09,5.09,0,0,0,2.43-1.72,7.08,7.08,0,0,0,1.28-2.94,21.25,21.25,0,0,0,.37-4.32v-19.4c.22,0,.37-.08.44-.08h.23a6.05,6.05,0,0,1,.94.11,2.62,2.62,0,0,1,1,.47,3.43,3.43,0,0,1,.89,1.07,4.13,4.13,0,0,1,.36,1.85v11.8q0,6.58,2.63,10.07a9,9,0,0,0,7.53,3.36h1.67v3.3h-2.08a16.34,16.34,0,0,1-4.7-.76,12.14,12.14,0,0,1-4.44-2.81,10.61,10.61,0,0,1-.78-.86c-.24-.29-.47-.6-.71-.93m-21.44-34.55a3.16,3.16,0,0,1-.84,2.22,2.72,2.72,0,0,1-4.1,0,3.22,3.22,0,0,1-.85-2.22,3.28,3.28,0,0,1,.85-2.23,2.74,2.74,0,0,1,4.1,0,3.22,3.22,0,0,1,.84,2.23m3.56-6.86a3.15,3.15,0,0,1-.84,2.22,2.62,2.62,0,0,1-2,.93,2.66,2.66,0,0,1-2.06-.93,3.15,3.15,0,0,1-.84-2.22,3.22,3.22,0,0,1,.84-2.23,2.71,2.71,0,0,1,2.06-.92,2.67,2.67,0,0,1,2,.92,3.22,3.22,0,0,1,.84,2.23m3.7,6.86a3.13,3.13,0,0,1-.85,2.22,2.71,2.71,0,0,1-4.09,0,3.16,3.16,0,0,1-.84-2.22,3.22,3.22,0,0,1,.84-2.23,2.73,2.73,0,0,1,4.09,0,3.19,3.19,0,0,1,.85,2.23"/><path class="cls-9" d="M406.73,724c-.09.29-.17.54-.26.77s-.2.47-.34.75a6.31,6.31,0,0,1-1.55,2,8.26,8.26,0,0,1-2.14,1.35,13,13,0,0,1-2.56.75,15.11,15.11,0,0,1-2.62.24,18.59,18.59,0,0,1-3.36-.28,12.48,12.48,0,0,1-2.76-.82,13.11,13.11,0,0,1-2.42-1.37,17.68,17.68,0,0,1-2.29-2,11.4,11.4,0,0,1-3.59,3,12,12,0,0,1-5.28,1h-19V726h4.58V700.12a2.33,2.33,0,0,1,.43-.07h.24a5,5,0,0,1,.94.1,2.57,2.57,0,0,1,1,.48,3.09,3.09,0,0,1,.88,1.07,4,4,0,0,1,.36,1.85V726h9a13,13,0,0,0,3.59-.44,5.3,5.3,0,0,0,2.5-1.55,6.77,6.77,0,0,0,1.41-2.91,20.34,20.34,0,0,0,.43-4.63V698.75a2.39,2.39,0,0,1,.44-.07h.24a3.65,3.65,0,0,1,.93.11,2.51,2.51,0,0,1,1.05.46,3.14,3.14,0,0,1,.87,1.07,3.89,3.89,0,0,1,.38,1.85v14.61c0,.91,0,1.84-.07,2.77a13.47,13.47,0,0,1-.48,2.92,14.85,14.85,0,0,0,3.74,2.71,10,10,0,0,0,4.67,1.13,11.26,11.26,0,0,0,3.85-.55,5.09,5.09,0,0,0,2.43-1.72,7.08,7.08,0,0,0,1.28-2.94,21.25,21.25,0,0,0,.37-4.32v-19.4c.22,0,.37-.08.44-.08h.23a6.05,6.05,0,0,1,.94.11,2.62,2.62,0,0,1,1,.47,3.43,3.43,0,0,1,.89,1.07,4.13,4.13,0,0,1,.36,1.85v11.8q0,6.58,2.63,10.07a9,9,0,0,0,7.53,3.36h1.67v3.3h-2.08a16.4,16.4,0,0,1-4.7-.76,12.14,12.14,0,0,1-4.44-2.81,10.61,10.61,0,0,1-.78-.86C407.2,724.61,407,724.3,406.73,724Zm-21.44-34.55a3.16,3.16,0,0,1-.84,2.22,2.72,2.72,0,0,1-4.1,0,3.22,3.22,0,0,1-.85-2.22,3.28,3.28,0,0,1,.85-2.23,2.74,2.74,0,0,1,4.1,0A3.22,3.22,0,0,1,385.29,689.42Zm3.56-6.86a3.15,3.15,0,0,1-.84,2.22,2.62,2.62,0,0,1-2,.93,2.66,2.66,0,0,1-2.06-.93,3.15,3.15,0,0,1-.84-2.22,3.22,3.22,0,0,1,.84-2.23,2.71,2.71,0,0,1,2.06-.92,2.67,2.67,0,0,1,2,.92A3.22,3.22,0,0,1,388.85,682.56Zm3.7,6.86a3.13,3.13,0,0,1-.85,2.22,2.71,2.71,0,0,1-4.09,0,3.16,3.16,0,0,1-.84-2.22,3.22,3.22,0,0,1,.84-2.23,2.73,2.73,0,0,1,4.09,0A3.19,3.19,0,0,1,392.55,689.42Z"/><path class="cls-8" d="M418.23,729.33V726h2.95a9,9,0,0,0,7.5-3.39q2.67-3.39,2.66-10V697.38c.22,0,.36-.08.43-.08H432a5.67,5.67,0,0,1,.94.11,2.64,2.64,0,0,1,1.06.47,3.39,3.39,0,0,1,.87,1.07,4,4,0,0,1,.37,1.85v11.8q0,6.72,2.66,10.07a9,9,0,0,0,7.49,3.36h2.35v3.3H445a15,15,0,0,1-3.24-.38,12.33,12.33,0,0,1-3.26-1.23,12.66,12.66,0,0,1-2.95-2.27,10.68,10.68,0,0,1-2.25-3.46,12,12,0,0,1-5.21,5.73,14.27,14.27,0,0,1-6.48,1.61Zm14.26-39.91a3.17,3.17,0,0,1-.85,2.22,2.72,2.72,0,0,1-4.1,0,3.16,3.16,0,0,1-.84-2.22,3.22,3.22,0,0,1,.84-2.23,2.74,2.74,0,0,1,4.1,0,3.23,3.23,0,0,1,.85,2.23m7.25,0a3.21,3.21,0,0,1-.84,2.22,2.64,2.64,0,0,1-2,.93,2.67,2.67,0,0,1-2.06-.93,3.25,3.25,0,0,1-.83-2.22,3.31,3.31,0,0,1,.83-2.23,2.69,2.69,0,0,1,2.06-.92,2.66,2.66,0,0,1,2,.92,3.27,3.27,0,0,1,.84,2.23"/><path class="cls-9" d="M418.23,729.33V726h2.95a9,9,0,0,0,7.5-3.39q2.67-3.39,2.66-10V697.38c.22,0,.37-.08.43-.08H432a5.67,5.67,0,0,1,.94.11,2.64,2.64,0,0,1,1.06.47,3.39,3.39,0,0,1,.87,1.07,3.87,3.87,0,0,1,.37,1.85v11.8q0,6.72,2.66,10.07a9,9,0,0,0,7.49,3.36h2.35v3.3H445a15,15,0,0,1-3.24-.38,12.33,12.33,0,0,1-3.26-1.23,12.66,12.66,0,0,1-2.95-2.27,10.68,10.68,0,0,1-2.25-3.46,12,12,0,0,1-5.21,5.73,14.27,14.27,0,0,1-6.48,1.61Zm14.26-39.91a3.17,3.17,0,0,1-.85,2.22,2.72,2.72,0,0,1-4.1,0,3.16,3.16,0,0,1-.84-2.22,3.22,3.22,0,0,1,.84-2.23,2.74,2.74,0,0,1,4.1,0A3.23,3.23,0,0,1,432.49,689.42Zm7.25,0a3.21,3.21,0,0,1-.84,2.22,2.64,2.64,0,0,1-2,.93,2.67,2.67,0,0,1-2.06-.93,3.25,3.25,0,0,1-.83-2.22,3.31,3.31,0,0,1,.83-2.23,2.69,2.69,0,0,1,2.06-.92,2.66,2.66,0,0,1,2,.92A3.27,3.27,0,0,1,439.74,689.42Z"/><path class="cls-8" d="M450.83,700.11a2.24,2.24,0,0,1,.45-.06h.23a4.94,4.94,0,0,1,.94.1,2.71,2.71,0,0,1,1,.48,3.32,3.32,0,0,1,.88,1.07,4,4,0,0,1,.36,1.84V726h9a12.6,12.6,0,0,0,3.59-.45,5.15,5.15,0,0,0,2.5-1.55,6.61,6.61,0,0,0,1.41-2.91,20.4,20.4,0,0,0,.43-4.63V698.74l.44-.06h.24a4.31,4.31,0,0,1,.94.11,2.49,2.49,0,0,1,1,.46,3.14,3.14,0,0,1,.88,1.07,3.89,3.89,0,0,1,.38,1.85v14.61c0,.91,0,1.84-.08,2.78a14,14,0,0,1-.46,2.91,14.19,14.19,0,0,0,3.73,2.7,9.92,9.92,0,0,0,4.66,1.15,11.32,11.32,0,0,0,3.87-.56,5.23,5.23,0,0,0,2.43-1.72A7,7,0,0,0,491,721.1a21.33,21.33,0,0,0,.36-4.32V697.37c.23,0,.38-.07.45-.07H492a5.13,5.13,0,0,1,.95.11,2.65,2.65,0,0,1,1,.47,3.39,3.39,0,0,1,.88,1.07,3.89,3.89,0,0,1,.37,1.86v17.54c0,.56,0,1.08-.07,1.58-.09.91-.23,1.84-.4,2.78a9,9,0,0,1-1,2.77,6.15,6.15,0,0,1-1.55,2.06,8,8,0,0,1-2.15,1.35,12.72,12.72,0,0,1-2.55.75,15.92,15.92,0,0,1-2.62.23,18.82,18.82,0,0,1-3.36-.27,12.12,12.12,0,0,1-2.76-.82,13.44,13.44,0,0,1-2.42-1.37,17,17,0,0,1-2.29-2,11.57,11.57,0,0,1-3.59,3,12,12,0,0,1-5.28,1h-19V726h4.56Z"/><path class="cls-9" d="M450.83,700.11a2.24,2.24,0,0,1,.45-.06h.23a4.94,4.94,0,0,1,.94.1,2.71,2.71,0,0,1,1,.48,3.32,3.32,0,0,1,.88,1.07,4,4,0,0,1,.36,1.84V726h9a12.6,12.6,0,0,0,3.59-.45,5.15,5.15,0,0,0,2.5-1.55,6.61,6.61,0,0,0,1.41-2.91,20.4,20.4,0,0,0,.43-4.63V698.74l.44-.06h.24a4.31,4.31,0,0,1,.94.11,2.49,2.49,0,0,1,1,.46,3.14,3.14,0,0,1,.88,1.07,3.89,3.89,0,0,1,.38,1.85v14.61c0,.91,0,1.84-.08,2.78a14,14,0,0,1-.46,2.91,14.19,14.19,0,0,0,3.73,2.7,9.92,9.92,0,0,0,4.66,1.15,11.32,11.32,0,0,0,3.87-.56,5.18,5.18,0,0,0,2.43-1.72A7,7,0,0,0,491,721.1a21.33,21.33,0,0,0,.36-4.32V697.37c.23,0,.38-.07.45-.07H492a5.13,5.13,0,0,1,.95.11,2.65,2.65,0,0,1,1,.47,3.39,3.39,0,0,1,.88,1.07,3.89,3.89,0,0,1,.37,1.86v17.54c0,.56,0,1.08-.07,1.58-.09.91-.23,1.84-.4,2.78a9,9,0,0,1-1,2.77,6.15,6.15,0,0,1-1.55,2.06,8,8,0,0,1-2.15,1.35,12.72,12.72,0,0,1-2.55.75,15.92,15.92,0,0,1-2.62.23,18.82,18.82,0,0,1-3.36-.27,12.12,12.12,0,0,1-2.76-.82,13.44,13.44,0,0,1-2.42-1.37,17,17,0,0,1-2.29-2,11.57,11.57,0,0,1-3.59,3,11.94,11.94,0,0,1-5.28,1h-19V726h4.56Z"/><path class="cls-8" d="M513,680.71a2.46,2.46,0,0,1,.43-.07h.25a5.92,5.92,0,0,1,.93.1,2.87,2.87,0,0,1,1,.48,3.18,3.18,0,0,1,.88,1.07,3.88,3.88,0,0,1,.37,1.84v37a20.23,20.23,0,0,1-.14,2.47,7.92,7.92,0,0,1-.48,2l-.19.4h3.29a9,9,0,0,0,7.5-3.39q2.65-3.4,2.66-10V680.71a2.33,2.33,0,0,1,.43-.07h.23a5.91,5.91,0,0,1,.95.1,2.8,2.8,0,0,1,1,.48,3.18,3.18,0,0,1,.88,1.07,3.88,3.88,0,0,1,.37,1.84V712.6c0,4.47.87,7.85,2.65,10.07a9,9,0,0,0,7.5,3.36h1.68v3.3h-2.1A14.84,14.84,0,0,1,540,729a12.38,12.38,0,0,1-3.25-1.24,11.83,11.83,0,0,1-3-2.26,11,11,0,0,1-2.25-3.46,12,12,0,0,1-5.21,5.72,14.14,14.14,0,0,1-6.49,1.62H508.24a14.52,14.52,0,0,1-4.63-.66,13,13,0,0,1-3.23-1.5,7.86,7.86,0,0,1-1.89-1.68,2.6,2.6,0,0,1-.6-1.17,2.16,2.16,0,0,1,.54-1.23,5.21,5.21,0,0,1,1-1,12.29,12.29,0,0,0,4,3.12,11.88,11.88,0,0,0,6.12.85,3.77,3.77,0,0,0,2.59-1q.84-.88.84-3.84Zm-7.8,63v-.2a2.43,2.43,0,0,1,.3-1.17,1.39,1.39,0,0,1,1.31-.54h2.29v-1.44a6.56,6.56,0,0,1,1.58-4.6,5.38,5.38,0,0,1,4.14-1.71,5.2,5.2,0,0,1,3.56,1.57l.13.14c-.68.64-1.21,1-1.61.93a5.08,5.08,0,0,1-1.35-.31l-.57-.21a2.26,2.26,0,0,0-.57-.06,2.83,2.83,0,0,0-2.28,1,3.94,3.94,0,0,0-.88,2.68v2h7.93v1.91Z"/><path class="cls-9" d="M513,680.71a2.46,2.46,0,0,1,.43-.07h.25a5.92,5.92,0,0,1,.93.1,2.87,2.87,0,0,1,1,.48,3.18,3.18,0,0,1,.88,1.07,3.88,3.88,0,0,1,.37,1.84v37a20.23,20.23,0,0,1-.14,2.47,7.92,7.92,0,0,1-.48,2l-.19.4h3.29a9,9,0,0,0,7.5-3.39q2.65-3.4,2.66-10V680.71a2.33,2.33,0,0,1,.43-.07h.23a5.91,5.91,0,0,1,.95.1,2.8,2.8,0,0,1,1,.48,3.18,3.18,0,0,1,.88,1.07,3.88,3.88,0,0,1,.37,1.84V712.6c0,4.47.87,7.85,2.65,10.07a9,9,0,0,0,7.5,3.36h1.68v3.3h-2.1A14.84,14.84,0,0,1,540,729a12.38,12.38,0,0,1-3.25-1.24,11.83,11.83,0,0,1-3-2.26,11,11,0,0,1-2.25-3.46,12,12,0,0,1-5.21,5.72,14.14,14.14,0,0,1-6.49,1.62H508.24a14.52,14.52,0,0,1-4.63-.66,13,13,0,0,1-3.23-1.5,7.86,7.86,0,0,1-1.89-1.68,2.6,2.6,0,0,1-.6-1.17,2.16,2.16,0,0,1,.54-1.23,5.21,5.21,0,0,1,1-1,12.29,12.29,0,0,0,4,3.12,11.88,11.88,0,0,0,6.12.85,3.77,3.77,0,0,0,2.59-1q.84-.88.84-3.84Zm-7.8,63v-.2a2.43,2.43,0,0,1,.3-1.17,1.39,1.39,0,0,1,1.31-.54h2.29v-1.44a6.56,6.56,0,0,1,1.58-4.6,5.38,5.38,0,0,1,4.14-1.71,5.2,5.2,0,0,1,3.56,1.57l.13.14c-.68.64-1.21,1-1.61.93a5.08,5.08,0,0,1-1.35-.31l-.57-.21a2.26,2.26,0,0,0-.57-.06,2.83,2.83,0,0,0-2.28,1,3.94,3.94,0,0,0-.88,2.68v2h7.93v1.91Z"/><path class="cls-8" d="M557.19,680.71a2.41,2.41,0,0,1,.42-.07h.24a5.91,5.91,0,0,1,.95.1,2.8,2.8,0,0,1,1,.48,3.53,3.53,0,0,1,.88,1.07,4,4,0,0,1,.37,1.85v28a23,23,0,0,1-1.36,8.5,14.76,14.76,0,0,1-3.35,5.28,11.26,11.26,0,0,1-4.41,2.67,14.84,14.84,0,0,1-4.54.76h-3.36V726h3a9.08,9.08,0,0,0,7.5-3.32c1.77-2.22,2.66-5.58,2.66-10.11Z"/><path class="cls-9" d="M557.19,680.71a2.41,2.41,0,0,1,.42-.07h.24a5.91,5.91,0,0,1,.95.1,2.8,2.8,0,0,1,1,.48,3.53,3.53,0,0,1,.88,1.07,4,4,0,0,1,.37,1.85v28a23,23,0,0,1-1.36,8.5,14.76,14.76,0,0,1-3.35,5.28,11.26,11.26,0,0,1-4.41,2.67,14.84,14.84,0,0,1-4.54.76h-3.36V726h3a9.08,9.08,0,0,0,7.5-3.32c1.77-2.22,2.66-5.58,2.66-10.11Z"/><path class="cls-8" d="M584.91,712.8a3.5,3.5,0,0,1,.43-.07h.23a5,5,0,0,1,.94.11,2.73,2.73,0,0,1,1,.47,3.37,3.37,0,0,1,.87,1.07,4,4,0,0,1,.37,1.85v4.66c0,4.53.89,7.91,2.65,10.11a9,9,0,0,0,7.5,3.33h13.18a9.59,9.59,0,0,0,4.83-1.1,8.72,8.72,0,0,0,3.14-3,12.9,12.9,0,0,0,1.68-4.28,25.6,25.6,0,0,0,.5-5.11v-4.32h-19.7v-3.29a22.57,22.57,0,0,1,.81-6.07,14.22,14.22,0,0,1,2.52-5.11,12.25,12.25,0,0,1,4.37-3.49,14.11,14.11,0,0,1,6.35-1.31H625c4.39,0,7.83,1.43,10.31,4.26s3.73,6.81,3.73,11.93a19.42,19.42,0,0,0,.55,4.62,12,12,0,0,0,1.73,4,8.86,8.86,0,0,0,3.17,2.84,9.7,9.7,0,0,0,4.71,1.07h2v3.29h-2.56a12.74,12.74,0,0,1-6.12-1.38,12.19,12.19,0,0,1-4.2-3.63,16.23,16.23,0,0,1-2.45-5.11,20.78,20.78,0,0,1-.8-5.72,24.79,24.79,0,0,0-.44-4.63,11.7,11.7,0,0,0-1.61-4.11,9.16,9.16,0,0,0-3.13-3,9.9,9.9,0,0,0-5-1.12h-8.06a9.66,9.66,0,0,0-5,1.16,9.12,9.12,0,0,0-3.09,3,12.09,12.09,0,0,0-1.58,4.08,22.6,22.6,0,0,0-.44,4.35h19.5v7.14a23.14,23.14,0,0,1-1.32,8.46,14.84,14.84,0,0,1-3.31,5.28,11.31,11.31,0,0,1-4.37,2.72,14.69,14.69,0,0,1-4.45.74H598.28a15.06,15.06,0,0,1-4.3-.71,11.42,11.42,0,0,1-4.37-2.61,14.36,14.36,0,0,1-3.36-5.18,22.23,22.23,0,0,1-1.34-8.37Zm19.89,32.64a3.25,3.25,0,0,1-.84,2.23,2.74,2.74,0,0,1-4.1,0,3.34,3.34,0,0,1,0-4.45,2.72,2.72,0,0,1,4.1,0,3.23,3.23,0,0,1,.84,2.22m7.26,0a3.21,3.21,0,0,1-.84,2.23,2.74,2.74,0,0,1-4.1,0,3.37,3.37,0,0,1,0-4.45,2.72,2.72,0,0,1,4.1,0,3.18,3.18,0,0,1,.84,2.22"/><path class="cls-9" d="M584.91,712.8a3.5,3.5,0,0,1,.43-.07h.23a5,5,0,0,1,.94.11,2.73,2.73,0,0,1,1,.47,3.37,3.37,0,0,1,.87,1.07,4,4,0,0,1,.37,1.85v4.66c0,4.53.89,7.91,2.65,10.11a9,9,0,0,0,7.5,3.33h13.18a9.59,9.59,0,0,0,4.83-1.1,8.72,8.72,0,0,0,3.14-3,12.9,12.9,0,0,0,1.68-4.28,25.6,25.6,0,0,0,.5-5.11v-4.32h-19.7v-3.29a22.57,22.57,0,0,1,.81-6.07,14.22,14.22,0,0,1,2.52-5.11,12.34,12.34,0,0,1,4.37-3.49,14.11,14.11,0,0,1,6.35-1.31H625c4.39,0,7.83,1.43,10.31,4.26s3.73,6.81,3.73,11.93a19.42,19.42,0,0,0,.55,4.62,12,12,0,0,0,1.73,4,8.86,8.86,0,0,0,3.17,2.84,9.7,9.7,0,0,0,4.71,1.07h2v3.29h-2.56a12.74,12.74,0,0,1-6.12-1.38,12.19,12.19,0,0,1-4.2-3.63,16.23,16.23,0,0,1-2.45-5.11,20.78,20.78,0,0,1-.8-5.72,24.79,24.79,0,0,0-.44-4.63,11.7,11.7,0,0,0-1.61-4.11,9.16,9.16,0,0,0-3.13-3,9.9,9.9,0,0,0-5-1.12h-8.06a9.66,9.66,0,0,0-5,1.16,9.12,9.12,0,0,0-3.09,3,12.09,12.09,0,0,0-1.58,4.08,22.6,22.6,0,0,0-.44,4.35h19.5v7.14a23.14,23.14,0,0,1-1.32,8.46,14.84,14.84,0,0,1-3.31,5.28,11.31,11.31,0,0,1-4.37,2.72,14.69,14.69,0,0,1-4.45.74H598.28a15.06,15.06,0,0,1-4.3-.71,11.42,11.42,0,0,1-4.37-2.61,14.36,14.36,0,0,1-3.36-5.18,22.23,22.23,0,0,1-1.34-8.37Zm19.89,32.64a3.25,3.25,0,0,1-.84,2.23,2.74,2.74,0,0,1-4.1,0,3.34,3.34,0,0,1,0-4.45,2.72,2.72,0,0,1,4.1,0A3.23,3.23,0,0,1,604.8,745.44Zm7.26,0a3.21,3.21,0,0,1-.84,2.23,2.74,2.74,0,0,1-4.1,0,3.37,3.37,0,0,1,0-4.45,2.72,2.72,0,0,1,4.1,0A3.18,3.18,0,0,1,612.06,745.44Z"/><path class="cls-8" d="M649.91,729.33V726h3a9,9,0,0,0,7.5-3.39q2.65-3.39,2.65-10V697.38c.22,0,.37-.08.44-.08h.23a6,6,0,0,1,1,.11,2.62,2.62,0,0,1,1,.47,3.14,3.14,0,0,1,.87,1.07,3.86,3.86,0,0,1,.38,1.85v11.8q0,6.72,2.65,10.07a9,9,0,0,0,7.5,3.36h2.35v3.3h-2.75a14.79,14.79,0,0,1-3.23-.38,12.26,12.26,0,0,1-3.27-1.23,12.71,12.71,0,0,1-3-2.27A11,11,0,0,1,665,722a11.91,11.91,0,0,1-5.2,5.73,14.34,14.34,0,0,1-6.48,1.61Zm17.81-39.91a3.16,3.16,0,0,1-.84,2.22,2.59,2.59,0,0,1-2,.93,2.64,2.64,0,0,1-2.06-.93,3.16,3.16,0,0,1-.84-2.22,3.22,3.22,0,0,1,.84-2.23,2.66,2.66,0,0,1,2.06-.92,2.61,2.61,0,0,1,2,.92,3.22,3.22,0,0,1,.84,2.23"/><path class="cls-9" d="M649.91,729.33V726h3a9,9,0,0,0,7.5-3.39q2.65-3.39,2.65-10V697.38c.22,0,.37-.08.44-.08h.23a6,6,0,0,1,1,.11,2.62,2.62,0,0,1,1,.47,3.14,3.14,0,0,1,.87,1.07,3.86,3.86,0,0,1,.38,1.85v11.8q0,6.72,2.65,10.07a9,9,0,0,0,7.5,3.36h2.35v3.3h-2.75a14.79,14.79,0,0,1-3.23-.38,12.26,12.26,0,0,1-3.27-1.23,12.71,12.71,0,0,1-3-2.27A11,11,0,0,1,665,722a11.91,11.91,0,0,1-5.2,5.73,14.34,14.34,0,0,1-6.48,1.61Zm17.81-39.91a3.16,3.16,0,0,1-.84,2.22,2.59,2.59,0,0,1-2,.93,2.64,2.64,0,0,1-2.06-.93,3.16,3.16,0,0,1-.84-2.22,3.22,3.22,0,0,1,.84-2.23,2.66,2.66,0,0,1,2.06-.92,2.61,2.61,0,0,1,2,.92A3.22,3.22,0,0,1,667.72,689.42Z"/><path class="cls-8" d="M682.51,726V680.71a3.17,3.17,0,0,1,.44-.06h.24a6,6,0,0,1,.94.09,2.68,2.68,0,0,1,1,.48,3.35,3.35,0,0,1,.88,1.06,3.94,3.94,0,0,1,.37,1.86v15.77a11.9,11.9,0,0,1,3.29-1.79,15.19,15.19,0,0,1,5.31-.82h15.06a15.6,15.6,0,0,1,5.39,1,12.67,12.67,0,0,1,4.66,3,15.2,15.2,0,0,1,3.3,5.21,20.53,20.53,0,0,1,1.24,7.54v15.3H678.21V726Zm38-12a22.12,22.12,0,0,0-.57-5.09,12.12,12.12,0,0,0-1.85-4.26,9.6,9.6,0,0,0-3.3-2.92,10.14,10.14,0,0,0-4.9-1.1H694.89a10.61,10.61,0,0,0-5.15,1.13,9.33,9.33,0,0,0-3.33,3.06V726h34.15Z"/><path class="cls-9" d="M682.51,726V680.71a3.17,3.17,0,0,1,.44-.06h.24a6,6,0,0,1,.94.09,2.68,2.68,0,0,1,1,.48,3.35,3.35,0,0,1,.88,1.06,3.94,3.94,0,0,1,.37,1.86v15.77a11.9,11.9,0,0,1,3.29-1.79,15.19,15.19,0,0,1,5.31-.82h15.06a15.6,15.6,0,0,1,5.39,1,12.67,12.67,0,0,1,4.66,3,15.2,15.2,0,0,1,3.3,5.21,20.53,20.53,0,0,1,1.24,7.54v15.3H678.21V726Zm38-12a22.12,22.12,0,0,0-.57-5.09,12.12,12.12,0,0,0-1.85-4.26,9.6,9.6,0,0,0-3.3-2.92,10.14,10.14,0,0,0-4.9-1.1H694.89a10.61,10.61,0,0,0-5.15,1.13,9.33,9.33,0,0,0-3.33,3.06V726h34.15Z"/><path class="cls-8" d="M741.54,729.33A14.67,14.67,0,0,1,735,728a12.46,12.46,0,0,1-4.43-3.54,14.27,14.27,0,0,1-2.53-5.1,23.17,23.17,0,0,1-.8-6.14,21.11,21.11,0,0,1,.91-6.13,15.42,15.42,0,0,1,2.72-5.25,13.51,13.51,0,0,1,4.54-3.63,15.42,15.42,0,0,1,12.64-.05,12.7,12.7,0,0,1,4.37,3.58,15.19,15.19,0,0,1,2.55,5.14,22.1,22.1,0,0,1,.84,6.14v13h5.71v3.29h-5.71v2.47a13.15,13.15,0,0,1-.19,2,15.31,15.31,0,0,1-.75,2.71,16.41,16.41,0,0,1-1.44,3,11.84,11.84,0,0,1-2.35,2.7,11.36,11.36,0,0,1-3.44,2,12.75,12.75,0,0,1-4.6.76,13.21,13.21,0,0,1-6-1.3,3,3,0,0,1-1.28-1.34,5.79,5.79,0,0,1-.41-2.43l.61.28a16.25,16.25,0,0,0,7.06,1.57,8.2,8.2,0,0,0,4.24-1,8.59,8.59,0,0,0,2.85-2.71,11.54,11.54,0,0,0,1.61-3.8,18.51,18.51,0,0,0,.51-4.33v-.47ZM751.75,726V713a24.5,24.5,0,0,0-.41-4.32,12.33,12.33,0,0,0-1.5-4.15,9.16,9.16,0,0,0-3.1-3.12,9.47,9.47,0,0,0-5.07-1.24,9,9,0,0,0-8.1,4.27,12.62,12.62,0,0,0-1.69,4.13,21,21,0,0,0-.5,4.43,22.3,22.3,0,0,0,.5,4.66,12.76,12.76,0,0,0,1.69,4.19,9.46,9.46,0,0,0,3.12,3,9.29,9.29,0,0,0,4.85,1.17Z"/><path class="cls-9" d="M741.54,729.33A14.67,14.67,0,0,1,735,728a12.46,12.46,0,0,1-4.43-3.54,14.27,14.27,0,0,1-2.53-5.1,23.17,23.17,0,0,1-.8-6.14,21.11,21.11,0,0,1,.91-6.13,15.42,15.42,0,0,1,2.72-5.25,13.51,13.51,0,0,1,4.54-3.63,15.42,15.42,0,0,1,12.64-.05,12.7,12.7,0,0,1,4.37,3.58,15.19,15.19,0,0,1,2.55,5.14,22.1,22.1,0,0,1,.84,6.14v13h5.71v3.29h-5.71v2.46a13.15,13.15,0,0,1-.19,2,15.31,15.31,0,0,1-.75,2.71,16.41,16.41,0,0,1-1.44,3,11.84,11.84,0,0,1-2.35,2.7,11.36,11.36,0,0,1-3.44,2,12.75,12.75,0,0,1-4.6.76,13.21,13.21,0,0,1-6-1.3,3,3,0,0,1-1.28-1.34,5.79,5.79,0,0,1-.41-2.43l.61.28a16.25,16.25,0,0,0,7.06,1.57,8.2,8.2,0,0,0,4.24-1,8.59,8.59,0,0,0,2.85-2.71,11.54,11.54,0,0,0,1.61-3.8,18.51,18.51,0,0,0,.51-4.33v-.47ZM751.75,726V713a24.5,24.5,0,0,0-.41-4.32,12.33,12.33,0,0,0-1.5-4.15,9.16,9.16,0,0,0-3.1-3.12,9.47,9.47,0,0,0-5.07-1.24,9,9,0,0,0-8.1,4.27,12.62,12.62,0,0,0-1.69,4.13,21,21,0,0,0-.5,4.43,22.3,22.3,0,0,0,.5,4.66,12.76,12.76,0,0,0,1.69,4.19,9.46,9.46,0,0,0,3.12,3,9.29,9.29,0,0,0,4.85,1.17Z"/><path class="cls-8" d="M773.46,680.71a2.52,2.52,0,0,1,.44-.07h.23a6,6,0,0,1,1,.1,2.87,2.87,0,0,1,1,.48,3.39,3.39,0,0,1,.88,1.07,4,4,0,0,1,.37,1.85v28a23.18,23.18,0,0,1-1.35,8.5,15.05,15.05,0,0,1-3.36,5.28,11.26,11.26,0,0,1-4.41,2.67,14.83,14.83,0,0,1-4.53.76h-3.37V726h3a9.06,9.06,0,0,0,7.5-3.32c1.77-2.22,2.65-5.58,2.65-10.11Z"/><path class="cls-9" d="M773.46,680.71a2.52,2.52,0,0,1,.44-.07h.23a6,6,0,0,1,1,.1,2.87,2.87,0,0,1,1,.48,3.39,3.39,0,0,1,.88,1.07,4,4,0,0,1,.37,1.85v28a23.18,23.18,0,0,1-1.35,8.5,15.05,15.05,0,0,1-3.36,5.28,11.26,11.26,0,0,1-4.41,2.67,14.83,14.83,0,0,1-4.53.76h-3.37V726h3a9.06,9.06,0,0,0,7.5-3.32c1.77-2.22,2.65-5.58,2.65-10.11Z"/><path class="cls-8" d="M787.58,729.33h-3.89V680.71a3.83,3.83,0,0,1,.43-.07h.24a6,6,0,0,1,.94.1,2.78,2.78,0,0,1,1,.48,3.46,3.46,0,0,1,.87,1.06,4.07,4.07,0,0,1,.37,1.86Z"/><path class="cls-9" d="M787.58,729.33h-3.89V680.71a3.83,3.83,0,0,1,.43-.07h.24a6,6,0,0,1,.94.1,2.78,2.78,0,0,1,1,.48,3.46,3.46,0,0,1,.87,1.06,4.07,4.07,0,0,1,.37,1.86Z"/><path class="cls-8" d="M825.72,729.33a14.84,14.84,0,0,1-4.54-.76,11.26,11.26,0,0,1-4.41-2.67,14.92,14.92,0,0,1-3.36-5.29,23.1,23.1,0,0,1-1.33-8.48v-9.89a2.33,2.33,0,0,1,.43-.07h.23a5.13,5.13,0,0,1,1,.11,2.39,2.39,0,0,1,1,.48,3.3,3.3,0,0,1,.87,1,4,4,0,0,1,.38,1.86v6.93c0,4.52.87,7.9,2.65,10.11a9.06,9.06,0,0,0,7.49,3.32h22.45a9,9,0,0,0,7.5-3.39q2.67-3.39,2.66-10V697.38a2.73,2.73,0,0,1,.43-.08h.24a5.13,5.13,0,0,1,.94.11,2.62,2.62,0,0,1,1,.47,3.16,3.16,0,0,1,.87,1.07,3.87,3.87,0,0,1,.37,1.85v11.8q0,6.72,2.66,10.07a9,9,0,0,0,7.5,3.36h2.35v3.3h-2.76a14.84,14.84,0,0,1-3.22-.38,12.77,12.77,0,0,1-3.26-1.23,12.31,12.31,0,0,1-3-2.27,10.93,10.93,0,0,1-2.26-3.46,11.87,11.87,0,0,1-5.2,5.73,14.34,14.34,0,0,1-6.49,1.61Zm15.13,7.82a3.16,3.16,0,0,1-.85,2.22,2.65,2.65,0,0,1-2,.93,2.69,2.69,0,0,1-2.06-.93,3.41,3.41,0,0,1,0-4.46A2.71,2.71,0,0,1,838,734a2.68,2.68,0,0,1,2,.92,3.19,3.19,0,0,1,.85,2.24"/><path class="cls-9" d="M825.72,729.33a14.84,14.84,0,0,1-4.54-.76,11.16,11.16,0,0,1-4.4-2.67,14.79,14.79,0,0,1-3.37-5.29,23.1,23.1,0,0,1-1.33-8.48v-9.89a2.33,2.33,0,0,1,.43-.07h.24a5.13,5.13,0,0,1,.94.11,2.39,2.39,0,0,1,1,.48,3.3,3.3,0,0,1,.87,1,4,4,0,0,1,.38,1.86v6.93c0,4.52.87,7.9,2.65,10.11a9.06,9.06,0,0,0,7.49,3.32h22.45a9,9,0,0,0,7.5-3.39q2.67-3.39,2.66-10V697.38a2.73,2.73,0,0,1,.43-.08h.24a5.13,5.13,0,0,1,.94.11,2.62,2.62,0,0,1,1,.47,3.16,3.16,0,0,1,.87,1.07,3.87,3.87,0,0,1,.37,1.85v11.8q0,6.72,2.66,10.07a9,9,0,0,0,7.5,3.36h2.35v3.3h-2.76a14.84,14.84,0,0,1-3.22-.38,12.77,12.77,0,0,1-3.26-1.23,12.31,12.31,0,0,1-3-2.27,10.93,10.93,0,0,1-2.26-3.46,11.87,11.87,0,0,1-5.2,5.73,14.34,14.34,0,0,1-6.49,1.61Zm15.13,7.82a3.16,3.16,0,0,1-.85,2.22,2.65,2.65,0,0,1-2,.93,2.69,2.69,0,0,1-2.06-.93,3.41,3.41,0,0,1,0-4.46A2.71,2.71,0,0,1,838,734a2.68,2.68,0,0,1,2,.92A3.19,3.19,0,0,1,840.85,737.15Z"/><path class="cls-8" d="M873.92,729.33V726h3a9,9,0,0,0,7.5-3.39q2.65-3.39,2.65-10V697.38c.23,0,.38-.08.44-.08h.24a5.92,5.92,0,0,1,.94.11,2.62,2.62,0,0,1,1,.47,3.28,3.28,0,0,1,.88,1.07,4,4,0,0,1,.37,1.85v11.8q0,6.72,2.65,10.07a9,9,0,0,0,7.5,3.36h2.35v3.3h-2.75a14.79,14.79,0,0,1-3.23-.38,12.07,12.07,0,0,1-3.26-1.23,12.55,12.55,0,0,1-3-2.27A10.83,10.83,0,0,1,889,722a12.06,12.06,0,0,1-5.2,5.73,14.39,14.39,0,0,1-6.5,1.61Zm14.25-39.91a3.2,3.2,0,0,1-.83,2.22,2.66,2.66,0,0,1-2.06.93,2.61,2.61,0,0,1-2-.93,3.16,3.16,0,0,1-.84-2.22,3.22,3.22,0,0,1,.84-2.23,2.63,2.63,0,0,1,2-.92,2.68,2.68,0,0,1,2.06.92,3.26,3.26,0,0,1,.83,2.23m7.26,0a3.16,3.16,0,0,1-.84,2.22,2.72,2.72,0,0,1-4.1,0,3.16,3.16,0,0,1-.84-2.22,3.22,3.22,0,0,1,.84-2.23,2.74,2.74,0,0,1,4.1,0,3.22,3.22,0,0,1,.84,2.23"/><path class="cls-9" d="M873.92,729.33V726h3a9,9,0,0,0,7.5-3.39q2.65-3.39,2.65-10V697.38c.23,0,.38-.08.44-.08h.24a5.92,5.92,0,0,1,.94.11,2.62,2.62,0,0,1,1,.47,3.28,3.28,0,0,1,.88,1.07,4,4,0,0,1,.37,1.85v11.8q0,6.72,2.65,10.07a9,9,0,0,0,7.5,3.36h2.35v3.3h-2.75a14.79,14.79,0,0,1-3.23-.38,12.07,12.07,0,0,1-3.26-1.23,12.55,12.55,0,0,1-3-2.27A10.83,10.83,0,0,1,889,722a12.06,12.06,0,0,1-5.2,5.73,14.39,14.39,0,0,1-6.5,1.61Zm14.25-39.91a3.2,3.2,0,0,1-.83,2.22,2.66,2.66,0,0,1-2.06.93,2.61,2.61,0,0,1-2-.93,3.16,3.16,0,0,1-.84-2.22,3.22,3.22,0,0,1,.84-2.23,2.63,2.63,0,0,1,2-.92,2.68,2.68,0,0,1,2.06.92A3.26,3.26,0,0,1,888.17,689.42Zm7.26,0a3.16,3.16,0,0,1-.84,2.22,2.72,2.72,0,0,1-4.1,0,3.16,3.16,0,0,1-.84-2.22,3.22,3.22,0,0,1,.84-2.23,2.74,2.74,0,0,1,4.1,0A3.22,3.22,0,0,1,895.43,689.42Z"/><path class="cls-8" d="M902.22,726h32.27c0-2.47,0-4.41,0-5.83a30.48,30.48,0,0,0-.16-3.08c-.5-3.76-1.8-6.61-3.9-8.58a11.94,11.94,0,0,0-8.47-2.94,16.46,16.46,0,0,0-12,4.58,3.92,3.92,0,0,1-1.37.93,4,4,0,0,1-1.52.32,2.74,2.74,0,0,1-1.27-.35l-.95-.55L927.09,685a4,4,0,0,1,3-1.64,4.22,4.22,0,0,1,1.61.35l1,.47-16.4,18.79a28,28,0,0,1,2.79-.55,18.51,18.51,0,0,1,2.79-.2,16,16,0,0,1,11.76,4.45,14.52,14.52,0,0,1,3.46,6.38,35.15,35.15,0,0,1,1.11,9.39V726h3.29v3.29H902.22Z"/><path class="cls-9" d="M902.22,726h32.27c0-2.47,0-4.41,0-5.83a30.48,30.48,0,0,0-.16-3.08c-.5-3.76-1.8-6.61-3.9-8.58a11.94,11.94,0,0,0-8.47-2.94,16.46,16.46,0,0,0-12,4.58,3.92,3.92,0,0,1-1.37.93,4,4,0,0,1-1.52.32,2.74,2.74,0,0,1-1.27-.35l-.95-.55L927.09,685a4,4,0,0,1,3-1.64,4.22,4.22,0,0,1,1.61.35l1,.47-16.4,18.79a28,28,0,0,1,2.79-.55,18.51,18.51,0,0,1,2.79-.2,16,16,0,0,1,11.76,4.45,14.52,14.52,0,0,1,3.46,6.38,35.15,35.15,0,0,1,1.11,9.39V726h3.29v3.29H902.22Z"/><path class="cls-8" d="M980,722.75a13,13,0,0,1-4.61,5.51,15.79,15.79,0,0,1-15.7,0,12.84,12.84,0,0,1-4.7-5.45,12.16,12.16,0,0,1-2.35,3.1,14,14,0,0,1-2.83,2,10.63,10.63,0,0,1-3,1.09,15,15,0,0,1-3.06.32h-3.37V726h2.76a9.1,9.1,0,0,0,7.33-3.18q2.69-3.18,2.82-9.71a22,22,0,0,1,1-6.37,15.39,15.39,0,0,1,2.79-5.21,13.42,13.42,0,0,1,4.49-3.51,14.18,14.18,0,0,1,6.19-1.29,14.53,14.53,0,0,1,6.18,1.22,12.26,12.26,0,0,1,4.37,3.44,14.55,14.55,0,0,1,2.63,5.28,24.93,24.93,0,0,1,.87,6.79,18.06,18.06,0,0,0,.7,5.28,12.5,12.5,0,0,0,1.92,3.83A9.12,9.12,0,0,0,992,726h2.69a9.06,9.06,0,0,0,7.5-3.32q2.65-3.33,2.65-10.11V680.71l.43-.07h.25a5.92,5.92,0,0,1,.94.1,2.87,2.87,0,0,1,1,.48,3,3,0,0,1,.87,1.07,3.82,3.82,0,0,1,.38,1.84v28a22.94,22.94,0,0,1-1.35,8.5,14.92,14.92,0,0,1-3.36,5.3,11.43,11.43,0,0,1-4.41,2.66,14.84,14.84,0,0,1-4.54.76h-3.69a14.83,14.83,0,0,1-4.71-.82,11,11,0,0,1-4.43-2.76,14.42,14.42,0,0,1-2.22-3m-2.69-4.46a28.53,28.53,0,0,0,0-9.81,12.14,12.14,0,0,0-1.59-4.25,8.55,8.55,0,0,0-3.08-3,9.89,9.89,0,0,0-5-1.13,8.95,8.95,0,0,0-8.17,4.42,13.29,13.29,0,0,0-1.65,4.33,23.75,23.75,0,0,0-.47,4.62,28.31,28.31,0,0,0,.37,4.42,13.7,13.7,0,0,0,1.45,4.38,9.34,9.34,0,0,0,3.1,3.41,9.13,9.13,0,0,0,5.23,1.37,10.31,10.31,0,0,0,4-.73,8.45,8.45,0,0,0,2.89-1.92,9.25,9.25,0,0,0,1.89-2.78,14.68,14.68,0,0,0,1-3.35"/><path class="cls-9" d="M980,722.75a13,13,0,0,1-4.61,5.51,13.67,13.67,0,0,1-7.9,2.09,13.82,13.82,0,0,1-7.8-2.09,12.84,12.84,0,0,1-4.7-5.45,12.16,12.16,0,0,1-2.35,3.1,14,14,0,0,1-2.83,2,10.63,10.63,0,0,1-3,1.09,15,15,0,0,1-3.06.32h-3.37V726h2.76a9.1,9.1,0,0,0,7.33-3.18q2.69-3.18,2.82-9.71a22,22,0,0,1,1-6.37,15.39,15.39,0,0,1,2.79-5.21,13.42,13.42,0,0,1,4.49-3.51,14.18,14.18,0,0,1,6.19-1.29,14.53,14.53,0,0,1,6.18,1.22,12.26,12.26,0,0,1,4.37,3.44,14.55,14.55,0,0,1,2.63,5.28,24.93,24.93,0,0,1,.87,6.79,18.06,18.06,0,0,0,.7,5.28,12.5,12.5,0,0,0,1.92,3.83A9.12,9.12,0,0,0,992,726h2.69a9.06,9.06,0,0,0,7.5-3.32q2.65-3.33,2.65-10.11V680.71l.43-.07h.25a5.92,5.92,0,0,1,.94.1,2.87,2.87,0,0,1,1,.48,3,3,0,0,1,.87,1.07,3.82,3.82,0,0,1,.38,1.84v28a22.94,22.94,0,0,1-1.35,8.5,14.92,14.92,0,0,1-3.36,5.3,11.43,11.43,0,0,1-4.41,2.66,14.84,14.84,0,0,1-4.54.76h-3.69a14.83,14.83,0,0,1-4.71-.82,11,11,0,0,1-4.43-2.76A14.42,14.42,0,0,1,980,722.75Zm-2.69-4.46a28.53,28.53,0,0,0,0-9.81,12.07,12.07,0,0,0-1.59-4.25,8.55,8.55,0,0,0-3.08-3,9.89,9.89,0,0,0-5-1.13,8.95,8.95,0,0,0-8.17,4.42,13.29,13.29,0,0,0-1.65,4.33,23.75,23.75,0,0,0-.47,4.62,28.31,28.31,0,0,0,.37,4.42,13.7,13.7,0,0,0,1.45,4.38,9.34,9.34,0,0,0,3.1,3.41,9.13,9.13,0,0,0,5.23,1.37,10.31,10.31,0,0,0,4-.73,8.45,8.45,0,0,0,2.89-1.92,9.25,9.25,0,0,0,1.89-2.78A14.68,14.68,0,0,0,977.31,718.29Z"/><path class="cls-8" d="M1018.25,729.33h-3.9V680.71a3.87,3.87,0,0,1,.44-.07h.23a5.69,5.69,0,0,1,.94.1,2.75,2.75,0,0,1,1,.48,3.33,3.33,0,0,1,.87,1.06,4.07,4.07,0,0,1,.37,1.86Z"/><path class="cls-9" d="M1018.25,729.33h-3.9V680.71a3.87,3.87,0,0,1,.44-.07h.23a5.69,5.69,0,0,1,.94.1,2.75,2.75,0,0,1,1,.48,3.33,3.33,0,0,1,.87,1.06,4.07,4.07,0,0,1,.37,1.86Z"/><path class="cls-8" d="M104.42,886.75c-.12,11-6.75,22-21.43,22S61.5,898,61.5,886.79s7-22.46,21.49-22.46,21.55,11.27,21.43,22.42m-35.16.17c.18,7,3.88,14.49,13.73,14.49s13.55-7.56,13.67-14.56c.11-7.18-3.82-15.22-13.67-15.22s-13.91,8.1-13.73,15.29"/><path class="cls-10" d="M104.42,886.75c-.12,11-6.75,22-21.42,22s-21.5-10.77-21.5-22,7-22.46,21.5-22.46S104.54,875.6,104.42,886.75Zm-35.16.17c.18,7,3.88,14.49,13.74,14.49s13.54-7.56,13.66-14.56c.11-7.18-3.82-15.22-13.66-15.22S69.08,879.73,69.26,886.92Z"/><path class="cls-8" d="M112.05,907.8V884.73h-5.49v-6.51h5.49v-2c0-8,5.31-11.75,11.22-11.75a14,14,0,0,1,7.64,2.45l-2.68,5.53a8,8,0,0,0-4.49-1.58c-2.51,0-4.41,1.7-4.41,5.35v2H128v6.51h-8.65V907.8Z"/><path class="cls-10" d="M112.05,907.8V884.73h-5.49v-6.51h5.49v-2c0-8,5.31-11.75,11.22-11.75a14,14,0,0,1,7.64,2.45l-2.68,5.53a8,8,0,0,0-4.49-1.58c-2.51,0-4.41,1.7-4.41,5.35v2H128v6.51h-8.65V907.8Z"/><path class="cls-8" d="M136.1,907.8V884.73h-5.49v-6.51h5.49v-2c0-8,5.31-11.75,11.22-11.75A14,14,0,0,1,155,866.9l-2.68,5.53a8,8,0,0,0-4.48-1.58c-2.51,0-4.43,1.7-4.43,5.35v2H152v6.51h-8.67V907.8Z"/><path class="cls-10" d="M136.1,907.8V884.73h-5.49v-6.51h5.49v-2c0-8,5.31-11.75,11.22-11.75A14,14,0,0,1,155,866.9l-2.68,5.53a8,8,0,0,0-4.48-1.58c-2.51,0-4.43,1.7-4.43,5.35v2H152v6.51h-8.67V907.8Z"/><path class="cls-8" d="M165.1,869.33c0,5.78-8.6,5.78-8.6,0s8.6-5.79,8.6,0m-7.94,38.48h7.28V877.67h-7.28Z"/><path class="cls-10" d="M165.1,869.32c0,5.78-8.6,5.78-8.6,0S165.1,863.55,165.1,869.32Zm-7.94,38.48h7.28V877.66h-7.28Z"/><path class="cls-8" d="M196.25,904a15,15,0,0,1-11.34,4.75c-8.53,0-15.64-5.24-15.64-15.89s7.11-15.9,15.64-15.9a13.83,13.83,0,0,1,10.62,4.45l-4.59,4.93a8.88,8.88,0,0,0-5.9-2.38c-4.91,0-8.48,3.66-8.48,8.9,0,5.72,3.82,8.76,8.35,8.76a8.7,8.7,0,0,0,6.45-2.5Z"/><path class="cls-10" d="M196.25,904a15,15,0,0,1-11.34,4.75c-8.53,0-15.64-5.24-15.64-15.89s7.11-15.9,15.64-15.9a13.83,13.83,0,0,1,10.62,4.45l-4.59,4.93a8.88,8.88,0,0,0-5.9-2.38c-4.91,0-8.48,3.66-8.48,8.9,0,5.72,3.82,8.76,8.35,8.76a8.7,8.7,0,0,0,6.45-2.5Z"/><path class="cls-8" d="M206.87,895.44c.48,3.71,3.64,6.4,8.77,6.4,2.69,0,6.21-1,7.88-2.81l4.65,4.69c-3.1,3.29-8.17,4.87-12.65,4.87-10.15,0-16.18-6.39-16.18-16,0-9.14,6.09-15.71,15.64-15.71,9.86,0,16,6.21,14.86,18.56Zm16-6.15c-.47-3.89-3.46-5.84-7.65-5.84-3.93,0-7.15,1.95-8.23,5.84Z"/><path class="cls-10" d="M206.87,895.44c.48,3.71,3.64,6.4,8.77,6.4,2.69,0,6.21-1,7.88-2.81l4.65,4.69c-3.1,3.29-8.17,4.87-12.65,4.87-10.15,0-16.18-6.39-16.18-16,0-9.14,6.09-15.71,15.64-15.71,9.86,0,16,6.21,14.86,18.56Zm16-6.15c-.47-3.89-3.46-5.84-7.65-5.84-3.93,0-7.15,1.95-8.23,5.84Z"/><polygon class="cls-8" points="275.49 865.12 283.37 865.12 283.37 907.8 278.48 907.8 278.48 907.86 256.51 879.06 256.51 907.8 248.63 907.8 248.63 865.18 255.02 865.18 275.49 891.6 275.49 865.12"/><polygon class="cls-10" points="275.49 865.12 283.37 865.12 283.37 907.8 278.48 907.8 278.48 907.86 256.51 879.06 256.51 907.8 248.63 907.8 248.63 865.18 255.02 865.18 275.49 891.6 275.49 865.12"/><path class="cls-8" d="M313.39,877.79h7v30h-6.85l-.36-4.38c-1.68,3.53-6.27,5.23-9.56,5.3-8.71.06-15.15-5.42-15.15-16,0-10.35,6.74-15.76,15.34-15.7,3.94,0,7.69,1.89,9.37,4.87Zm-17.67,15c0,5.72,3.87,9.13,8.71,9.13,11.45,0,11.45-18.2,0-18.2-4.84,0-8.71,3.35-8.71,9.07"/><path class="cls-10" d="M313.39,877.79h7v30h-6.85l-.36-4.38c-1.68,3.53-6.27,5.23-9.56,5.3-8.71.06-15.15-5.42-15.15-16,0-10.35,6.74-15.76,15.34-15.7,3.94,0,7.69,1.88,9.37,4.87Zm-17.67,15c0,5.72,3.87,9.13,8.71,9.13,11.45,0,11.45-18.2,0-18.2C299.59,883.69,295.72,887,295.72,892.76Z"/><path class="cls-8" d="M335.52,869.32v8.54h8.12v6.38h-8.18v13c0,2.86,1.55,4.24,3.82,4.24a8,8,0,0,0,3.52-.91l2,6.33a16,16,0,0,1-6,1.29c-6.38.23-10.55-3.47-10.55-10.95v-13h-5.51v-6.38h5.51v-7.74Z"/><path class="cls-10" d="M335.52,869.32v8.54h8.12v6.38h-8.18v13c0,2.86,1.55,4.24,3.82,4.24a8,8,0,0,0,3.52-.91l2,6.33a16,16,0,0,1-6,1.29c-6.38.23-10.55-3.47-10.55-10.95v-13h-5.51v-6.38h5.51v-7.74Z"/><path class="cls-8" d="M357,869.33c0,5.78-8.6,5.78-8.6,0s8.6-5.79,8.6,0m-7.94,38.48h7.28V877.67h-7.28Z"/><path class="cls-10" d="M357,869.32c0,5.78-8.6,5.78-8.6,0S357,863.55,357,869.32Zm-7.94,38.48h7.28V877.66h-7.28Z"/><path class="cls-8" d="M392.81,892.83c0,8.64-5.79,15.64-15.34,15.64s-15.27-7-15.27-15.64,5.84-15.65,15.21-15.65,15.4,7.06,15.4,15.65m-23.34,0c0,4.56,2.69,8.82,8,8.82s8-4.26,8-8.82-3.09-8.9-8-8.9c-5.26,0-8,4.39-8,8.9"/><path class="cls-10" d="M392.81,892.83c0,8.64-5.79,15.64-15.34,15.64s-15.27-7-15.27-15.64,5.84-15.65,15.21-15.65S392.81,884.24,392.81,892.83Zm-23.34,0c0,4.56,2.69,8.82,8,8.82s8-4.26,8-8.82-3.09-8.9-8-8.9C372.21,883.93,369.47,888.32,369.47,892.83Z"/><path class="cls-8" d="M419.48,907.8V892.09c0-4.56-2.45-8-7.1-8-4.48,0-7.52,3.83-7.52,8.4V907.8h-7.22V877.73h6.5l.48,4.08c3-3,6-4.51,9.67-4.51,6.91,0,12.47,5.29,12.47,14.74V907.8Z"/><path class="cls-10" d="M419.48,907.8V892.09c0-4.56-2.45-8-7.1-8-4.48,0-7.52,3.83-7.52,8.4V907.8h-7.22V877.73h6.5l.48,4.08c3-3,6-4.51,9.67-4.51,6.91,0,12.47,5.29,12.47,14.74V907.8Z"/><path class="cls-8" d="M456.36,877.79h7v30h-6.86l-.37-4.38c-1.67,3.53-6.26,5.23-9.54,5.3-8.73.06-15.16-5.42-15.16-16,0-10.35,6.74-15.76,15.33-15.7,3.95,0,7.7,1.89,9.37,4.87Zm-17.67,15c0,5.72,3.88,9.13,8.71,9.13,11.46,0,11.46-18.2,0-18.2-4.83,0-8.71,3.35-8.71,9.07"/><path class="cls-10" d="M456.36,877.79h7v30h-6.86l-.37-4.38c-1.67,3.53-6.26,5.23-9.54,5.3-8.73.06-15.16-5.42-15.16-16,0-10.35,6.74-15.76,15.33-15.7,3.95,0,7.7,1.88,9.37,4.87Zm-17.67,15c0,5.72,3.88,9.13,8.71,9.13,11.46,0,11.46-18.2,0-18.2C442.57,883.69,438.69,887,438.69,892.76Z"/><rect class="cls-8" x="469.47" y="865.25" width="7.22" height="42.56"/><rect class="cls-10" x="469.48" y="865.25" width="7.22" height="42.56"/><path class="cls-8" d="M525.7,865.24V907.8h-6.8l-.48-4.14c-2.27,3.59-5.91,4.82-9.49,4.82-8.66,0-15.16-5.86-15.16-15.72,0-10.35,6.39-15.7,15-15.7,3.1,0,7.93,1.71,9.67,4.81V865.24Zm-24.65,27.52c0,5.24,3.7,8.83,8.35,8.83a8.8,8.8,0,0,0,0-17.59c-4.65,0-8.35,3.35-8.35,8.76"/><path class="cls-10" d="M525.7,865.24V907.8h-6.8l-.48-4.14c-2.27,3.59-5.91,4.82-9.49,4.82-8.66,0-15.16-5.86-15.16-15.72,0-10.35,6.39-15.7,15-15.7,3.1,0,7.93,1.71,9.67,4.81V865.24Zm-24.65,27.52c0,5.24,3.7,8.83,8.35,8.83a8.8,8.8,0,0,0,0-17.59C504.75,884,501.05,887.35,501.05,892.76Z"/><path class="cls-8" d="M538.82,877.79v15.7c0,4.57,2.45,8,7.1,8,4.48,0,7.53-3.84,7.53-8.4V877.79h7.22v30.08h-6.51l-.47-4.08c-3.06,3-5.86,4.5-10,4.5-7.05,0-12.17-5.42-12.17-14.74V877.79Z"/><path class="cls-10" d="M538.82,877.79v15.7c0,4.57,2.45,8,7.1,8,4.48,0,7.53-3.84,7.53-8.4V877.79h7.22v30.08h-6.51l-.47-4.08c-3.06,3-5.86,4.5-10,4.5-7.05,0-12.17-5.42-12.17-14.74V877.79Z"/><path class="cls-8" d="M616.52,902.44a21.8,21.8,0,0,1-15.87,6.33c-15.53,0-22.08-10.9-22.15-22s7-22.46,22.15-22.46A21.4,21.4,0,0,1,616,870.85L610.73,876a14.18,14.18,0,0,0-10.08-4c-10.09,0-14.45,7.68-14.39,14.79s4.06,14.44,14.39,14.44a15.23,15.23,0,0,0,10.5-4.33Z"/><path class="cls-10" d="M616.52,902.44a21.8,21.8,0,0,1-15.87,6.33c-15.53,0-22.08-10.9-22.15-22s7-22.46,22.15-22.46A21.4,21.4,0,0,1,616,870.85L610.73,876a14.18,14.18,0,0,0-10.08-4c-10.09,0-14.45,7.68-14.39,14.79s4.06,14.44,14.39,14.44a15.23,15.23,0,0,0,10.5-4.33Z"/><path class="cls-8" d="M649,892.83c0,8.64-5.79,15.64-15.34,15.64s-15.28-7-15.28-15.64,5.85-15.65,15.22-15.65,15.4,7.06,15.4,15.65m-23.34,0c0,4.56,2.69,8.82,8,8.82s8-4.26,8-8.82-3.11-8.9-8-8.9c-5.25,0-8,4.39-8,8.9"/><path class="cls-10" d="M649,892.83c0,8.64-5.79,15.64-15.34,15.64s-15.28-7-15.28-15.64,5.85-15.65,15.22-15.65S649,884.24,649,892.83Zm-23.34,0c0,4.56,2.69,8.82,8,8.82s8-4.26,8-8.82-3.11-8.9-8-8.9C628.45,883.93,625.7,888.32,625.7,892.83Z"/><path class="cls-8" d="M675.71,907.8V892.09c0-4.56-2.45-8-7.1-8-4.48,0-7.52,3.83-7.52,8.4V907.8h-7.23V877.73h6.51l.47,4.08c3-3,6-4.51,9.67-4.51,6.93,0,12.48,5.29,12.48,14.74V907.8Z"/><path class="cls-10" d="M675.71,907.8V892.09c0-4.56-2.45-8-7.1-8-4.48,0-7.52,3.83-7.52,8.4V907.8h-7.23V877.73h6.51l.47,4.08c3-3,6-4.51,9.67-4.51,6.93,0,12.48,5.29,12.48,14.74V907.8Z"/><path class="cls-8" d="M708.47,885.76a9.77,9.77,0,0,0-7.28-2.67c-3.47,0-5.37,1.09-5.37,3s1.73,3.05,5.49,3.3c5.54.35,12.59,1.64,12.59,9.61,0,5.3-4.24,9.87-12.66,9.87-4.65,0-9.3-.79-13.61-5.36l3.58-5.3c2.1,2.38,6.87,4.14,10.16,4.21,2.74.05,5.31-1.41,5.31-3.6s-1.67-2.92-5.84-3.16c-5.56-.43-12.18-2.5-12.18-9.32s7-9.37,12.41-9.37c4.59,0,8.06.91,11.46,3.95Z"/><path class="cls-10" d="M708.47,885.76a9.77,9.77,0,0,0-7.28-2.67c-3.47,0-5.37,1.09-5.37,3s1.73,3.05,5.49,3.3c5.54.35,12.59,1.64,12.59,9.61,0,5.3-4.24,9.87-12.66,9.87-4.65,0-9.3-.79-13.61-5.36l3.58-5.3c2.1,2.38,6.87,4.14,10.16,4.21,2.74.05,5.31-1.41,5.31-3.6s-1.67-2.92-5.84-3.16c-5.56-.43-12.18-2.5-12.18-9.32s7-9.37,12.41-9.37c4.59,0,8.06.91,11.46,3.95Z"/><path class="cls-8" d="M724.75,895.44c.48,3.71,3.64,6.4,8.78,6.4,2.69,0,6.21-1,7.88-2.81l4.65,4.69c-3.1,3.29-8.17,4.87-12.65,4.87-10.15,0-16.17-6.39-16.17-16,0-9.14,6.09-15.71,15.63-15.71,9.86,0,16,6.21,14.87,18.56Zm16-6.15c-.48-3.89-3.46-5.84-7.64-5.84-3.94,0-7.15,1.95-8.23,5.84Z"/><path class="cls-10" d="M724.75,895.44c.48,3.71,3.64,6.4,8.78,6.4,2.69,0,6.21-1,7.88-2.81l4.65,4.69c-3.1,3.29-8.17,4.87-12.65,4.87-10.15,0-16.17-6.39-16.17-16,0-9.14,6.09-15.71,15.63-15.71,9.86,0,16,6.21,14.87,18.56Zm16-6.15c-.48-3.89-3.46-5.84-7.64-5.84-3.94,0-7.15,1.95-8.23,5.84Z"/><path class="cls-8" d="M761.27,869.33c0,5.78-8.59,5.78-8.59,0s8.59-5.79,8.59,0m-7.93,38.48h7.27V877.67h-7.27Z"/><path class="cls-10" d="M761.28,869.32c0,5.78-8.59,5.78-8.59,0S761.28,863.55,761.28,869.32Zm-7.94,38.48h7.28V877.66h-7.28Z"/><rect class="cls-8" x="767.17" y="865.25" width="7.23" height="42.56"/><rect class="cls-10" x="767.17" y="865.25" width="7.23" height="42.56"/><path class="cls-8" d="M823,899.77H801.19l-3.58,8h-8.52l18.74-42.63h8.58l18.74,42.63h-8.59Zm-10.92-25.63-7.76,18.14h15.52Z"/><path class="cls-10" d="M823,899.77H801.19l-3.58,8h-8.52l18.74-42.63h8.58l18.74,42.63h-8.59Zm-10.92-25.63-7.76,18.14h15.52Z"/><path class="cls-8" d="M861.88,874.75l5.38,4.13L864,883.14a13,13,0,0,1,3.11,8.89c0,3.72-1.37,9-6.21,11.21,4.9,2.49,6.08,6.08,6.08,9.92,0,8.27-6.2,13.4-14.73,13.4s-14.92-5.31-14.92-13.4h7.22c0,3.9,3.52,6.44,7.7,6.44s7.46-2.3,7.46-6.44-3.82-6-7.46-6c-9.2,0-14.92-5.72-14.92-15.1s6.68-15.22,14.92-15.22a11.53,11.53,0,0,1,6.74,1.71ZM844.52,892c0,5.24,3.46,8.34,7.7,8.34s7.63-3.16,7.63-8.34-3.46-8.46-7.63-8.46-7.7,3.22-7.7,8.46"/><path class="cls-10" d="M861.88,874.75l5.38,4.13L864,883.14a13,13,0,0,1,3.11,8.89c0,3.72-1.37,9-6.21,11.21,4.9,2.49,6.08,6.08,6.08,9.92,0,8.27-6.2,13.4-14.73,13.4s-14.92-5.31-14.92-13.4h7.22c0,3.9,3.52,6.44,7.7,6.44s7.46-2.3,7.46-6.44-3.82-6-7.46-6c-9.2,0-14.92-5.72-14.92-15.1s6.68-15.22,14.92-15.22a11.53,11.53,0,0,1,6.74,1.71ZM844.52,892c0,5.24,3.46,8.34,7.7,8.34s7.63-3.16,7.63-8.34-3.46-8.46-7.63-8.46S844.52,886.79,844.52,892Z"/><path class="cls-8" d="M878.47,877.79l.53,3.47c2.27-3.71,5.32-4.26,8.3-4.26a11.13,11.13,0,0,1,7.59,2.85l-3.29,6.46a7.17,7.17,0,0,0-5.25-1.95c-3.82,0-7.35,2.07-7.35,7.61V907.8h-7.28v-30Z"/><path class="cls-10" d="M878.47,877.79l.53,3.47c2.27-3.71,5.32-4.26,8.3-4.26a11.13,11.13,0,0,1,7.59,2.85l-3.29,6.46a7.17,7.17,0,0,0-5.25-1.95c-3.82,0-7.35,2.07-7.35,7.61V907.8h-7.28v-30Z"/><path class="cls-8" d="M905.56,869.33c0,5.78-8.6,5.78-8.6,0s8.6-5.79,8.6,0m-7.94,38.48h7.27V877.67h-7.27Z"/><path class="cls-10" d="M905.56,869.32c0,5.78-8.6,5.78-8.6,0S905.56,863.55,905.56,869.32Zm-7.94,38.48h7.28V877.66h-7.28Z"/><path class="cls-8" d="M936.71,904a15,15,0,0,1-11.33,4.75c-8.54,0-15.65-5.24-15.65-15.89s7.11-15.9,15.65-15.9A13.84,13.84,0,0,1,936,881.38l-4.58,4.93a8.9,8.9,0,0,0-5.91-2.38c-4.9,0-8.49,3.66-8.49,8.9,0,5.72,3.83,8.76,8.37,8.76a8.66,8.66,0,0,0,6.43-2.5Z"/><path class="cls-10" d="M936.71,904a15,15,0,0,1-11.33,4.75c-8.54,0-15.65-5.24-15.65-15.89s7.11-15.9,15.65-15.9A13.84,13.84,0,0,1,936,881.38l-4.58,4.93a8.9,8.9,0,0,0-5.91-2.38c-4.9,0-8.49,3.66-8.49,8.9,0,5.72,3.83,8.76,8.37,8.76a8.66,8.66,0,0,0,6.43-2.5Z"/><path class="cls-8" d="M969.77,892.83c0,8.64-5.79,15.64-15.34,15.64s-15.27-7-15.27-15.64,5.84-15.65,15.22-15.65,15.39,7.06,15.39,15.65m-23.33,0c0,4.56,2.68,8.82,8,8.82s8-4.26,8-8.82-3.1-8.9-8-8.9c-5.24,0-8,4.39-8,8.9"/><path class="cls-10" d="M969.77,892.83c0,8.64-5.79,15.64-15.34,15.64s-15.27-7-15.27-15.64,5.84-15.65,15.22-15.65S969.77,884.24,969.77,892.83Zm-23.33,0c0,4.56,2.68,8.82,8,8.82s8-4.26,8-8.82-3.1-8.9-8-8.9C949.19,883.93,946.44,888.32,946.44,892.83Z"/><rect class="cls-8" x="974.78" y="865.25" width="7.22" height="42.56"/><rect class="cls-10" x="974.77" y="865.25" width="7.22" height="42.56"/><path class="cls-8" d="M994.58,895.44c.49,3.71,3.65,6.4,8.78,6.4,2.69,0,6.21-1,7.87-2.81l4.67,4.69c-3.1,3.29-8.18,4.87-12.66,4.87-10.14,0-16.17-6.39-16.17-16,0-9.14,6.08-15.71,15.64-15.71,9.84,0,16,6.21,14.86,18.56Zm16-6.15c-.48-3.89-3.45-5.84-7.64-5.84-3.94,0-7.15,1.95-8.23,5.84Z"/><path class="cls-10" d="M994.58,895.44c.49,3.71,3.65,6.4,8.78,6.4,2.69,0,6.21-1,7.87-2.81l4.67,4.69c-3.1,3.29-8.18,4.87-12.66,4.87-10.14,0-16.17-6.39-16.17-16,0-9.14,6.08-15.71,15.64-15.71,9.84,0,16,6.21,14.86,18.56Zm16-6.15c-.48-3.89-3.45-5.84-7.64-5.84-3.94,0-7.15,1.95-8.23,5.84Z"/><path class="cls-8" d="M74.88,807.72A10.36,10.36,0,0,1,82.64,811a11.69,11.69,0,0,1,0,15.9,10.86,10.86,0,0,1-15.44,0,11.66,11.66,0,0,1,0-15.9,10.26,10.26,0,0,1,7.68-3.23m5.9,11.11a6,6,0,0,0-1.71-4.42,5.62,5.62,0,0,0-4.19-1.75,5.51,5.51,0,0,0-4.08,1.75,6.5,6.5,0,0,0,0,8.79A5.48,5.48,0,0,0,74.88,825a5.59,5.59,0,0,0,4.19-1.79,6.05,6.05,0,0,0,1.71-4.37"/><path class="cls-11" d="M74.88,807.72A10.36,10.36,0,0,1,82.64,811a11.69,11.69,0,0,1,0,15.9,10.86,10.86,0,0,1-15.44,0,11.66,11.66,0,0,1,0-15.9A10.26,10.26,0,0,1,74.88,807.72Zm5.9,11.11a6,6,0,0,0-1.71-4.42,5.62,5.62,0,0,0-4.19-1.75,5.51,5.51,0,0,0-4.08,1.75,6.5,6.5,0,0,0,0,8.79A5.48,5.48,0,0,0,74.88,825a5.59,5.59,0,0,0,4.19-1.79A6.05,6.05,0,0,0,80.78,818.83Z"/><polygon class="cls-8" points="126.18 830 91.12 830 91.12 781.81 126.18 781.81 126.18 788.2 97.42 788.2 97.42 823.62 126.18 823.62 126.18 830"/><polygon class="cls-11" points="126.18 830 91.12 830 91.12 781.81 126.18 781.81 126.18 788.2 97.42 788.2 97.42 823.62 126.18 823.62 126.18 830"/><polygon class="cls-8" points="169.87 830 134.81 830 134.81 781.81 169.87 781.81 169.87 788.2 141.1 788.2 141.1 823.62 169.87 823.62 169.87 830"/><polygon class="cls-11" points="169.87 830 134.81 830 134.81 781.81 169.87 781.81 169.87 788.2 141.1 788.2 141.1 823.62 169.87 823.62 169.87 830"/><path class="cls-8" d="M189.09,807.72a10.34,10.34,0,0,1,7.75,3.23,11.66,11.66,0,0,1,0,15.9,10.85,10.85,0,0,1-15.43,0,11.66,11.66,0,0,1,0-15.9,10.25,10.25,0,0,1,7.68-3.23M195,818.83a6.07,6.07,0,0,0-1.7-4.42,5.64,5.64,0,0,0-4.19-1.75,5.49,5.49,0,0,0-4.08,1.75,6.5,6.5,0,0,0,0,8.79,5.46,5.46,0,0,0,4.08,1.79,5.6,5.6,0,0,0,4.19-1.79,6.08,6.08,0,0,0,1.7-4.37"/><path class="cls-11" d="M189.09,807.72a10.34,10.34,0,0,1,7.75,3.23,11.66,11.66,0,0,1,0,15.9,10.85,10.85,0,0,1-15.43,0,11.66,11.66,0,0,1,0-15.9A10.25,10.25,0,0,1,189.09,807.72ZM195,818.83a6.07,6.07,0,0,0-1.7-4.42,5.64,5.64,0,0,0-4.19-1.75,5.49,5.49,0,0,0-4.08,1.75,6.5,6.5,0,0,0,0,8.79,5.46,5.46,0,0,0,4.08,1.79,5.6,5.6,0,0,0,4.19-1.79A6.08,6.08,0,0,0,195,818.83Z"/><path class="cls-8" d="M252.54,806.19a23.19,23.19,0,0,1-7,16.82,22.63,22.63,0,0,1-16.65,6.92,22.08,22.08,0,0,1-16.49-7,24.52,24.52,0,0,1-.16-34,22.14,22.14,0,0,1,16.65-7.19A22.46,22.46,0,0,1,245.68,789a23.61,23.61,0,0,1,6.86,17.2m-6.56,0a17.52,17.52,0,0,0-5-12.73,16.34,16.34,0,0,0-24.05.15,17.91,17.91,0,0,0-4.84,12.52,17.43,17.43,0,0,0,4.92,12.2,16.37,16.37,0,0,0,23.86.1A17.16,17.16,0,0,0,246,806.19m-23.11-.06a6.26,6.26,0,0,1,1.57-4.61,5.48,5.48,0,0,1,4.54-1.93,5.75,5.75,0,0,1,4.31,2,6,6,0,0,1,1.56,4.59,6.13,6.13,0,0,1-1.78,4,6.11,6.11,0,0,1-8.41,0,6.39,6.39,0,0,1-1.79-4.14"/><path class="cls-11" d="M252.54,806.19a23.19,23.19,0,0,1-7,16.82,22.63,22.63,0,0,1-16.65,6.92,22.11,22.11,0,0,1-16.49-7,24.52,24.52,0,0,1-.16-34,22.14,22.14,0,0,1,16.65-7.19A22.46,22.46,0,0,1,245.68,789,23.61,23.61,0,0,1,252.54,806.19Zm-6.56,0a17.52,17.52,0,0,0-5-12.73,16.34,16.34,0,0,0-24.05.15,17.91,17.91,0,0,0-4.84,12.52,17.43,17.43,0,0,0,4.92,12.2,16.37,16.37,0,0,0,23.86.1A17.16,17.16,0,0,0,246,806.19Zm-23.11-.06a6.26,6.26,0,0,1,1.57-4.61,5.48,5.48,0,0,1,4.54-1.93,5.75,5.75,0,0,1,4.31,2,6,6,0,0,1,1.56,4.59,6.13,6.13,0,0,1-1.78,4,6.11,6.11,0,0,1-8.41,0A6.39,6.39,0,0,1,222.87,806.13Z"/><path class="cls-8" d="M296.37,807.72a10.33,10.33,0,0,1,7.75,3.23,11.66,11.66,0,0,1,0,15.9,10.85,10.85,0,0,1-15.43,0,11.66,11.66,0,0,1,0-15.9,10.28,10.28,0,0,1,7.68-3.23m5.9,11.11a6,6,0,0,0-1.71-4.42,5.61,5.61,0,0,0-4.19-1.75,5.47,5.47,0,0,0-4.07,1.75,6.47,6.47,0,0,0,0,8.79,5.44,5.44,0,0,0,4.07,1.79,5.57,5.57,0,0,0,4.19-1.79,6.05,6.05,0,0,0,1.71-4.37"/><path class="cls-11" d="M296.37,807.72a10.33,10.33,0,0,1,7.75,3.23,11.66,11.66,0,0,1,0,15.9,10.85,10.85,0,0,1-15.43,0,11.66,11.66,0,0,1,0-15.9A10.28,10.28,0,0,1,296.37,807.72Zm5.9,11.11a6,6,0,0,0-1.71-4.42,5.61,5.61,0,0,0-4.19-1.75,5.47,5.47,0,0,0-4.07,1.75,6.47,6.47,0,0,0,0,8.79,5.44,5.44,0,0,0,4.07,1.79,5.57,5.57,0,0,0,4.19-1.79A6.05,6.05,0,0,0,302.27,818.83Z"/><rect class="cls-8" x="312.54" y="781.81" width="6.19" height="48.19"/><rect class="cls-11" x="312.54" y="781.81" width="6.19" height="48.19"/><path class="cls-8" d="M336.93,807.72a10.36,10.36,0,0,1,7.76,3.23,11.69,11.69,0,0,1,0,15.9,10.86,10.86,0,0,1-15.44,0,11.66,11.66,0,0,1,0-15.9,10.26,10.26,0,0,1,7.68-3.23m5.9,11.11a6,6,0,0,0-1.71-4.42,5.61,5.61,0,0,0-4.19-1.75,5.51,5.51,0,0,0-4.08,1.75,6.5,6.5,0,0,0,0,8.79,5.48,5.48,0,0,0,4.08,1.79,5.57,5.57,0,0,0,4.19-1.79,6.05,6.05,0,0,0,1.71-4.37"/><path class="cls-11" d="M336.93,807.72a10.36,10.36,0,0,1,7.76,3.23,11.69,11.69,0,0,1,0,15.9,10.86,10.86,0,0,1-15.44,0,11.66,11.66,0,0,1,0-15.9A10.26,10.26,0,0,1,336.93,807.72Zm5.9,11.11a6,6,0,0,0-1.71-4.42,5.61,5.61,0,0,0-4.19-1.75,5.51,5.51,0,0,0-4.08,1.75,6.5,6.5,0,0,0,0,8.79,5.48,5.48,0,0,0,4.08,1.79,5.57,5.57,0,0,0,4.19-1.79A6.05,6.05,0,0,0,342.83,818.83Z"/><polygon class="cls-8" points="388.23 830 353.18 830 353.18 781.81 388.23 781.81 388.23 788.2 359.47 788.2 359.47 823.62 388.23 823.62 388.23 830"/><polygon class="cls-11" points="388.23 830 353.18 830 353.18 781.81 388.23 781.81 388.23 788.2 359.47 788.2 359.47 823.62 388.23 823.62 388.23 830"/><path class="cls-8" d="M407.45,809.1a10.69,10.69,0,0,1,7.76,3,10,10,0,0,1,3.13,7.43,9.83,9.83,0,0,1-3.13,7.35,11.4,11.4,0,0,1-15.44,0,9.82,9.82,0,0,1-3.12-7.35,10,10,0,0,1,3.12-7.43,10.58,10.58,0,0,1,7.68-3m.22-27.3a10.7,10.7,0,0,1,7.76,3,10,10,0,0,1,3.12,7.44,9.83,9.83,0,0,1-3.12,7.35,10.8,10.8,0,0,1-7.76,3,10.68,10.68,0,0,1-7.66-3,9.76,9.76,0,0,1-3.16-7.35,9.88,9.88,0,0,1,3.16-7.44,10.59,10.59,0,0,1,7.66-3m6,37.7a6.06,6.06,0,0,0-1.8-4.45,6.19,6.19,0,0,0-8.71,0,6,6,0,0,0-1.8,4.45,5.86,5.86,0,0,0,1.8,4.38,6.16,6.16,0,0,0,10.51-4.38m.21-27.3a6.07,6.07,0,0,0-6.19-6.23,5.92,5.92,0,0,0-4.3,1.77,6.09,6.09,0,0,0-1.78,4.46,6,6,0,0,0,1.78,4.38,5.86,5.86,0,0,0,4.3,1.79,6.1,6.1,0,0,0,6.19-6.17"/><path class="cls-11" d="M407.45,809.1a10.69,10.69,0,0,1,7.76,3,10,10,0,0,1,3.13,7.43,9.83,9.83,0,0,1-3.13,7.35,11.4,11.4,0,0,1-15.44,0,9.82,9.82,0,0,1-3.12-7.35,10,10,0,0,1,3.12-7.43A10.58,10.58,0,0,1,407.45,809.1Zm.22-27.3a10.7,10.7,0,0,1,7.76,3,10,10,0,0,1,3.12,7.44,9.83,9.83,0,0,1-3.12,7.35,10.8,10.8,0,0,1-7.76,3,10.68,10.68,0,0,1-7.66-3,9.76,9.76,0,0,1-3.16-7.35,9.88,9.88,0,0,1,3.16-7.44A10.59,10.59,0,0,1,407.67,781.8Zm6,37.7a6.06,6.06,0,0,0-1.8-4.45,6.19,6.19,0,0,0-8.71,0,6,6,0,0,0-1.8,4.45,5.86,5.86,0,0,0,1.8,4.38,6.16,6.16,0,0,0,10.51-4.38Zm.21-27.3a6.07,6.07,0,0,0-6.19-6.23,5.92,5.92,0,0,0-4.3,1.77,6.09,6.09,0,0,0-1.78,4.46,6,6,0,0,0,1.78,4.38,5.86,5.86,0,0,0,4.3,1.79,6.1,6.1,0,0,0,6.19-6.17Z"/><path class="cls-8" d="M471.6,806.2a23.78,23.78,0,0,1-7,16.8,22.84,22.84,0,0,1-32.8,0A23.42,23.42,0,0,1,425,806.2a23.7,23.7,0,0,1,6.68-17.28,21.9,21.9,0,0,1,16.47-7.12A22.25,22.25,0,0,1,464.81,789a23.79,23.79,0,0,1,6.79,17.25m-6.45-.15a18.12,18.12,0,0,0-5-12.8,15,15,0,0,0-11.76-5.13,15.88,15.88,0,0,0-12,5.35,18,18,0,0,0,.14,24.86,15.74,15.74,0,0,0,11.75,5.22,16,16,0,0,0,11.68-5.27,17.8,17.8,0,0,0,5.21-12.23"/><path class="cls-11" d="M471.6,806.2a23.78,23.78,0,0,1-7,16.8,22.84,22.84,0,0,1-32.8,0A23.42,23.42,0,0,1,425,806.2a23.74,23.74,0,0,1,6.68-17.29,21.92,21.92,0,0,1,16.47-7.11A22.25,22.25,0,0,1,464.81,789,23.79,23.79,0,0,1,471.6,806.2Zm-6.45-.15a18.12,18.12,0,0,0-5-12.8,15,15,0,0,0-11.76-5.13,15.88,15.88,0,0,0-12,5.35,18,18,0,0,0,.14,24.86,15.74,15.74,0,0,0,11.75,5.22,16,16,0,0,0,11.68-5.27A17.76,17.76,0,0,0,465.15,806.05Z"/><rect class="cls-8" x="504.98" y="781.81" width="6.19" height="48.19"/><rect class="cls-11" x="504.99" y="781.81" width="6.19" height="48.19"/><path class="cls-8" d="M555,809.1a10.66,10.66,0,0,1,7.75,3,10,10,0,0,1,3.14,7.43,9.8,9.8,0,0,1-3.14,7.35,11.39,11.39,0,0,1-15.43,0,9.79,9.79,0,0,1-3.13-7.35,10,10,0,0,1,3.13-7.43,10.6,10.6,0,0,1,7.68-3m.22-27.3a10.66,10.66,0,0,1,7.75,3,9.93,9.93,0,0,1,3.14,7.44,9.82,9.82,0,0,1-3.14,7.35,11.38,11.38,0,0,1-15.42,0,9.82,9.82,0,0,1-3.14-7.35,9.93,9.93,0,0,1,3.14-7.44,10.63,10.63,0,0,1,7.67-3m6,37.7a6.08,6.08,0,0,0-1.78-4.45,6.22,6.22,0,0,0-8.73,0,6.06,6.06,0,0,0-1.8,4.45,5.9,5.9,0,0,0,1.8,4.38,6.24,6.24,0,0,0,8.73,0,5.92,5.92,0,0,0,1.78-4.38m.22-27.3a6.08,6.08,0,0,0-6.19-6.23,5.94,5.94,0,0,0-4.3,1.77,6.09,6.09,0,0,0-1.78,4.46,6,6,0,0,0,1.78,4.38,5.88,5.88,0,0,0,4.3,1.79,6,6,0,0,0,4.4-1.79,5.91,5.91,0,0,0,1.79-4.38"/><path class="cls-11" d="M555,809.1a10.66,10.66,0,0,1,7.75,3,10,10,0,0,1,3.14,7.43,9.8,9.8,0,0,1-3.14,7.35,11.39,11.39,0,0,1-15.43,0,9.79,9.79,0,0,1-3.13-7.35,10,10,0,0,1,3.13-7.43A10.6,10.6,0,0,1,555,809.1Zm.22-27.3a10.66,10.66,0,0,1,7.75,3,9.93,9.93,0,0,1,3.14,7.44,9.82,9.82,0,0,1-3.14,7.35,11.38,11.38,0,0,1-15.42,0,9.82,9.82,0,0,1-3.14-7.35,9.93,9.93,0,0,1,3.14-7.44A10.63,10.63,0,0,1,555.26,781.8Zm6,37.7a6.08,6.08,0,0,0-1.78-4.45,6.22,6.22,0,0,0-8.73,0,6,6,0,0,0-1.79,4.45,5.89,5.89,0,0,0,1.79,4.38,6.24,6.24,0,0,0,8.73,0A5.92,5.92,0,0,0,561.23,819.5Zm.22-27.3a6.08,6.08,0,0,0-6.19-6.23,5.94,5.94,0,0,0-4.3,1.77,6.09,6.09,0,0,0-1.78,4.46,6,6,0,0,0,1.78,4.38,5.88,5.88,0,0,0,4.3,1.79,6,6,0,0,0,4.4-1.79A5.91,5.91,0,0,0,561.45,792.2Z"/><polygon class="cls-8" points="607.54 830 572.48 830 572.48 781.81 607.54 781.81 607.54 788.2 578.78 788.2 578.78 823.62 607.54 823.62 607.54 830"/><polygon class="cls-11" points="607.54 830 572.48 830 572.48 781.81 607.54 781.81 607.54 788.2 578.78 788.2 578.78 823.62 607.54 823.62 607.54 830"/><path class="cls-8" d="M636.69,830.85l-2.69-.62A25.16,25.16,0,0,1,622.9,824a24.72,24.72,0,0,1-6.81-17.64,24,24,0,0,1,20.83-24.73,32.57,32.57,0,0,1,9-.08c3.23.87,5.31,2.55,6.27,5.05a8.62,8.62,0,0,1-.51,6.14,8.11,8.11,0,0,1-4.53,4,8,8,0,0,1-5.79-.41,7.2,7.2,0,0,1-3.59-4.38,8.85,8.85,0,0,1,0-4.79,19.79,19.79,0,0,0-10.89,5.87c-2.87,3.49-4.22,7.88-4.08,13.13a19.94,19.94,0,0,0,13.81,19.09,12.82,12.82,0,0,1,.65-5.94,7.46,7.46,0,0,1,4.4-4.17,10,10,0,0,1,6.55.25,7.36,7.36,0,0,1,3.92,5,9.2,9.2,0,0,1-.64,6.46c-1,2.28-3.23,3.71-6.7,4.27a27.6,27.6,0,0,1-8.12-.3M647,824.62a3.37,3.37,0,0,0,.25-2.71,3.18,3.18,0,0,0-1.67-1.93,2.89,2.89,0,0,0-2.51-.13,3.36,3.36,0,0,0-1.93,1.66,3.63,3.63,0,0,0-.12,2.77,3.57,3.57,0,0,0,1.61,2.08,2.94,2.94,0,0,0,2.51.06,3.42,3.42,0,0,0,1.86-1.8m.77-36.5a2.94,2.94,0,0,0-1.54-1.84,3.07,3.07,0,0,0-2.51-.17,3.16,3.16,0,0,0-1.81,1.58,3.87,3.87,0,0,0-.26,2.55,2.92,2.92,0,0,0,1.61,1.89,3.43,3.43,0,0,0,2.51.22,3.67,3.67,0,0,0,1.84-1.7,3.22,3.22,0,0,0,.16-2.53"/><path class="cls-11" d="M636.69,830.85l-2.69-.62A25.16,25.16,0,0,1,622.9,824a24.72,24.72,0,0,1-6.81-17.64,24,24,0,0,1,20.83-24.73,32.57,32.57,0,0,1,9-.08c3.23.87,5.31,2.55,6.27,5.05a8.62,8.62,0,0,1-.51,6.14,8.11,8.11,0,0,1-4.53,4,8,8,0,0,1-5.79-.41,7.2,7.2,0,0,1-3.59-4.38,8.85,8.85,0,0,1,0-4.79,19.79,19.79,0,0,0-10.89,5.87c-2.87,3.49-4.22,7.88-4.08,13.13a19.94,19.94,0,0,0,13.81,19.09,12.82,12.82,0,0,1,.65-5.94,7.46,7.46,0,0,1,4.4-4.17,10,10,0,0,1,6.55.25,7.36,7.36,0,0,1,3.92,5,9.2,9.2,0,0,1-.64,6.46c-1,2.28-3.23,3.71-6.7,4.27A27.6,27.6,0,0,1,636.69,830.85ZM647,824.62a3.37,3.37,0,0,0,.25-2.71,3.18,3.18,0,0,0-1.67-1.93,2.89,2.89,0,0,0-2.51-.13,3.36,3.36,0,0,0-1.93,1.66,3.63,3.63,0,0,0-.12,2.77,3.57,3.57,0,0,0,1.61,2.08,2.94,2.94,0,0,0,2.51.06A3.42,3.42,0,0,0,647,824.62Zm.77-36.5a2.94,2.94,0,0,0-1.54-1.84,3.07,3.07,0,0,0-2.51-.17,3.16,3.16,0,0,0-1.81,1.58,3.87,3.87,0,0,0-.26,2.55,2.92,2.92,0,0,0,1.61,1.89,3.43,3.43,0,0,0,2.51.22,3.67,3.67,0,0,0,1.84-1.7A3.22,3.22,0,0,0,647.8,788.12Z"/><path class="cls-8" d="M670.15,807.72a10.33,10.33,0,0,1,7.76,3.23,11.63,11.63,0,0,1,0,15.9,10.85,10.85,0,0,1-15.43,0,11.66,11.66,0,0,1,0-15.9,10.24,10.24,0,0,1,7.67-3.23m5.91,11.11a6,6,0,0,0-1.72-4.42,5.62,5.62,0,0,0-4.19-1.75,5.49,5.49,0,0,0-4.07,1.75,6.5,6.5,0,0,0,0,8.79,5.46,5.46,0,0,0,4.07,1.79,5.59,5.59,0,0,0,4.19-1.79,6.06,6.06,0,0,0,1.72-4.37"/><path class="cls-11" d="M670.15,807.72a10.33,10.33,0,0,1,7.76,3.23,11.63,11.63,0,0,1,0,15.9,10.85,10.85,0,0,1-15.43,0,11.66,11.66,0,0,1,0-15.9A10.24,10.24,0,0,1,670.15,807.72Zm5.91,11.11a6,6,0,0,0-1.72-4.42,5.62,5.62,0,0,0-4.19-1.75,5.49,5.49,0,0,0-4.07,1.75,6.5,6.5,0,0,0,0,8.79,5.46,5.46,0,0,0,4.07,1.79,5.59,5.59,0,0,0,4.19-1.79A6.06,6.06,0,0,0,676.06,818.83Z"/><polygon class="cls-8" points="718.54 823.69 718.54 781.72 724.8 781.72 724.8 830 686.39 830 686.39 781.72 692.76 781.72 692.76 823.69 718.54 823.69"/><polygon class="cls-11" points="718.54 823.69 718.54 781.72 724.8 781.72 724.8 830 686.39 830 686.39 781.72 692.76 781.72 692.76 823.69 718.54 823.69"/><path class="cls-8" d="M743,807.72a10.33,10.33,0,0,1,7.76,3.23,11.66,11.66,0,0,1,0,15.9,10.86,10.86,0,0,1-15.44,0,11.66,11.66,0,0,1,0-15.9,10.26,10.26,0,0,1,7.68-3.23m5.9,11.11a6,6,0,0,0-1.71-4.42,5.62,5.62,0,0,0-4.19-1.75,5.49,5.49,0,0,0-4.07,1.75,6.47,6.47,0,0,0,0,8.79A5.46,5.46,0,0,0,743,825a5.59,5.59,0,0,0,4.19-1.79,6.05,6.05,0,0,0,1.71-4.37"/><path class="cls-11" d="M743,807.72a10.33,10.33,0,0,1,7.76,3.23,11.66,11.66,0,0,1,0,15.9,10.86,10.86,0,0,1-15.44,0,11.66,11.66,0,0,1,0-15.9A10.26,10.26,0,0,1,743,807.72Zm5.9,11.11a6,6,0,0,0-1.71-4.42,5.62,5.62,0,0,0-4.19-1.75,5.49,5.49,0,0,0-4.07,1.75,6.47,6.47,0,0,0,0,8.79A5.46,5.46,0,0,0,743,825a5.59,5.59,0,0,0,4.19-1.79A6.05,6.05,0,0,0,748.9,818.83Z"/><path class="cls-8" d="M806,806.2a23.88,23.88,0,0,1-6.18,16l7,7.9h-6.93l-3.9-4.41a22.15,22.15,0,0,1-13.43,4.27,21.89,21.89,0,0,1-16.31-7,23.47,23.47,0,0,1-6.85-16.77A23.74,23.74,0,0,1,766,788.91a21.94,21.94,0,0,1,16.48-7.1A22.25,22.25,0,0,1,799.16,789,23.72,23.72,0,0,1,806,806.2m-10.66,10.88a14.52,14.52,0,0,0,3.49-6.23,19.15,19.15,0,0,0,.73-4.8,18,18,0,0,0-5-12.77,15,15,0,0,0-11.76-5.16,16,16,0,0,0-12,5.35,18,18,0,0,0,.15,24.85,15.76,15.76,0,0,0,11.76,5.23c4.46-.06,7.41-.9,8.85-2.54l-9.11-10.76v-7.76Z"/><path class="cls-11" d="M806,806.2a23.88,23.88,0,0,1-6.18,16l7,7.9h-6.93l-3.9-4.41a22.15,22.15,0,0,1-13.43,4.27,21.89,21.89,0,0,1-16.31-7,23.47,23.47,0,0,1-6.85-16.77A23.78,23.78,0,0,1,766,788.91a21.94,21.94,0,0,1,16.48-7.1A22.25,22.25,0,0,1,799.16,789,23.72,23.72,0,0,1,806,806.2Zm-10.66,10.88a14.52,14.52,0,0,0,3.49-6.23,19.15,19.15,0,0,0,.73-4.8,18,18,0,0,0-5-12.77,15,15,0,0,0-11.76-5.16,16,16,0,0,0-12,5.35,18,18,0,0,0,.15,24.85,15.76,15.76,0,0,0,11.76,5.23c4.46-.06,7.41-.9,8.85-2.54l-9.11-10.76v-7.76Z"/><path class="cls-8" d="M848.94,807.72A10.36,10.36,0,0,1,856.7,811a11.66,11.66,0,0,1,0,15.9,10.86,10.86,0,0,1-15.44,0,11.66,11.66,0,0,1,0-15.9,10.26,10.26,0,0,1,7.68-3.23m5.9,11.11a6,6,0,0,0-1.71-4.42,5.62,5.62,0,0,0-4.19-1.75,5.49,5.49,0,0,0-4.07,1.75,6.47,6.47,0,0,0,0,8.79,5.46,5.46,0,0,0,4.07,1.79,5.59,5.59,0,0,0,4.19-1.79,6.05,6.05,0,0,0,1.71-4.37"/><path class="cls-11" d="M848.94,807.72A10.36,10.36,0,0,1,856.7,811a11.66,11.66,0,0,1,0,15.9,10.86,10.86,0,0,1-15.44,0,11.66,11.66,0,0,1,0-15.9A10.26,10.26,0,0,1,848.94,807.72Zm5.9,11.11a6,6,0,0,0-1.71-4.42,5.62,5.62,0,0,0-4.19-1.75,5.49,5.49,0,0,0-4.07,1.75,6.47,6.47,0,0,0,0,8.79,5.46,5.46,0,0,0,4.07,1.79,5.59,5.59,0,0,0,4.19-1.79A6.05,6.05,0,0,0,854.84,818.83Z"/><rect class="cls-8" x="865.11" y="781.81" width="6.19" height="48.19"/><rect class="cls-11" x="865.11" y="781.81" width="6.19" height="48.19"/><polygon class="cls-8" points="893.76 808.8 893.76 830 878.91 830 878.91 823.62 887.5 823.62 887.5 788.12 879.1 788.12 879.1 781.81 893.76 781.81 893.76 802.49 902.35 802.49 902.35 781.81 917.1 781.81 917.1 788.12 908.62 788.12 908.62 823.62 917.25 823.62 917.25 830 902.35 830 902.35 808.8 893.76 808.8"/><polygon class="cls-11" points="893.76 808.8 893.76 830 878.91 830 878.91 823.62 887.5 823.62 887.5 788.12 879.1 788.12 879.1 781.81 893.76 781.81 893.76 802.49 902.35 802.49 902.35 781.81 917.1 781.81 917.1 788.12 908.62 788.12 908.62 823.62 917.25 823.62 917.25 830 902.35 830 902.35 808.8 893.76 808.8"/><path class="cls-8" d="M947.35,830H941V800.74L933.4,813a24.11,24.11,0,0,0-2.22,8.62,62.56,62.56,0,0,0-.5,8.35h-6.31V781.81h6.31v27q10.56-17.89,10.41-24.06v-1.42a15,15,0,0,0-.07-1.51h6.33Z"/><path class="cls-11" d="M947.35,830H941V800.74L933.4,813a24.11,24.11,0,0,0-2.22,8.62,62.56,62.56,0,0,0-.5,8.35h-6.31V781.81h6.31v27q10.56-17.89,10.41-24.06v-1.42a15,15,0,0,0-.07-1.51h6.33Z"/><path class="cls-8" d="M966.28,807.72A10.29,10.29,0,0,1,974,811a11.61,11.61,0,0,1,0,15.9,10.84,10.84,0,0,1-15.42,0,11.66,11.66,0,0,1,0-15.9,10.26,10.26,0,0,1,7.68-3.23m5.9,11.11a6,6,0,0,0-1.71-4.42,5.62,5.62,0,0,0-4.19-1.75,5.49,5.49,0,0,0-4.08,1.75,6.5,6.5,0,0,0,0,8.79,5.46,5.46,0,0,0,4.08,1.79,5.59,5.59,0,0,0,4.19-1.79,6.05,6.05,0,0,0,1.71-4.37"/><path class="cls-11" d="M966.28,807.72A10.29,10.29,0,0,1,974,811a11.61,11.61,0,0,1,0,15.9,10.84,10.84,0,0,1-15.42,0,11.66,11.66,0,0,1,0-15.9A10.26,10.26,0,0,1,966.28,807.72Zm5.9,11.11a6,6,0,0,0-1.71-4.42,5.62,5.62,0,0,0-4.19-1.75,5.49,5.49,0,0,0-4.08,1.75,6.5,6.5,0,0,0,0,8.79,5.46,5.46,0,0,0,4.08,1.79,5.59,5.59,0,0,0,4.19-1.79A6.05,6.05,0,0,0,972.18,818.83Z"/><polygon class="cls-8" points="1015.72 830 1008.92 830 998.94 809.17 988.97 830 982.23 830 1005.28 781.72 1012.04 781.72 1002.36 802 1015.72 830"/><polygon class="cls-11" points="1015.72 830 1008.92 830 998.94 809.17 988.97 830 982.23 830 1005.28 781.72 1012.04 781.72 1002.36 802 1015.72 830"/></g></svg>